<?xml version="1.0" encoding="UTF-8" standalone="no"?>
<svg
   width="1em"
   height="1em"
   preserveAspectRatio="xMidYMid meet"
   viewBox="0 0 24 24"
   style="-ms-transform: rotate(360deg); -webkit-transform: rotate(360deg); transform: rotate(360deg);"
   version="1.1"
   id="svg4"
   sodipodi:docname="menu-settings.svg"
   inkscape:version="1.1.2 (0a00cf5339, 2022-02-04)"
   xmlns:inkscape="http://www.inkscape.org/namespaces/inkscape"
   xmlns:sodipodi="http://sodipodi.sourceforge.net/DTD/sodipodi-0.dtd"
   xmlns="http://www.w3.org/2000/svg"
   xmlns:svg="http://www.w3.org/2000/svg">
  <defs
     id="defs8" />
  <sodipodi:namedview
     id="namedview6"
     pagecolor="#ffffff"
     bordercolor="#666666"
     borderopacity="1.0"
     inkscape:pageshadow="2"
     inkscape:pageopacity="0.0"
     inkscape:pagecheckerboard="0"
     showgrid="false"
     inkscape:zoom="31.041667"
     inkscape:cx="11.226846"
     inkscape:cy="11.983893"
     inkscape:window-width="1920"
     inkscape:window-height="1043"
     inkscape:window-x="1920"
     inkscape:window-y="0"
     inkscape:window-maximized="1"
     inkscape:current-layer="svg4" />
  <path
     fill="currentColor"
     d="m 8.75,13.5 c 1.505561,-1.89e-4 2.81428,1.033381 3.163,2.498 L 21.25,16 c 0.933725,2.86e-4 1.02701,1.365727 0.102,1.493 L 21.25,17.5 h -9.337 c -0.791654,3.332951 -5.5343459,3.332951 -6.326,0 H 2.75 C 1.816275,17.499714 1.7229897,16.134273 2.648,16.007 L 2.75,16 H 5.587 C 5.9349298,14.534586 7.2438486,13.500032 8.75,13.5 Z M 15.25,4 c 1.506151,3.16e-5 2.81507,1.0345865 3.163,2.5 h 2.837 c 0.933725,2.862e-4 1.02701,1.3657272 0.102,1.493 L 21.25,8 h -2.837 c -0.791654,3.332951 -5.534346,3.332951 -6.326,0 H 2.75 C 1.816275,7.9997138 1.7229897,6.6342728 2.648,6.507 L 2.75,6.5 12.087,6.498 C 12.43572,5.033381 13.744439,3.9998113 15.25,4 Z"
     id="path2"
     sodipodi:nodetypes="cccccccccccccccccccccccc"
     style="fill:#555555;fill-opacity:1" />
</svg>
