<?xml version="1.0" encoding="UTF-8" standalone="no"?>
<svg
   width="24"
   height="24"
   preserveAspectRatio="xMidYMid meet"
   viewBox="0 0 24 24"
   style="-ms-transform:rotate(360deg);-webkit-transform:rotate(360deg)"
   version="1.1"
   id="svg4"
   sodipodi:docname="options-curvefit.svg"
   inkscape:version="1.1.2 (0a00cf5339, 2022-02-04)"
   xmlns:inkscape="http://www.inkscape.org/namespaces/inkscape"
   xmlns:sodipodi="http://sodipodi.sourceforge.net/DTD/sodipodi-0.dtd"
   xmlns="http://www.w3.org/2000/svg"
   xmlns:svg="http://www.w3.org/2000/svg">
  <defs
     id="defs8" />
  <sodipodi:namedview
     id="namedview6"
     pagecolor="#ffffff"
     bordercolor="#666666"
     borderopacity="1.0"
     inkscape:pageshadow="2"
     inkscape:pageopacity="0.0"
     inkscape:pagecheckerboard="0"
     showgrid="false"
     inkscape:zoom="14.869198"
     inkscape:cx="1.6477015"
     inkscape:cy="8.7092795"
     inkscape:window-width="1920"
     inkscape:window-height="1043"
     inkscape:window-x="1920"
     inkscape:window-y="0"
     inkscape:window-maximized="1"
     inkscape:current-layer="svg4" />
  <path
     fill="currentColor"
     d="M 4.8571428,2 A 2.8571428,2.8571428 0 0 0 2,4.8571428 V 19.142857 A 2.8571428,2.8571428 0 0 0 4.8571428,22 H 19.142857 A 2.8571428,2.8571428 0 0 0 22,19.142857 V 4.8571428 A 2.8571428,2.8571428 0 0 0 19.142857,2 Z M 20.571428,16.171428 C 19.378571,15.967142 18.538571,15.5 17.911428,14.914285 17.034285,14.097143 16.501428,12.98 16.065714,11.76 c -0.15,-0.418572 -0.281429,-0.828572 -0.412857,-1.238572 L 15.467142,9.9414281 A 12.735714,12.735714 0 0 0 14.804285,8.242857 C 14.544285,7.7242856 14.212857,7.2314285 13.75,6.8671427 A 2.7571428,2.7571428 0 0 0 12,6.2857142 c -0.688572,0 -1.27,0.2057143 -1.75,0.5814285 C 9.7871431,7.2314285 9.4557141,7.7242856 9.1957141,8.242857 A 12.751428,12.751428 0 0 0 8.5342856,9.9414281 L 8.3457141,10.521428 c -0.1314285,0.41 -0.2614286,0.82 -0.4114286,1.238572 -0.4357143,1.22 -0.9685714,2.337143 -1.8457143,3.155714 -0.6285714,0.585714 -1.4671428,1.051428 -2.6599999,1.257143 V 4.8571428 A 1.4285714,1.4285714 0 0 1 4.8571428,3.4285714 H 19.142857 a 1.4285714,1.4285714 0 0 1 1.428571,1.4285714 z M 3.4285714,17.617142 c 1.56,-0.222857 2.7357142,-0.818571 3.6342856,-1.657142 1.1328572,-1.057143 1.76,-2.44 2.2171431,-3.72 0.157143,-0.44 0.3,-0.888572 0.435714,-1.31 l 0.175714,-0.542857 A 11.457143,11.457143 0 0 1 10.474285,8.8814284 C 10.682857,8.462857 10.898571,8.1742856 11.131428,7.9914285 A 1.3314285,1.3314285 0 0 1 12,7.7142856 c 0.382857,0 0.65,0.1071429 0.867143,0.2771429 0.234285,0.1828571 0.45,0.4714285 0.658571,0.8899999 0.21,0.4185717 0.391429,0.9242857 0.582857,1.5057146 L 14.284285,10.93 C 14.42,11.351428 14.562857,11.8 14.72,12.24 c 0.457142,1.28 1.085714,2.662857 2.217142,3.72 0.9,0.838571 2.074286,1.434285 3.634286,1.657142 v 1.525715 a 1.4285714,1.4285714 0 0 1 -1.428571,1.428571 H 4.8571428 A 1.4285714,1.4285714 0 0 1 3.4285714,19.142857 Z"
     id="path2"
     style="stroke-width:1;fill:#555555;fill-opacity:1" />
</svg>
