<?xml version="1.0" encoding="UTF-8" standalone="no"?>
<svg
   width="1em"
   height="1em"
   preserveAspectRatio="xMidYMid meet"
   viewBox="0 0 256 256"
   style="-ms-transform: rotate(360deg); -webkit-transform: rotate(360deg); transform: rotate(360deg);"
   version="1.1"
   id="svg4"
   sodipodi:docname="options-peakfit.svg"
   inkscape:version="1.1.2 (0a00cf5339, 2022-02-04)"
   inkscape:export-filename="/media/Rowlf/Share/Work/SS/Git/Peakaboo/SwingUI/src/main/resources/org/peakaboo/ui/swing/icons/svg-sources/options-peakfit.png"
   inkscape:export-xdpi="6"
   inkscape:export-ydpi="6"
   xmlns:inkscape="http://www.inkscape.org/namespaces/inkscape"
   xmlns:sodipodi="http://sodipodi.sourceforge.net/DTD/sodipodi-0.dtd"
   xmlns="http://www.w3.org/2000/svg"
   xmlns:svg="http://www.w3.org/2000/svg">
  <defs
     id="defs8" />
  <sodipodi:namedview
     id="namedview6"
     pagecolor="#ffffff"
     bordercolor="#666666"
     borderopacity="1.0"
     inkscape:pageshadow="2"
     inkscape:pageopacity="0.0"
     inkscape:pagecheckerboard="0"
     showgrid="false"
     inkscape:zoom="2.9101562"
     inkscape:cx="124.04832"
     inkscape:cy="127.82819"
     inkscape:window-width="1920"
     inkscape:window-height="1043"
     inkscape:window-x="5760"
     inkscape:window-y="0"
     inkscape:window-maximized="1"
     inkscape:current-layer="svg4" />
  <path
     fill="currentColor"
     d="M224.3 141a100.7 100.7 0 0 0-31.4-49H240a12 12 0 0 0 0-24h-78.1a35.9 35.9 0 0 0-67.8 0H16a12 12 0 0 0 0 24h47.1a100.7 100.7 0 0 0-31.4 49a35.9 35.9 0 1 0 24.3 2.7a76.7 76.7 0 0 1 41.1-45.2a36 36 0 0 0 61.8 0a76.7 76.7 0 0 1 41.1 45.2a36.1 36.1 0 1 0 24.3-2.7ZM40 188a12 12 0 1 1 12-12a12 12 0 0 1-12 12Zm88-96a12 12 0 1 1 12-12a12 12 0 0 1-12 12Zm88 96a12 12 0 1 1 12-12a12 12 0 0 1-12 12Z"
     id="path2"
     style="fill:#404040;fill-opacity:1" />
</svg>
