<?xml version="1.0" encoding="UTF-8" standalone="no"?>
<svg
   width="1em"
   height="1em"
   preserveAspectRatio="xMidYMid meet"
   viewBox="0 0 24 24"
   style="-ms-transform: rotate(360deg); -webkit-transform: rotate(360deg); transform: rotate(360deg);"
   version="1.1"
   id="svg4"
   sodipodi:docname="options-solver.svg"
   inkscape:version="1.1.2 (0a00cf5339, 2022-02-04)"
   xmlns:inkscape="http://www.inkscape.org/namespaces/inkscape"
   xmlns:sodipodi="http://sodipodi.sourceforge.net/DTD/sodipodi-0.dtd"
   xmlns="http://www.w3.org/2000/svg"
   xmlns:svg="http://www.w3.org/2000/svg">
  <defs
     id="defs8" />
  <sodipodi:namedview
     id="namedview6"
     pagecolor="#ffffff"
     bordercolor="#666666"
     borderopacity="1.0"
     inkscape:pageshadow="2"
     inkscape:pageopacity="0.0"
     inkscape:pagecheckerboard="0"
     showgrid="false"
     inkscape:zoom="31.041667"
     inkscape:cx="11.226846"
     inkscape:cy="11.983893"
     inkscape:window-width="1920"
     inkscape:window-height="1043"
     inkscape:window-x="1920"
     inkscape:window-y="0"
     inkscape:window-maximized="1"
     inkscape:current-layer="svg4" />
  <path
     fill="currentColor"
     d="M3 3.75A.75.75 0 0 1 3.75 3h16.5a.75.75 0 0 1 0 1.5h-1.042l2.737 6.717A.75.75 0 0 1 22 11.5a3.5 3.5 0 1 1-7 0a.75.75 0 0 1 .055-.283L17.792 4.5H12.75v12h4a2.25 2.25 0 0 1 0 4.5H7.253a2.25 2.25 0 0 1 0-4.5h3.997v-12H6.208l2.737 6.717A.75.75 0 0 1 9 11.5a3.5 3.5 0 1 1-7 0a.75.75 0 0 1 .055-.283L4.792 4.5H3.75A.75.75 0 0 1 3 3.75Zm3.503 15c0 .414.336.75.75.75h9.497a.75.75 0 0 0 0-1.5H7.253a.75.75 0 0 0-.75.75Zm.852-6.5h-3.71a2 2 0 0 0 3.71 0Zm-.22-1.5L5.5 6.738L3.865 10.75h3.27ZM18.5 13.5a2 2 0 0 0 1.855-1.25h-3.71A2 2 0 0 0 18.5 13.5Zm-1.635-2.75h3.27L18.5 6.738l-1.635 4.012Z"
     id="path2"
     style="fill:#555555;fill-opacity:1" />
</svg>
