<?xml version="1.0" encoding="UTF-8" standalone="no"?>
<svg
   width="1em"
   height="1em"
   preserveAspectRatio="xMidYMid meet"
   viewBox="0 0 24 24"
   style="-ms-transform: rotate(360deg); -webkit-transform: rotate(360deg); transform: rotate(360deg);"
   version="1.1"
   id="svg4"
   sodipodi:docname="options-detector.svg"
   inkscape:version="1.1.2 (0a00cf5339, 2022-02-04)"
   xmlns:inkscape="http://www.inkscape.org/namespaces/inkscape"
   xmlns:sodipodi="http://sodipodi.sourceforge.net/DTD/sodipodi-0.dtd"
   xmlns="http://www.w3.org/2000/svg"
   xmlns:svg="http://www.w3.org/2000/svg">
  <defs
     id="defs8" />
  <sodipodi:namedview
     id="namedview6"
     pagecolor="#ffffff"
     bordercolor="#666666"
     borderopacity="1.0"
     inkscape:pageshadow="2"
     inkscape:pageopacity="0.0"
     inkscape:pagecheckerboard="0"
     showgrid="false"
     inkscape:zoom="31.041667"
     inkscape:cx="11.226846"
     inkscape:cy="12"
     inkscape:window-width="1920"
     inkscape:window-height="1043"
     inkscape:window-x="1920"
     inkscape:window-y="0"
     inkscape:window-maximized="1"
     inkscape:current-layer="svg4" />
  <path
     fill="currentColor"
     d="M13.925 2.504a2.25 2.25 0 0 1 1.94 1.11l.814 1.387h2.071A3.25 3.25 0 0 1 22 8.25v9.5A3.25 3.25 0 0 1 18.75 21H5.25A3.25 3.25 0 0 1 2 17.75v-9.5A3.25 3.25 0 0 1 5.25 5h2.08l.875-1.424a2.25 2.25 0 0 1 1.917-1.073h3.803Zm0 1.5h-3.803a.75.75 0 0 0-.574.268l-.065.09l-1.093 1.78a.75.75 0 0 1-.639.358h-2.5A1.75 1.75 0 0 0 3.5 8.25v9.5c0 .966.784 1.75 1.75 1.75h13.5a1.75 1.75 0 0 0 1.75-1.75v-9.5a1.75 1.75 0 0 0-1.75-1.75h-2.5a.75.75 0 0 1-.647-.37l-1.032-1.757a.75.75 0 0 0-.646-.37ZM12 8a4.5 4.5 0 1 1 0 9a4.5 4.5 0 0 1 0-9Zm0 1.5a3 3 0 1 0 0 6a3 3 0 0 0 0-6Z"
     id="path2"
     style="fill:#555555;fill-opacity:1" />
</svg>
