<?xml version="1.0" encoding="UTF-8" standalone="no"?>
<!-- Created with Inkscape (http://www.inkscape.org/) -->

<svg
   width="48px"
   height="48px"
   id="svg3983"
   version="1.1"
   inkscape:version="1.1.2 (0a00cf5339, 2022-02-04)"
   sodipodi:docname="plot.svg"
   inkscape:export-filename="/home/nathaniel/Projects/SS/Git/Peakaboo/SwingUI/src/main/resources/org/peakaboo/ui/swing/icons/24/map.png"
   inkscape:export-xdpi="48"
   inkscape:export-ydpi="48"
   enable-background="new"
   xmlns:inkscape="http://www.inkscape.org/namespaces/inkscape"
   xmlns:sodipodi="http://sodipodi.sourceforge.net/DTD/sodipodi-0.dtd"
   xmlns:xlink="http://www.w3.org/1999/xlink"
   xmlns="http://www.w3.org/2000/svg"
   xmlns:svg="http://www.w3.org/2000/svg"
   xmlns:rdf="http://www.w3.org/1999/02/22-rdf-syntax-ns#"
   xmlns:cc="http://creativecommons.org/ns#"
   xmlns:dc="http://purl.org/dc/elements/1.1/">
  <defs
     id="defs3985">
    <linearGradient
       inkscape:collect="always"
       id="linearGradient1023">
      <stop
         style="stop-color:#ffffff;stop-opacity:1;"
         offset="0"
         id="stop1019" />
      <stop
         id="stop1027"
         offset="0.04698909"
         style="stop-color:#ffffff;stop-opacity:0.21052632" />
      <stop
         style="stop-color:#ffffff;stop-opacity:0.1008772"
         offset="0.93958205"
         id="stop1029" />
      <stop
         style="stop-color:#ffffff;stop-opacity:0.23529412"
         offset="1"
         id="stop1021" />
    </linearGradient>
    <linearGradient
       id="linearGradient3707-662">
      <stop
         id="stop4098"
         style="stop-color:#6d6f6f;stop-opacity:1"
         offset="0" />
      <stop
         id="stop4100"
         style="stop-color:#cacaca;stop-opacity:1"
         offset="1" />
    </linearGradient>
    <linearGradient
       id="linearGradient3977">
      <stop
         offset="0"
         style="stop-color:#ffffff;stop-opacity:1"
         id="stop3979" />
      <stop
         id="stop3981"
         style="stop-color:#ffffff;stop-opacity:0.235"
         offset="0.03626217" />
      <stop
         offset="0.95056331"
         style="stop-color:#ffffff;stop-opacity:0.15686275;"
         id="stop3983" />
      <stop
         offset="1"
         style="stop-color:#ffffff;stop-opacity:0.39215687;"
         id="stop3985" />
    </linearGradient>
    <linearGradient
       id="linearGradient3671-580">
      <stop
         id="stop4088"
         style="stop-color:#aaadb0;stop-opacity:1"
         offset="0" />
      <stop
         id="stop4090"
         style="stop-color:#8a8a8a;stop-opacity:1"
         offset="0.26238" />
      <stop
         id="stop4092"
         style="stop-color:#616a74;stop-opacity:1"
         offset="0.704952" />
      <stop
         id="stop4094"
         style="stop-color:#2c2e30;stop-opacity:0"
         offset="1" />
    </linearGradient>
    <linearGradient
       y2="0.91790956"
       x2="25"
       y1="47.935162"
       x1="25"
       gradientTransform="matrix(1.314322,0,0,1.0453527,-7.5437308,0.47908034)"
       gradientUnits="userSpaceOnUse"
       id="linearGradient3062-0-8"
       xlink:href="#linearGradient3707-662"
       inkscape:collect="always" />
    <linearGradient
       id="linearGradient5060">
      <stop
         id="stop5062"
         style="stop-color:#000000;stop-opacity:1"
         offset="0" />
      <stop
         id="stop5064"
         style="stop-color:#000000;stop-opacity:0"
         offset="1" />
    </linearGradient>
    <linearGradient
       id="linearGradient5048">
      <stop
         id="stop5050"
         style="stop-color:#000000;stop-opacity:0"
         offset="0" />
      <stop
         id="stop5056"
         style="stop-color:#000000;stop-opacity:1"
         offset="0.5" />
      <stop
         id="stop5052"
         style="stop-color:#000000;stop-opacity:0"
         offset="1" />
    </linearGradient>
    <linearGradient
       id="linearGradient3824">
      <stop
         offset="0"
         style="stop-color:#ffffff;stop-opacity:1"
         id="stop3826" />
      <stop
         offset="1"
         style="stop-color:#ffffff;stop-opacity:0"
         id="stop3828" />
    </linearGradient>
    <linearGradient
       id="linearGradient3924-4">
      <stop
         offset="0"
         style="stop-color:#ffffff;stop-opacity:1"
         id="stop3926-7" />
      <stop
         offset="1"
         style="stop-color:#ffffff;stop-opacity:0"
         id="stop3928-6" />
    </linearGradient>
    <linearGradient
       id="linearGradient8265-821-176-38-919-66-249-48-321">
      <stop
         id="stop5601"
         style="stop-color:#ffffff;stop-opacity:1"
         offset="0" />
      <stop
         id="stop5603"
         style="stop-color:#ffffff;stop-opacity:0"
         offset="1" />
    </linearGradient>
    <linearGradient
       y2="24.627615"
       x2="20.054544"
       y1="15.298182"
       x1="16.626165"
       gradientTransform="matrix(0.95782309,0,0,1.502066,1.012244,-6.9923035)"
       gradientUnits="userSpaceOnUse"
       id="linearGradient3050"
       xlink:href="#linearGradient8265-821-176-38-919-66-249-48-321"
       inkscape:collect="always" />
    <filter
       inkscape:collect="always"
       style="color-interpolation-filters:sRGB"
       id="filter997"
       x="-0.021727611"
       y="-0.02172761"
       width="1.0434552"
       height="1.0434552">
      <feBlend
         inkscape:collect="always"
         mode="multiply"
         in2="BackgroundImage"
         id="feBlend999" />
    </filter>
    <linearGradient
       inkscape:collect="always"
       xlink:href="#linearGradient1023"
       id="linearGradient1025"
       x1="2"
       y1="1.9731537"
       x2="2.078125"
       y2="43.921875"
       gradientUnits="userSpaceOnUse" />
    <clipPath
       clipPathUnits="userSpaceOnUse"
       id="clipPath1">
      <path
         d="M0 0 L1949.2019 0 L1949.2019 368.0857 L0 368.0857 L0 0 Z"
         fill-rule="evenodd"
         id="path2914" />
    </clipPath>
    <defs
       id="defs1">
      <clipPath
         clipPathUnits="userSpaceOnUse"
         id="clipPath3148">
        <path
           d="M 0,0 H 1949.2019 V 368.0857 H 0 Z"
           fill-rule="evenodd"
           id="path3146" />
      </clipPath>
    </defs>
  </defs>
  <sodipodi:namedview
     id="base"
     pagecolor="#ffffff"
     bordercolor="#666666"
     borderopacity="1.0"
     inkscape:pageopacity="0.0"
     inkscape:pageshadow="2"
     inkscape:zoom="8.189724"
     inkscape:cx="23.749274"
     inkscape:cy="19.353522"
     inkscape:current-layer="layer3"
     showgrid="true"
     inkscape:grid-bbox="true"
     inkscape:document-units="px"
     inkscape:window-width="1920"
     inkscape:window-height="1131"
     inkscape:window-x="3840"
     inkscape:window-y="32"
     inkscape:window-maximized="1"
     inkscape:pagecheckerboard="0" />
  <metadata
     id="metadata3988">
    <rdf:RDF>
      <cc:Work
         rdf:about="">
        <dc:format>image/svg+xml</dc:format>
        <dc:type
           rdf:resource="http://purl.org/dc/dcmitype/StillImage" />
        <dc:title />
      </cc:Work>
    </rdf:RDF>
  </metadata>
  <g
     inkscape:groupmode="layer"
     id="layer3"
     inkscape:label="Body"
     style="display:inline">
    <rect
       style="color:#000000;overflow:visible;fill:#26a269;fill-opacity:1;stroke-width:9.99999;stroke-linecap:round"
       id="rect986"
       width="48"
       height="48"
       x="0"
       y="0" />
    <path
       d="m -6.6969961,40.94689 0.3821151,-0.0028 0.3821552,-0.0032 0.3821553,-0.0032 0.382115,-0.0036 0.3821552,-0.0036 0.3821151,-0.0041 0.3821553,-0.0042 0.382115,-0.0044 0.3821553,-0.0047 0.3821552,-0.005 0.3821151,-0.0054 0.3821552,-0.0058 0.3821552,-0.0062 0.3821151,-0.0067 0.38215531,-0.0072 0.3821151,-0.0077 0.3821552,-0.0084 0.38211506,-0.0092 0.3821552,-0.0099 0.38215522,-0.01077 0.38211511,-0.01177 0.3821552,-0.01297 0.3821151,-0.01436 0.3821553,-0.01621 0.382115,-0.01857 0.3821553,-0.02205 0.3821151,-0.02733 0.3821552,-0.03577 0.3821151,-0.04955 0.3821551,-0.07219 0.3821553,-0.108941 0.3821151,-0.167372 0.3821553,-0.257584 0.382115,-0.391336 0.3821553,-0.580923 0.3821552,-0.834743 0.3821151,-1.152799 0.3821552,-1.521043 0.3821552,-1.910299 0.3821151,-2.279824 0.3821553,-2.586875 0.382115,-2.798632 0.3821552,-2.897126 0.3821549,-2.881199 0.382116,-2.760851 0.382156,-2.551694 0.382114,-2.27122 0.382155,-1.934672 0.382155,-1.5552642 0.382115,-1.143352 0.382155,-0.707513 0.382156,-0.256703 0.382114,0.199792 0.382156,0.651961 0.382116,1.090284 0.382155,1.5058352 0.382114,1.890008 0.382155,2.232439 0.382116,2.520838 0.382154,2.739879 0.382116,2.872072 0.382155,2.901729 0.382156,2.817082 0.382115,2.618492 0.382155,2.321328 0.382115,1.956845 0.382155,1.567389 0.382115,1.194302 0.382155,0.868881 0.382156,0.606978 0.382114,0.409866 0.382156,0.269951 0.382116,0.175136 0.382155,0.113423 0.382154,0.07444 0.382115,0.05042 0.382156,0.03574 0.382155,0.02669 0.382115,0.02101 0.382155,0.01725 0.382116,0.01456 0.382154,0.01252 0.382156,0.01081 0.382115,0.0093 0.382155,0.0076 0.382115,0.0059 0.382156,0.0036 0.382155,8.01e-4 0.382114,-0.0032 0.382156,-0.0096 0.382115,-0.01913 0.382155,-0.03329 0.382115,-0.05415 0.382156,-0.08388 0.382115,-0.124949 0.382155,-0.17958 0.382156,-0.249179 0.382114,-0.333745 0.382155,-0.430959 0.382115,-0.536056 0.382156,-0.641277 0.382115,-0.737328 0.382155,-0.813651 0.382155,-0.860918 0.382116,-0.871803 0.382155,-0.842067 0.382114,-0.770948 0.382156,-0.660486 0.382155,-0.515527 0.382115,-0.342748 0.382155,-0.150885 0.382116,0.04967 0.382154,0.247417 0.382156,0.431439 0.382116,0.592088 0.382154,0.721359 0.382156,0.813652 0.382115,0.86532 0.382155,0.875525 0.382114,0.84687 0.382156,0.784836 0.382156,0.698066 0.382114,0.596531 0.382155,0.490472 0.382116,0.388576 0.382156,0.297124 0.382114,0.219802 0.382156,0.157647 0.382155,0.110021 0.382115,0.07492 0.382155,0.05014 0.382115,0.03309 0.382155,0.02181 0.382115,0.01452 0.382156,0.01 0.382115,0.0071 0.382155,0.0053 0.382114,0.0042 0.382156,0.0036 0.382156,0.0028 0.382114,0.0028 0.382155,0.0025 0.382156,0.0025 0.382116,0.002 0.382154,0.002 0.382116,0.0016 0.382155,0.0016 0.382155,0.0016 0.382115,0.0016 0.382156,0.0012 0.382114,0.0012 0.382155,0.0012 0.382156,0.0012 0.382115,0.0012 0.382154,0.0012 0.382156,8.01e-4 0.382116,8.01e-4 0.382154,8.01e-4 0.382116,8e-4 0.382155,8e-4 0.382155,8e-4 0.382115,8e-4 0.382156,8.01e-4 0.382114,8.01e-4 0.382155,8e-4 0.382116,8e-4 c 21.145004,0.01117 -84.57999,-0.02758 -63.4349981,-0.05123 z"
       fill-rule="evenodd"
       clip-path="none"
       stroke="none"
       id="path2946"
       style="font-style:normal;font-weight:normal;font-size:12px;font-family:Dialog;color-interpolation:sRGB;fill:#ffffff;fill-opacity:0.470646;stroke:#ffffff;stroke-width:2;stroke-linecap:round;stroke-linejoin:round;stroke-miterlimit:10;stroke-dasharray:none;stroke-dashoffset:0;stroke-opacity:1;color-rendering:optimizeSpeed;image-rendering:optimizeSpeed;shape-rendering:auto;text-rendering:optimizeLegibility"
       sodipodi:nodetypes="cccccccccccccccccccccccccccccccccccccccccccccccccccccccccccccccccccccccccccccccccccccccccccccccccccccccccccccccccccccccccccccccccccccccccccccccccccccccccccccccccccccccc" />
    <path
       id="path2948"
       clip-path="url(#clipPath1)"
       style="font-style:normal;font-weight:normal;font-size:12px;font-family:Dialog;color-interpolation:sRGB;stroke:#000000;stroke-width:1;stroke-linecap:square;stroke-linejoin:miter;stroke-miterlimit:10;stroke-dasharray:none;stroke-dashoffset:0;color-rendering:optimizeSpeed;image-rendering:optimizeSpeed;shape-rendering:auto;text-rendering:optimizeLegibility"
       d="m -2240.0938,-583.79688 -0.9511,0.0137 -0.9531,0.043 -0.9512,0.0664 -0.9512,0.084 -0.9531,0.0957 -0.9512,0.10156 -0.9512,0.0996 -0.9531,0.0957 -0.9512,0.0879 -0.9511,0.0742 -0.9512,0.0645 -0.9531,0.0527 -0.9512,0.041 -0.9512,0.0312 -0.9531,0.0254 -0.9512,0.0176 -0.9511,0.0137 -0.9532,0.01 -0.9511,0.008 -0.9512,0.004 -0.9512,0.004 -0.9531,0.004 -0.9512,0.002 h -0.9511 l -0.9532,0.002 h -0.9511 l -0.9512,0.002 h -0.9531 -0.9512 -0.9512 l -0.9512,0.002 h -0.9531 -0.9512 -0.9511 -0.9531 -0.9512 -0.9512 -0.9531 l -0.9512,0.002 h -0.9512 -0.9511 -0.9532 -0.9511 -0.9512 -0.9531 -0.9512 -0.9512 -0.9531 -0.9512 -0.9511 -0.9512 l -0.9531,0.002 h -0.9512 -0.9512 -0.9531 -0.9512 -0.9512 -0.9531 -0.9511 -0.9512 -0.9512 -0.9531 -0.9512 -0.9512 -0.9531 -0.9512 -0.9511 -0.9532 -0.9511 l -0.9512,0.002 h -0.9512 -0.9531 -0.9512 -0.9511 -0.9532 -0.9511 -0.9512 -0.9531 -0.9512 -0.9512 -0.9511 -0.9532 -0.9511 -0.9512 -0.9531 -0.9512 -0.9512 -0.9531 -0.9512 v 0.002 c -90.291,0.29917 34.6218,0.35408 195.2852,0.34375 v -0.49414 l -0.1739,0.002 -0.9531,0.004 -0.9512,0.006 -0.9511,0.004 -0.9531,0.006 -0.9512,0.004 -0.9512,0.004 -0.9512,0.004 -0.9531,0.004 -0.9512,0.004 -0.9511,0.002 -0.9532,0.004 -0.9511,0.002 -0.9512,0.004 -0.9512,0.002 -0.9531,0.004 -0.9512,0.002 -0.9511,0.004 -0.9532,0.002 -0.9511,0.002 -0.9512,0.002 -0.9531,0.002 -0.9512,0.002 -0.9512,0.002 -0.9511,0.002 -0.9532,0.002 -0.9511,0.002 -0.9512,0.002 -0.9531,0.002 -0.9512,0.002 -0.9512,0.002 -0.9531,0.002 h -0.9512 l -0.9512,0.002 h -0.9511 l -0.9532,0.002 h -0.9511 l -0.9512,0.002 h -0.9531 -0.9512 -0.9512 -0.9531 l -0.9512,-0.002 -0.9511,-0.002 -0.9532,-0.004 -0.9511,-0.004 -0.9512,-0.008 -0.9512,-0.008 -0.9531,-0.01 -0.9512,-0.0117 -0.9511,-0.0117 -0.9532,-0.0117 -0.9511,-0.0137 -0.9512,-0.01 -0.9531,-0.0117 -0.9512,-0.006 -0.9512,-0.004 h -0.9512 l -0.9531,0.002 -0.9512,0.006 -0.9511,0.01 -0.9531,0.0117 -0.9512,0.0117 -0.9512,0.0137 -0.9531,0.0137 -0.9512,0.0137 -0.9512,0.0117 -0.9511,0.01 -0.9532,0.008 -0.9511,0.008 -0.9512,0.006 -0.9531,0.006 -0.9512,0.004 -0.9512,0.002 -0.9531,0.002 -0.9512,0.002 -0.9511,0.002 h -0.9512 l -0.9531,0.002 h -0.9512 -0.9512 l -0.9531,0.002 h -0.9512 -0.9511 -0.9532 -0.9511 l -0.9512,0.002 h -0.9512 -0.9531 -0.9512 -0.9512 -0.9531 -0.9512 -0.9511 l -0.9531,-0.002 h -0.9512 l -0.9512,-0.002 -0.9512,-0.004 -0.9531,-0.004 -0.9512,-0.008 -0.9511,-0.01 -0.9532,-0.0176 -0.9511,-0.0215 -0.9512,-0.0312 -0.9531,-0.041 -0.9512,-0.0527 -0.9512,-0.0645 -0.9511,-0.0781 -0.9532,-0.0899 -0.9511,-0.0976 -0.9512,-0.10352 -0.9531,-0.10351 -0.9512,-0.0977 -0.9512,-0.084 -0.9531,-0.0645 -0.9512,-0.043 z m 279.7012,1.00782 v 0.375 c 250.491,-0.093 504.185,-0.29813 378.916,-0.32422 h -0.9511 -0.9532 -0.9511 -0.9512 -0.9531 -0.9512 -0.9512 -0.9531 -0.9512 -0.9511 -0.9532 -0.9511 -0.9512 -0.9512 -0.9531 -0.9512 -0.9511 -0.9532 -0.9511 -0.9512 -0.9531 -0.9512 -0.9512 -0.9512 -0.9531 -0.9512 -0.9511 -0.9532 -0.9511 -0.9512 -0.9531 -0.9512 -0.9512 -0.9511 -0.9532 -0.9511 -0.9512 -0.9531 -0.9512 -0.9512 -0.9531 -0.9512 -0.9511 -0.9512 -0.9531 -0.9512 -0.9512 -0.9531 -0.9512 -0.9512 -0.9531 -0.9512 -0.9511 -0.9512 -0.9531 -0.9512 -0.9512 -0.9531 -0.9512 -0.9511 -0.9532 -0.9511 -0.9512 -0.9512 -0.9531 -0.9512 -0.9511 -0.9532 -0.9511 -0.9512 -0.9531 -0.9512 -0.9512 -0.9511 -0.9532 -0.9511 -0.9512 -0.9531 -0.9512 -0.9512 -0.9531 -0.9512 -0.9512 -0.9511 -0.9532 -0.9511 -0.9512 -0.9531 -0.9512 -0.9512 -0.9531 -0.9512 -0.9511 -0.9512 -0.9531 l -0.9512,-0.002 h -0.9512 -0.9531 -0.9512 -0.9511 -0.9532 -0.9511 -0.9512 -0.9512 -0.9531 -0.9512 -0.9512 -0.9531 -0.9512 -0.9511 -0.9531 -0.9512 -0.9512 -0.9512 -0.9531 -0.9512 -0.9511 -0.9532 -0.9511 -0.9512 -0.9531 -0.9512 -0.9512 -0.9511 -0.9532 -0.9511 -0.9512 -0.9531 -0.9512 -0.9512 -0.9531 -0.9512 -0.9511 -0.9532 -0.9511 -0.9512 -0.9512 -0.9531 -0.9512 -0.9512 -0.9531 -0.9512 -0.9511 -0.9531 -0.9512 -0.9512 -0.9512 -0.9531 -0.9512 -0.9511 -0.9532 -0.9511 -0.9512 -0.9512 -0.9531 -0.9512 -0.9511 -0.9532 -0.9511 -0.9512 -0.9531 -0.9512 -0.9512 -0.9512 -0.9531 -0.9512 -0.9511 -0.9531 -0.9512 -0.9512 -0.9531 -0.9512 -0.9512 -0.9511 -0.9532 -0.9511 -0.9512 -0.9531 -0.9512 -0.9512 -0.9531 -0.9512 l -0.9511,-0.002 h -0.9532 -0.9511 -0.9512 -0.9512 -0.9531 -0.9512 -0.9511 -0.9532 -0.9511 -0.9512 -0.9531 -0.9512 -0.9512 -0.9512 -0.9531 -0.9512 -0.9511 -0.9531 -0.9512 -0.9512 -0.9531 -0.9512 -0.9512 -0.9511 -0.9532 -0.9511 -0.9512 -0.9531 -0.9512 -0.9512 -0.9531 -0.9512 -0.9511 -0.9512 -0.9531 -0.9512 -0.9512 -0.9531 -0.9512 -0.9512 -0.9531 -0.9511 -0.9512 -0.9512 -0.9531 -0.9512 l -0.9512,-0.002 h -0.9531 -0.9512 -0.9511 -0.9532 -0.9511 -0.9512 -0.9512 -0.9531 -0.9512 -0.9511 -0.9532 -0.9511 -0.9512 -0.9531 -0.9512 -0.9512 -0.9511 -0.9532 -0.9511 -0.9512 -0.9531 -0.9512 -0.9512 -0.9531 -0.9512 -0.9512 -0.9511 -0.9531 -0.9512 l -0.9512,-0.002 h -0.9531 -0.9512 -0.9512 -0.9531 -0.9512 -0.9511 -0.9512 -0.9531 -0.9512 -0.9512 -0.9531 -0.9512 -0.9511 -0.9532 -0.9511 -0.9512 -0.9512 -0.9531 -0.9512 -0.9512 -0.9531 -0.9511 l -0.9512,-0.002 h -0.9531 -0.9512 -0.9512 -0.9512 -0.9531 -0.9512 -0.9511 -0.9532 -0.9511 -0.9512 -0.9531 -0.9512 -0.9512 -0.9511 -0.9532 l -0.9511,-0.002 h -0.9512 -0.9531 -0.9512 -0.9512 -0.9531 -0.9512 -0.9511 -0.9512 -0.9531 -0.9512 -0.9512 -0.9531 -0.9512 l -0.9512,-0.002 h -0.9531 -0.9511 -0.9512 -0.9512 -0.9531 -0.9512 -0.9512 -0.9531 -0.9512 -0.9511 l -0.9532,-0.002 h -0.9511 -0.9512 -0.9512 -0.9531 -0.9512 -0.9511 -0.9532 -0.9511 -0.9512 l -0.9531,-0.002 h -0.9512 -0.9512 -0.9512 -0.9531 -0.9511 -0.9512 -0.9531 l -0.9512,-0.002 h -0.9512 -0.9531 -0.9512 -0.9512 -0.9511 -0.9532 l -0.9511,-0.002 h -0.9512 -0.9531 -0.9512 -0.9512 -0.9531 l -0.9512,-0.002 h -0.9511 -0.9532 -0.9511 -0.9512 l -0.9512,-0.002 h -0.9531 -0.9512 -0.9511 -0.9532 l -0.9511,-0.002 h -0.9512 -0.9531 -0.9512 l -0.9512,-0.002 h -0.9512 -0.9531 -0.9511 l -0.9512,-0.002 h -0.9531 -0.9512 l -0.9512,-0.002 h -0.9512 -0.9531 -0.9512 l -0.9511,-0.002 h -0.9532 -0.9511 l -0.9512,-0.002 h -0.9531 l -0.9512,-0.002 h -0.9512 -0.9511 l -0.9532,-0.002 h -0.9511 l -0.9512,-0.002 h -0.9531 l -0.9512,-0.002 h -0.9512 l -0.9531,-0.002 h -0.9512 l -0.9511,-0.002 h -0.9532 l -0.9511,-0.002 z" />
    <g
       font-size="14px"
       transform="translate(-2346.732,-1034.3092)"
       fill-opacity="0.251"
       fill="#000000"
       text-rendering="optimizeLegibility"
       image-rendering="optimizeSpeed"
       color-rendering="optimizeSpeed"
       stroke="#000000"
       color-interpolation="sRGB"
       stroke-opacity="0.251"
       id="g2958"
       style="font-style:normal;font-weight:normal;font-family:Dialog;stroke-width:1;stroke-linecap:square;stroke-linejoin:miter;stroke-miterlimit:10;stroke-dasharray:none;stroke-dashoffset:0;shape-rendering:auto">
      <path
         fill="none"
         d="m 558.7307,280.109 -1,2"
         fill-rule="evenodd"
         clip-path="url(#clipPath1)"
         id="path2956" />
    </g>
  </g>
  <g
     id="layer1"
     inkscape:label="Background"
     inkscape:groupmode="layer"
     style="display:inline;filter:url(#filter997)"
     sodipodi:insensitive="true">
    <path
       inkscape:connector-curvature="0"
       style="color:#000000;display:inline;overflow:visible;visibility:visible;fill:none;fill-opacity:1;fill-rule:nonzero;stroke:url(#linearGradient3062-0-8);stroke-width:1.999;stroke-linecap:butt;stroke-linejoin:miter;stroke-miterlimit:4;stroke-dasharray:none;stroke-dashoffset:0;stroke-opacity:1;marker:none;enable-background:accumulate"
       id="path4160"
       d="m 0.99931124,0.99931077 c 10.54124776,0 46.00132076,0.002928 46.00132076,0.002928 l 5.5e-5,45.9984492 c 0,0 -30.667585,0 -46.00137576,0 0,-15.333791 0,-30.667585 0,-46.00137723 z"
       sodipodi:nodetypes="ccccc" />
  </g>
  <g
     inkscape:groupmode="layer"
     id="layer4"
     inkscape:label="Border"
     style="display:inline"
     sodipodi:insensitive="true">
    <rect
       style="opacity:1;fill:none;fill-opacity:0;fill-rule:nonzero;stroke:url(#linearGradient1025);stroke-width:2;stroke-linejoin:miter;stroke-miterlimit:4;stroke-dasharray:none;stroke-opacity:1;paint-order:normal"
       id="rect1001"
       width="42"
       height="42"
       x="3"
       y="3.0000002" />
  </g>
  <g
     inkscape:groupmode="layer"
     id="layer2"
     inkscape:label="Gloss"
     style="display:inline"
     sodipodi:insensitive="true">
    <path
       inkscape:connector-curvature="0"
       style="opacity:0.2;fill:url(#linearGradient3050);fill-opacity:1;fill-rule:evenodd;stroke:none;stroke-width:1.1811"
       id="path3879"
       d="M 2,1.9731537 V 29.291979 c 0.00265,0.20218 0.059191,0.393375 0.1558843,0.527175 0.096694,0.133798 0.2247054,0.197965 0.3529576,0.176918 L 45.610883,19.293849 C 45.832601,19.239015 45.996899,18.941716 46,18.589756 V 1.9731537 Z"
       sodipodi:nodetypes="ccsccccc" />
  </g>
</svg>
