<?xml version="1.0" encoding="UTF-8" standalone="no"?>
<svg
   width="24"
   height="24"
   fill="none"
   viewBox="0 0 24 24"
   version="1.1"
   id="svg1"
   sodipodi:docname="select-lasso.svg"
   inkscape:version="1.4.3 (0d15f75042, 2025-12-25)"
   inkscape:export-filename="polygon.png"
   inkscape:export-xdpi="64"
   inkscape:export-ydpi="64"
   xmlns:inkscape="http://www.inkscape.org/namespaces/inkscape"
   xmlns:sodipodi="http://sodipodi.sourceforge.net/DTD/sodipodi-0.dtd"
   xmlns="http://www.w3.org/2000/svg"
   xmlns:svg="http://www.w3.org/2000/svg">
  <defs
     id="defs1" />
  <sodipodi:namedview
     id="namedview1"
     pagecolor="#ffffff"
     bordercolor="#000000"
     borderopacity="0.25"
     inkscape:showpageshadow="2"
     inkscape:pageopacity="0.0"
     inkscape:pagecheckerboard="0"
     inkscape:deskcolor="#d1d1d1"
     inkscape:zoom="14.934095"
     inkscape:cx="17.075022"
     inkscape:cy="13.157811"
     inkscape:window-width="1920"
     inkscape:window-height="1011"
     inkscape:window-x="0"
     inkscape:window-y="0"
     inkscape:window-maximized="1"
     inkscape:current-layer="svg1" />
  <path
     d="m 9.7030013,1.7647453 a 10.026,10.026 0 0 1 2.2969997,-0.265 c 0.79,0 1.559,0.092 2.297,0.265 a 1.0000716,1.0000716 0 0 1 -0.458,1.947 8.025,8.025 0 0 0 -1.839,-0.212 c -0.634,0 -1.25,0.074 -1.84,0.212 a 1,1 0 1 1 -0.4569997,-1.947 z m 6.1799997,1.552 a 1,1 0 0 1 1.376,-0.324 10.047,10.047 0 0 1 3.248,3.248 1,1 0 1 1 -1.7,1.053 8.046,8.046 0 0 0 -2.6,-2.6 1,1 0 0 1 -0.325,-1.377 z m -7.7659997,0 a 1,1 0 0 1 -0.323,1.376 8.047,8.047 0 0 0 -2.6,2.6 1,1 0 1 1 -1.7,-1.052 10.047,10.047 0 0 1 3.246,-3.248 1,1 0 0 1 1.376,0.324 z m -4.649,5.141 a 1,1 0 0 1 0.744,1.203 8.025,8.025 0 0 0 -0.212,1.8390007 c 0,0.634 0.074,1.25 0.212,1.84 a 1,1 0 0 1 -1.947,0.457 10.026,10.026 0 0 1 -0.265,-2.297 c 0,-0.79 0.092,-1.5590007 0.265,-2.2970007 a 1,1 0 0 1 1.203,-0.745 z m 17.0639997,0 a 1,1 0 0 1 1.203,0.745 c 0.173,0.739 0.265,1.5080007 0.265,2.2970007 0,0.79 -0.092,1.559 -0.265,2.297 a 1.0000716,1.0000716 0 0 1 -1.947,-0.458 c 0.138,-0.59 0.212,-1.205 0.212,-1.839 0,-0.634 -0.074,-1.250001 -0.212,-1.8400007 a 1,1 0 0 1 0.744,-1.202 z M 3.8170013,15.382746 a 1,1 0 0 1 1.376,0.323 8.046,8.046 0 0 0 2.6,2.6 1,1 0 0 1 -1.052,1.7 10.046,10.046 0 0 1 -3.248,-3.247 1,1 0 0 1 0.324,-1.377 z m 16.8049997,1.607 a 1.0001066,1.0001066 0 0 0 -1.742,-0.983 v 0.001 l -0.001,10e-4 -0.013,0.021 a 6.74,6.74 0 0 1 -0.338,0.495 8.41,8.41 0 0 1 -0.74,0.857 c -1.19,-1.013 -2.793,-1.882 -4.788,-1.882 -2.267,0 -3.9999997,1.2 -3.9999997,3 0,1.8 1.7329997,3 3.9999997,3 1.91,0 3.459,-0.634 4.64,-1.415 a 10.979,10.979 0 0 1 1.118,1.67 l 0.07,0.136 0.015,0.031 0.003,0.005 a 1.0000112,1.0000112 0 0 0 1.809,-0.853 c -0.117,-0.231 0,-0.001 0,-0.001 l -0.002,-0.002 -0.002,-0.006 -0.008,-0.016 a 2.82,2.82 0 0 0 -0.015,-0.03 l -0.011,-0.022 a 11.486,11.486 0 0 0 -0.452,-0.803 12.974,12.974 0 0 0 -0.981,-1.379 c 0.4,-0.401 0.714,-0.783 0.944,-1.09 a 8.788,8.788 0 0 0 0.453,-0.666 c 0.012,-0.018 0.02,-0.034 0.027,-0.045 l 0.009,-0.015 0.003,-0.005 v -0.002 z m -7.622,0.51 c 1.226,0 2.286,0.476 3.169,1.145 a 6.268,6.268 0 0 1 -3.17,0.855 c -1.731,0 -1.999,-0.8 -1.999,-1 0,-0.2 0.267,-1 2,-1 z"
     fill="#212121"
     id="path1"
     style="display:inline;fill:#404040;fill-opacity:1"
     inkscape:label="lasso"
     sodipodi:insensitive="true" />
</svg>
