<?xml version="1.0" encoding="UTF-8" standalone="no"?>
<svg
   xmlns:dc="http://purl.org/dc/elements/1.1/"
   xmlns:cc="http://creativecommons.org/ns#"
   xmlns:rdf="http://www.w3.org/1999/02/22-rdf-syntax-ns#"
   xmlns:svg="http://www.w3.org/2000/svg"
   xmlns="http://www.w3.org/2000/svg"
   xmlns:sodipodi="http://sodipodi.sourceforge.net/DTD/sodipodi-0.dtd"
   xmlns:inkscape="http://www.inkscape.org/namespaces/inkscape"
   height="64"
   id="Layer_1"
   version="1.1"
   viewBox="0 0 64 64"
   width="64"
   xml:space="preserve"
   sodipodi:docname="menu-view.svg"
   inkscape:version="0.92.2 (5c3e80d, 2017-08-06)"
   inkscape:export-filename="/home/nathaniel/Projects/SS/Git/Peakaboo/SwingUI/src/main/resources/peakaboo/ui/swing/icons/48/menu-view.png"
   inkscape:export-xdpi="72"
   inkscape:export-ydpi="72"><metadata
     id="metadata9"><rdf:RDF><cc:Work
         rdf:about=""><dc:format>image/svg+xml</dc:format><dc:type
           rdf:resource="http://purl.org/dc/dcmitype/StillImage" /><dc:title></dc:title></cc:Work></rdf:RDF></metadata><defs
     id="defs7" /><sodipodi:namedview
     pagecolor="#ffffff"
     bordercolor="#666666"
     borderopacity="1"
     objecttolerance="10"
     gridtolerance="10"
     guidetolerance="10"
     inkscape:pageopacity="0"
     inkscape:pageshadow="2"
     inkscape:window-width="1920"
     inkscape:window-height="1016"
     id="namedview5"
     showgrid="false"
     fit-margin-top="0"
     fit-margin-left="0"
     fit-margin-right="0"
     fit-margin-bottom="0"
     inkscape:zoom="5.2149125"
     inkscape:cx="36.811145"
     inkscape:cy="33.92924"
     inkscape:window-x="0"
     inkscape:window-y="27"
     inkscape:window-maximized="1"
     inkscape:current-layer="g823" /><g
     id="g823"
     transform="translate(0,46)"><g
       id="g846"
       transform="matrix(3.5,0,0,3.5,4,-49)"><path
         style="fill:#404040;fill-opacity:1"
         d="m 8,4 c -4.102,0 -8,4.648 -8,6 0,1.352 3.898,6 8,6 4.102,0 8,-4.648 8,-6 C 16,8.648 12.102,4 8,4 Z M 8,14 C 5.791,14 4,12.209 4,10 4,7.791 5.791,6 8,6 c 2.209,0 4,1.791 4,4 0,2.209 -1.791,4 -4,4 z"
         id="path2"
         inkscape:connector-curvature="0"
         sodipodi:nodetypes="ssssssssss" /><circle
         style="fill:#404040;fill-opacity:1;stroke:none;stroke-width:1.06140351"
         id="path819"
         cx="7.9999995"
         cy="10"
         r="2.0508475" /></g></g></svg>