<?xml version="1.0" encoding="UTF-8" standalone="no"?>
<!-- Created with Inkscape (http://www.inkscape.org/) -->

<svg
   xmlns:dc="http://purl.org/dc/elements/1.1/"
   xmlns:cc="http://creativecommons.org/ns#"
   xmlns:rdf="http://www.w3.org/1999/02/22-rdf-syntax-ns#"
   xmlns:svg="http://www.w3.org/2000/svg"
   xmlns="http://www.w3.org/2000/svg"
   xmlns:sodipodi="http://sodipodi.sourceforge.net/DTD/sodipodi-0.dtd"
   xmlns:inkscape="http://www.inkscape.org/namespaces/inkscape"
   width="136.77234"
   height="22.799999"
   id="svg2"
   version="1.1"
   inkscape:version="0.91 r13725"
   sodipodi:docname="peakaboo.svg">
  <defs
     id="defs4" />
  <sodipodi:namedview
     id="base"
     pagecolor="#ffffff"
     bordercolor="#666666"
     borderopacity="1.0"
     inkscape:pageopacity="0.0"
     inkscape:pageshadow="2"
     inkscape:zoom="11.2"
     inkscape:cx="86.238965"
     inkscape:cy="1.9817691"
     inkscape:document-units="px"
     inkscape:current-layer="layer2"
     showgrid="false"
     fit-margin-top="0"
     fit-margin-left="0"
     fit-margin-right="0"
     fit-margin-bottom="0"
     inkscape:window-width="1920"
     inkscape:window-height="1016"
     inkscape:window-x="0"
     inkscape:window-y="27"
     inkscape:window-maximized="1" />
  <metadata
     id="metadata7">
    <rdf:RDF>
      <cc:Work
         rdf:about="">
        <dc:format>image/svg+xml</dc:format>
        <dc:type
           rdf:resource="http://purl.org/dc/dcmitype/StillImage" />
        <dc:title />
      </cc:Work>
    </rdf:RDF>
  </metadata>
  <g
     inkscape:label="Text"
     inkscape:groupmode="layer"
     id="layer1"
     transform="translate(930.63087,-378.43362)"
     style="display:none">
    <text
       xml:space="preserve"
       style="font-style:normal;font-variant:normal;font-weight:bold;font-stretch:normal;font-size:30px;line-height:125%;font-family:'Nimbus Sans L';-inkscape-font-specification:'Springsteel Bold';text-align:center;letter-spacing:0px;word-spacing:0px;text-anchor:middle;fill:#000000;fill-opacity:1;stroke:none"
       x="-862.69867"
       y="400.93362"
       id="text2985"
       sodipodi:linespacing="125%"><tspan
         sodipodi:role="line"
         id="tspan2987"
         x="-862.69867"
         y="400.93362"
         style="font-style:normal;font-variant:normal;font-weight:300;font-stretch:normal;font-family:Springsteel;-inkscape-font-specification:'Springsteel Light'">Peakaboo 5</tspan></text>
  </g>
  <g
     inkscape:groupmode="layer"
     id="layer2"
     inkscape:label="Paths"
     style="display:inline">
    <g
       transform="translate(930.63087,-378.43362)"
       style="font-style:normal;font-variant:normal;font-weight:bold;font-stretch:normal;font-size:30px;line-height:125%;font-family:'Nimbus Sans L';-inkscape-font-specification:'Springsteel Bold';text-align:center;letter-spacing:0px;word-spacing:0px;text-anchor:middle;display:inline;fill:#000000;fill-opacity:1;stroke:none"
       id="text4146">
      <path
         d="m -923.22086,379.63362 c -3.6,0 -6.6,0.3 -6.6,0.3 0,0 -0.3,6 -0.3,10.5 0,4.5 0.3,10.5 0.3,10.5 l 1.35,0 c 0,0 -0.12,-4.83 -0.15,-9.15 l 5.4,0 c 4.5,0 6.6,-2.4 6.6,-6.15 0,-3.75 -2.1,-6 -6.6,-6 z m 0,1.2 c 3.3,0 5.1,1.65 5.1,4.8 0,3.15 -1.8,4.95 -5.1,4.95 l -5.4,0 0,-9.75 5.4,0 z"
         style="font-style:normal;font-variant:normal;font-weight:300;font-stretch:normal;font-family:Springsteel;-inkscape-font-specification:'Springsteel Light'"
         id="path4153" />
      <path
         d="m -908.81476,385.63362 c -5.55,0 -6.15,4.2 -6.15,7.8 0,3 0.6,7.8 6.15,7.8 2.85,0 4.65,-0.75 4.65,-0.75 l 0,-1.05 c 0,0 -2.1,0.6 -4.65,0.6 -4.05,0 -4.65,-3.3 -4.65,-6 0,0 3.24,0.3 4.65,0.3 4.95,0 5.55,-2.55 5.55,-4.05 0,-1.5 -0.6,-4.65 -5.55,-4.65 z m 0,1.2 c 3.45,0 4.05,2.25 4.05,3.45 0,1.2 -0.6,2.85 -4.05,2.85 l -4.65,0 c 0,-3 0.45,-6.3 4.65,-6.3 z"
         style="font-style:normal;font-variant:normal;font-weight:300;font-stretch:normal;font-family:Springsteel;-inkscape-font-specification:'Springsteel Light'"
         id="path4155" />
      <path
         d="m -900.26804,386.23362 0,1.05 c 0,0 2.1,-0.45 4.65,-0.45 3.15,0 4.05,1.8 4.05,6 0,0 -2.4,-0.3 -4.05,-0.3 -5.25,0 -5.85,2.94 -5.85,4.35 0,1.29 0.6,4.35 5.85,4.35 3.39,0 5.25,-0.3 5.25,-0.3 0,0 0.3,-4.29 0.3,-7.5 0,-3.9 -0.33,-7.8 -5.55,-7.8 -2.55,0 -4.65,0.6 -4.65,0.6 z m 8.7,13.8 -4.05,0 c -3.75,0 -4.35,-1.62 -4.35,-3.15 0,-1.5 0.6,-3.15 4.35,-3.15 l 4.05,0 0,6.3 z"
         style="font-style:normal;font-variant:normal;font-weight:300;font-stretch:normal;font-family:Springsteel;-inkscape-font-specification:'Springsteel Light'"
         id="path4157" />
      <path
         d="m -885.12133,400.93362 0,-10.5 c 0,-4.5 0.15,-12 0.15,-12 l -1.35,0 c 0,0 -0.3,7.5 -0.3,12 0,4.5 0.3,10.5 0.3,10.5 l 1.2,0 z m 0,-7.5 3.9,3.6 c 1.95,1.8 3.9,3.9 3.9,3.9 l 1.8,0 c 0,0 -3.24,-3.3 -4.8,-4.8 -0.6,-0.6 -3,-2.7 -3,-2.7 0,0 2.4,-2.1 3,-2.7 1.56,-1.5 4.8,-4.8 4.8,-4.8 l -1.8,0 c 0,0 -1.95,2.1 -3.9,3.9 l -3.9,3.6 z"
         style="font-style:normal;font-variant:normal;font-weight:300;font-stretch:normal;font-family:Springsteel;-inkscape-font-specification:'Springsteel Light'"
         id="path4159" />
      <path
         d="m -873.25633,386.23362 0,1.05 c 0,0 2.1,-0.45 4.65,-0.45 3.15,0 4.05,1.8 4.05,6 0,0 -2.4,-0.3 -4.05,-0.3 -5.25,0 -5.85,2.94 -5.85,4.35 0,1.29 0.6,4.35 5.85,4.35 3.39,0 5.25,-0.3 5.25,-0.3 0,0 0.3,-4.29 0.3,-7.5 0,-3.9 -0.33,-7.8 -5.55,-7.8 -2.55,0 -4.65,0.6 -4.65,0.6 z m 8.7,13.8 -4.05,0 c -3.75,0 -4.35,-1.62 -4.35,-3.15 0,-1.5 0.6,-3.15 4.35,-3.15 l 4.05,0 0,6.3 z"
         style="font-style:normal;font-variant:normal;font-weight:300;font-stretch:normal;font-family:Springsteel;-inkscape-font-specification:'Springsteel Light'"
         id="path4161" />
      <path
         d="m -854.05961,385.63362 c -1.86,0 -3.18,0.3 -4.05,0.57 0,-3.87 0.15,-7.77 0.15,-7.77 l -1.35,0 c 0,0 -0.3,6.9 -0.3,11.7 0,4.8 0.3,10.8 0.3,10.8 0,0 2.4,0.3 5.25,0.3 5.55,0 6.15,-4.8 6.15,-7.8 0,-3 -0.6,-7.8 -6.15,-7.8 z m -4.05,1.5 c 0.93,-0.15 2.25,-0.3 4.05,-0.3 4.05,0 4.65,3.15 4.65,6.6 0,3.45 -0.6,6.6 -4.65,6.6 l -4.05,0 0,-12.9 z"
         style="font-style:normal;font-variant:normal;font-weight:300;font-stretch:normal;font-family:Springsteel;-inkscape-font-specification:'Springsteel Light'"
         id="path4163" />
      <path
         d="m -839.35258,386.83362 c 4.05,0 4.65,3.15 4.65,6.6 0,3.45 -0.6,6.6 -4.65,6.6 -4.05,0 -4.65,-3.15 -4.65,-6.6 0,-3.45 0.6,-6.6 4.65,-6.6 z m 0,-1.2 c -5.55,0 -6.15,4.8 -6.15,7.8 0,3 0.6,7.8 6.15,7.8 5.55,0 6.15,-4.8 6.15,-7.8 0,-3 -0.6,-7.8 -6.15,-7.8 z"
         style="font-style:normal;font-variant:normal;font-weight:300;font-stretch:normal;font-family:Springsteel;-inkscape-font-specification:'Springsteel Light'"
         id="path4165" />
      <path
         d="m -824.64554,386.83362 c 4.05,0 4.65,3.15 4.65,6.6 0,3.45 -0.6,6.6 -4.65,6.6 -4.05,0 -4.65,-3.15 -4.65,-6.6 0,-3.45 0.6,-6.6 4.65,-6.6 z m 0,-1.2 c -5.55,0 -6.15,4.8 -6.15,7.8 0,3 0.6,7.8 6.15,7.8 5.55,0 6.15,-4.8 6.15,-7.8 0,-3 -0.6,-7.8 -6.15,-7.8 z"
         style="font-style:normal;font-variant:normal;font-weight:300;font-stretch:normal;font-family:Springsteel;-inkscape-font-specification:'Springsteel Light'"
         id="path4167" />
      <path
         d="m -807.56851,379.93362 c 0,0 -0.3,6 -0.3,10.65 l 6.45,0 c 4.26,0 5.55,2.01 5.55,4.5 0,2.16 -0.54,4.95 -5.85,4.95 -3.75,0 -6.15,-1.5 -6.15,-1.5 l 0,1.2 c 0,0 2.4,1.5 6.15,1.5 5.85,0 7.35,-3.21 7.35,-6.15 0,-3.27 -2.01,-5.7 -7.05,-5.7 -2.85,0 -4.95,0.15 -4.95,0.15 l 0,-8.7 4.65,0 c 3.24,0 5.85,0.15 5.85,0.15 l 0,-1.05 c 0,0 -2.64,-0.3 -5.85,-0.3 -3.24,0 -5.85,0.3 -5.85,0.3 z"
         style="font-style:normal;font-variant:normal;font-weight:300;font-stretch:normal;font-family:Springsteel;-inkscape-font-specification:'Springsteel Light'"
         id="path4169" />
    </g>
  </g>
</svg>
