<?xml version="1.0" encoding="UTF-8" standalone="no"?>
<!-- Created with Inkscape (http://www.inkscape.org/) -->

<svg
   xmlns:dc="http://purl.org/dc/elements/1.1/"
   xmlns:cc="http://creativecommons.org/ns#"
   xmlns:rdf="http://www.w3.org/1999/02/22-rdf-syntax-ns#"
   xmlns:svg="http://www.w3.org/2000/svg"
   xmlns="http://www.w3.org/2000/svg"
   xmlns:xlink="http://www.w3.org/1999/xlink"
   xmlns:sodipodi="http://sodipodi.sourceforge.net/DTD/sodipodi-0.dtd"
   xmlns:inkscape="http://www.inkscape.org/namespaces/inkscape"
   width="512"
   height="512"
   id="svg2"
   sodipodi:version="0.32"
   inkscape:version="0.47 r22583"
   version="1.0"
   sodipodi:docname="newlogo.svg"
   inkscape:output_extension="org.inkscape.output.svg.inkscape"
   inkscape:export-filename="/home/nathaniel/Desktop/icons/banner.png"
   inkscape:export-xdpi="113.67728"
   inkscape:export-ydpi="113.67728">
  <defs
     id="defs4">
    <inkscape:perspective
       sodipodi:type="inkscape:persp3d"
       inkscape:vp_x="0 : 256 : 1"
       inkscape:vp_y="0 : 1000 : 0"
       inkscape:vp_z="512 : 256 : 1"
       inkscape:persp3d-origin="256 : 170.66667 : 1"
       id="perspective70" />
    <linearGradient
       id="linearGradient4006">
      <stop
         style="stop-color:#610303;stop-opacity:1;"
         offset="0"
         id="stop4008" />
      <stop
         style="stop-color:#ae0606;stop-opacity:1;"
         offset="1"
         id="stop4010" />
    </linearGradient>
    <linearGradient
       id="linearGradient3994">
      <stop
         id="stop3996"
         style="stop-color:#e98484;stop-opacity:1;"
         offset="0" />
      <stop
         id="stop3998"
         style="stop-color:#c42929;stop-opacity:1;"
         offset="0.25" />
      <stop
         id="stop4000"
         style="stop-color:#860404;stop-opacity:1;"
         offset="0.64999998" />
      <stop
         id="stop4002"
         style="stop-color:#4e0202;stop-opacity:1;"
         offset="1" />
    </linearGradient>
    <linearGradient
       id="linearGradient3878">
      <stop
         id="stop3880"
         offset="0"
         style="stop-color:#ffffff;stop-opacity:0;" />
      <stop
         style="stop-color:#ffffff;stop-opacity:0;"
         offset="0.1"
         id="stop3886" />
      <stop
         id="stop3882"
         offset="1"
         style="stop-color:#ffffff;stop-opacity:1;" />
    </linearGradient>
    <linearGradient
       id="linearGradient3849">
      <stop
         id="stop3851"
         offset="0"
         style="stop-color:#316103;stop-opacity:1;" />
      <stop
         id="stop3853"
         offset="1"
         style="stop-color:#56ae06;stop-opacity:1;" />
    </linearGradient>
    <linearGradient
       id="linearGradient3463">
      <stop
         style="stop-color:#bebebe;stop-opacity:1;"
         offset="0"
         id="stop3465" />
      <stop
         id="stop3197"
         offset="0.89999998"
         style="stop-color:#7b7b7b;stop-opacity:1;" />
      <stop
         style="stop-color:#7b7b7b;stop-opacity:1;"
         offset="1"
         id="stop3467" />
    </linearGradient>
    <linearGradient
       inkscape:collect="always"
       xlink:href="#linearGradient3463"
       id="linearGradient3188"
       gradientUnits="userSpaceOnUse"
       x1="69.626221"
       y1="471.97302"
       x2="69.626221"
       y2="443.56918"
       gradientTransform="matrix(1.0416848,0,0,1.0525207,-6.2233339,-25.284917)" />
    <filter
       inkscape:collect="always"
       id="filter3622"
       x="-0.12914026"
       width="1.2582805"
       y="-1.6954481"
       height="4.3908963">
      <feGaussianBlur
         inkscape:collect="always"
         stdDeviation="25.762327"
         id="feGaussianBlur3624" />
    </filter>
    <filter
       inkscape:collect="always"
       id="filter3675">
      <feGaussianBlur
         inkscape:collect="always"
         stdDeviation="4.7442668"
         id="feGaussianBlur3677" />
    </filter>
    <filter
       inkscape:collect="always"
       id="filter3683"
       x="-0.028051463"
       width="1.0561029"
       y="-0.1661709"
       height="1.3323418">
      <feGaussianBlur
         inkscape:collect="always"
         stdDeviation="9.4885335"
         id="feGaussianBlur3685" />
    </filter>
    <filter
       inkscape:collect="always"
       id="filter3687"
       x="-0.12879707"
       width="1.2575941"
       y="-1.6909425"
       height="4.381885">
      <feGaussianBlur
         inkscape:collect="always"
         stdDeviation="25.693864"
         id="feGaussianBlur3689" />
    </filter>
    <linearGradient
       id="linearGradient3242-52-665">
      <stop
         offset="0"
         style="stop-color:#b6e984;stop-opacity:1;"
         id="stop2903" />
      <stop
         offset="0.25"
         style="stop-color:#73c429;stop-opacity:1;"
         id="stop2905" />
      <stop
         offset="0.64999998"
         style="stop-color:#438604;stop-opacity:1;"
         id="stop2907" />
      <stop
         offset="1"
         style="stop-color:#274e02;stop-opacity:1;"
         id="stop2909" />
    </linearGradient>
    <linearGradient
       inkscape:collect="always"
       xlink:href="#linearGradient3849"
       id="linearGradient3912"
       gradientUnits="userSpaceOnUse"
       gradientTransform="matrix(0.9437344,0,0,1.1271501,14.403992,-51.860609)"
       x1="65.752502"
       y1="435.4863"
       x2="65.752502"
       y2="82.026207" />
    <linearGradient
       inkscape:collect="always"
       xlink:href="#linearGradient3878"
       id="linearGradient3925"
       gradientUnits="userSpaceOnUse"
       gradientTransform="matrix(0.9437344,0,0,1.1271501,14.403992,-51.860609)"
       x1="65.752502"
       y1="435.4863"
       x2="65.752502"
       y2="82.026207" />
    <radialGradient
       inkscape:collect="always"
       xlink:href="#linearGradient3242-52-665"
       id="radialGradient3946"
       gradientUnits="userSpaceOnUse"
       gradientTransform="matrix(0,2.6461921,-3.8910805,0,488.87751,-636.74139)"
       cx="256.02121"
       cy="59.841999"
       fx="256.02121"
       fy="59.841999"
       r="179.99628" />
    <radialGradient
       inkscape:collect="always"
       xlink:href="#linearGradient3994"
       id="radialGradient4004"
       gradientUnits="userSpaceOnUse"
       gradientTransform="matrix(0,2.6461921,-3.8910805,0,488.87751,-636.74139)"
       cx="256.02121"
       cy="59.841999"
       fx="256.02121"
       fy="59.841999"
       r="179.99628" />
    <linearGradient
       inkscape:collect="always"
       xlink:href="#linearGradient4006"
       id="linearGradient4012"
       gradientUnits="userSpaceOnUse"
       gradientTransform="matrix(0.9437344,0,0,1.1271501,14.403992,-51.860609)"
       x1="65.752502"
       y1="435.4863"
       x2="65.752502"
       y2="82.026207" />
    <linearGradient
       inkscape:collect="always"
       xlink:href="#linearGradient3463"
       id="linearGradient4015"
       gradientUnits="userSpaceOnUse"
       gradientTransform="matrix(0.83720716,0,0,0.84591602,45.249825,34.678261)"
       x1="69.626221"
       y1="471.97302"
       x2="69.626221"
       y2="443.56918" />
    <linearGradient
       inkscape:collect="always"
       xlink:href="#linearGradient3878"
       id="linearGradient4023"
       gradientUnits="userSpaceOnUse"
       gradientTransform="matrix(0.9437344,0,0,1.1271501,14.403992,-51.860609)"
       x1="65.752502"
       y1="435.4863"
       x2="65.752502"
       y2="82.026207" />
    <radialGradient
       inkscape:collect="always"
       xlink:href="#linearGradient3242-52-665"
       id="radialGradient3687"
       gradientUnits="userSpaceOnUse"
       gradientTransform="matrix(0,2.6461921,-3.8910805,0,488.87751,-636.74139)"
       cx="256.02121"
       cy="59.841999"
       fx="256.02121"
       fy="59.841999"
       r="179.99628" />
    <linearGradient
       inkscape:collect="always"
       xlink:href="#linearGradient3849"
       id="linearGradient3689"
       gradientUnits="userSpaceOnUse"
       gradientTransform="matrix(0.9437344,0,0,1.1271501,14.403992,-51.860609)"
       x1="65.752502"
       y1="435.4863"
       x2="65.752502"
       y2="82.026207" />
  </defs>
  <sodipodi:namedview
     id="base"
     pagecolor="#ffffff"
     bordercolor="#666666"
     borderopacity="1.0"
     gridtolerance="10000"
     guidetolerance="10"
     objecttolerance="10"
     inkscape:pageopacity="0.0"
     inkscape:pageshadow="2"
     inkscape:zoom="0.25000001"
     inkscape:cx="-278.66076"
     inkscape:cy="-23.882611"
     inkscape:document-units="px"
     inkscape:current-layer="layer2"
     showgrid="false"
     inkscape:window-width="1440"
     inkscape:window-height="846"
     inkscape:window-x="1680"
     inkscape:window-y="89"
     inkscape:window-maximized="1" />
  <metadata
     id="metadata7">
    <rdf:RDF>
      <cc:Work
         rdf:about="">
        <dc:format>image/svg+xml</dc:format>
        <dc:type
           rdf:resource="http://purl.org/dc/dcmitype/StillImage" />
        <dc:title />
      </cc:Work>
    </rdf:RDF>
  </metadata>
  <g
     inkscape:groupmode="layer"
     id="layer5"
     inkscape:label="Text"
     style="display:none">
    <g
       id="g3727"
       transform="matrix(0.83478447,0,0,0.83478447,42.295162,37.866853)">
      <text
         transform="matrix(1.0313731,0,0,1.031373,14.403994,-51.86061)"
         id="text3679"
         y="662.90381"
         x="-184.10045"
         style="font-size:180.31912231px;font-style:normal;font-variant:normal;font-weight:bold;font-stretch:normal;fill:#000000;fill-opacity:1;stroke:#000000;stroke-width:0;stroke-linecap:butt;stroke-linejoin:miter;stroke-miterlimit:4;stroke-opacity:1;stroke-dasharray:none;filter:url(#filter3683);font-family:Springsteel;-inkscape-font-specification:Springsteel Bold"
         xml:space="preserve"><tspan
           style="font-style:normal;font-variant:normal;font-weight:bold;font-stretch:normal;fill:#000000;fill-opacity:1;stroke:#000000;stroke-width:0;stroke-linecap:butt;stroke-linejoin:miter;stroke-miterlimit:4;stroke-opacity:1;stroke-dasharray:none;font-family:Springsteel;-inkscape-font-specification:Springsteel Bold"
           y="662.90381"
           x="-184.10045"
           id="tspan3681"
           sodipodi:role="line">Peakaboo 3</tspan></text>
      <text
         transform="matrix(1.0313731,0,0,1.031373,14.403994,-51.86061)"
         id="text3671"
         y="662.90381"
         x="-184.10045"
         style="font-size:180.31912231px;font-style:normal;font-variant:normal;font-weight:bold;font-stretch:normal;fill:#000000;fill-opacity:1;stroke:#000000;stroke-width:0;stroke-linecap:butt;stroke-linejoin:miter;stroke-miterlimit:4;stroke-opacity:1;stroke-dasharray:none;filter:url(#filter3675);font-family:Springsteel;-inkscape-font-specification:Springsteel Bold"
         xml:space="preserve"><tspan
           style="font-style:normal;font-variant:normal;font-weight:bold;font-stretch:normal;fill:#000000;fill-opacity:1;stroke:#000000;stroke-width:0;stroke-linecap:butt;stroke-linejoin:miter;stroke-miterlimit:4;stroke-opacity:1;stroke-dasharray:none;font-family:Springsteel;-inkscape-font-specification:Springsteel Bold"
           y="662.90381"
           x="-184.10045"
           id="tspan3673"
           sodipodi:role="line">Peakaboo 3</tspan></text>
      <text
         xml:space="preserve"
         style="font-size:185.97628784px;font-style:normal;font-variant:normal;font-weight:bold;font-stretch:normal;fill:#ffffff;fill-opacity:1;stroke:#000000;stroke-width:0;stroke-linecap:butt;stroke-linejoin:miter;stroke-miterlimit:4;stroke-opacity:1;stroke-dasharray:none;font-family:Springsteel;-inkscape-font-specification:Springsteel Bold"
         x="-175.47224"
         y="631.84052"
         id="text2841"><tspan
           sodipodi:role="line"
           id="tspan2843"
           x="-175.47224"
           y="631.84052"
           style="font-style:normal;font-variant:normal;font-weight:bold;font-stretch:normal;fill:#ffffff;fill-opacity:1;stroke:#000000;stroke-width:0;stroke-linecap:butt;stroke-linejoin:miter;stroke-miterlimit:4;stroke-opacity:1;stroke-dasharray:none;font-family:Springsteel;-inkscape-font-specification:Springsteel Bold">Peakaboo 3</tspan></text>
    </g>
  </g>
  <g
     inkscape:groupmode="layer"
     id="layer2"
     inkscape:label="Side Text"
     style="display:none">
    <g
       style="display:inline"
       transform="matrix(1.6864032,0,0,1.6864032,784.80424,-693.49434)"
       id="g3691">
      <text
         xml:space="preserve"
         style="font-size:180.31912231px;font-style:normal;font-variant:normal;font-weight:bold;font-stretch:normal;fill:#000000;fill-opacity:1;stroke:#000000;stroke-width:0;stroke-linecap:butt;stroke-linejoin:miter;stroke-miterlimit:4;stroke-opacity:1;stroke-dasharray:none;filter:url(#filter3683);font-family:Springsteel;-inkscape-font-specification:Springsteel Bold"
         x="-184.10045"
         y="662.90381"
         id="text3693"
         transform="matrix(1.0313731,0,0,1.031373,14.403994,-51.86061)"><tspan
           sodipodi:role="line"
           id="tspan3695"
           x="-184.10045"
           y="662.90381"
           style="font-style:normal;font-variant:normal;font-weight:bold;font-stretch:normal;fill:#000000;fill-opacity:1;stroke:#000000;stroke-width:0;stroke-linecap:butt;stroke-linejoin:miter;stroke-miterlimit:4;stroke-opacity:1;stroke-dasharray:none;font-family:Springsteel;-inkscape-font-specification:Springsteel Bold">Peakaboo 3</tspan></text>
      <text
         xml:space="preserve"
         style="font-size:180.31912231px;font-style:normal;font-variant:normal;font-weight:bold;font-stretch:normal;fill:#000000;fill-opacity:1;stroke:#000000;stroke-width:0;stroke-linecap:butt;stroke-linejoin:miter;stroke-miterlimit:4;stroke-opacity:1;stroke-dasharray:none;filter:url(#filter3675);font-family:Springsteel;-inkscape-font-specification:Springsteel Bold"
         x="-184.10045"
         y="662.90381"
         id="text3697"
         transform="matrix(1.0313731,0,0,1.031373,14.403994,-51.86061)"><tspan
           sodipodi:role="line"
           id="tspan3699"
           x="-184.10045"
           y="662.90381"
           style="font-style:normal;font-variant:normal;font-weight:bold;font-stretch:normal;fill:#000000;fill-opacity:1;stroke:#000000;stroke-width:0;stroke-linecap:butt;stroke-linejoin:miter;stroke-miterlimit:4;stroke-opacity:1;stroke-dasharray:none;font-family:Springsteel;-inkscape-font-specification:Springsteel Bold">Peakaboo 3</tspan></text>
      <text
         id="text3701"
         y="631.84052"
         x="-175.47224"
         style="font-size:185.97628784px;font-style:normal;font-variant:normal;font-weight:bold;font-stretch:normal;fill:#ffffff;fill-opacity:1;stroke:#000000;stroke-width:0;stroke-linecap:butt;stroke-linejoin:miter;stroke-miterlimit:4;stroke-opacity:1;stroke-dasharray:none;font-family:Springsteel;-inkscape-font-specification:Springsteel Bold"
         xml:space="preserve"><tspan
           style="font-style:normal;font-variant:normal;font-weight:bold;font-stretch:normal;fill:#ffffff;fill-opacity:1;stroke:#000000;stroke-width:0;stroke-linecap:butt;stroke-linejoin:miter;stroke-miterlimit:4;stroke-opacity:1;stroke-dasharray:none;font-family:Springsteel;-inkscape-font-specification:Springsteel Bold"
           y="631.84052"
           x="-175.47224"
           id="tspan3703"
           sodipodi:role="line">Peakaboo 3</tspan></text>
    </g>
  </g>
  <g
     inkscape:groupmode="layer"
     id="layer6"
     inkscape:label="Base Shadow"
     style="display:inline">
    <path
       style="fill:none;stroke:#000000;stroke-width:32;stroke-linecap:square;stroke-linejoin:round;stroke-miterlimit:4;stroke-opacity:1;stroke-dashoffset:0;display:inline;filter:url(#filter3687)"
       d="m 68.955079,443.50642 374.089841,0 c 0.28855,0 0,0.0581 0,0.13017 l 52.34436,36.20764 c 0,0.0721 -0.23229,0.13018 -0.52084,0.13018 l -477.736877,0 c -0.288546,0 -0.520842,-0.0581 -0.520842,-0.13018 l 52.344358,-36.20764 c 0,-0.0721 -0.288547,-0.13017 0,-0.13017 z"
       id="path3621"
       sodipodi:nodetypes="ccccccccc"
       transform="matrix(0.81161559,0,0,0.52824545,48.226408,186.16876)" />
    <path
       sodipodi:nodetypes="ccccccccc"
       id="path3626"
       d="m 68.955079,443.50642 374.089841,0 c 0.28855,0 0,0.0581 0,0.13017 l 52.34436,36.20764 c 0,0.0721 -0.23229,0.13018 -0.52084,0.13018 l -477.736877,0 c -0.288546,0 -0.520842,-0.0581 -0.520842,-0.13018 l 52.344358,-36.20764 c 0,-0.0721 -0.288547,-0.13017 0,-0.13017 z"
       style="fill:none;stroke:#000000;stroke-width:32;stroke-linecap:square;stroke-linejoin:round;stroke-miterlimit:4;stroke-opacity:1;stroke-dashoffset:0;display:inline;filter:url(#filter3622)"
       transform="matrix(0.81161559,0,0,0.52824545,48.226408,186.16876)" />
  </g>
  <g
     inkscape:label="Base"
     inkscape:groupmode="layer"
     id="layer1"
     style="display:inline">
    <path
       sodipodi:nodetypes="ccccsccccc"
       id="rect3235"
       d="m 105.67108,400.19597 300.65783,0 c 0.23191,0 0,0.0467 0,0.10462 l 42.06942,29.10026 c 0,0 0,0 0,0 0,0.0579 -0.18669,0.10462 -0.4186,0.10462 l -383.95946,0 c -0.231906,0 -0.418604,-0.0467 -0.418604,-0.10462 l 42.069414,-29.10026 c 0,-0.058 -0.2319,-0.10462 0,-0.10462 z"
       style="fill:none;stroke:#3b3b3b;stroke-width:25.71855545;stroke-linecap:square;stroke-linejoin:round;stroke-miterlimit:4;stroke-opacity:1;stroke-dashoffset:0" />
    <path
       sodipodi:nodetypes="ccccccccc"
       id="rect3237"
       d="m 105.67108,400.19597 300.65783,0 c 0.23191,0 0,0.0467 0,0.10462 l 42.06942,29.10026 c 0,0.0579 -0.18669,0.10462 -0.4186,0.10462 l -383.95946,0 c -0.231906,0 -0.418604,-0.0467 -0.418604,-0.10462 l 42.069414,-29.10026 c 0,-0.058 -0.2319,-0.10462 0,-0.10462 z"
       style="fill:#7b7b7b;fill-opacity:1;stroke:url(#linearGradient4015);stroke-width:8.57231617;stroke-linecap:square;stroke-linejoin:round;stroke-miterlimit:4;stroke-opacity:1;stroke-dashoffset:0" />
  </g>
  <g
     inkscape:groupmode="layer"
     id="layer3"
     inkscape:label="Release Curve"
     style="display:inline">
    <g
       style="display:inline"
       transform="matrix(0.80370488,0,0,0.80370488,50.251551,54.999871)"
       id="g2903">
      <path
         style="fill:url(#radialGradient3687);fill-opacity:1;fill-rule:evenodd;stroke:none"
         d="m 182.84375,36.71875 c -16.29861,1.142333 -26.23315,16.501335 -33.5,29.375 C 129.36141,105.4144 119.93209,149.19382 110.28125,192 93.667618,272.68319 82.25646,354.36874 73.769804,436.24909 c -2.590894,7.12148 5.240374,4.25928 9.573946,4.75091 118.38539,-0.021 236.771,0.0418 355.15625,-0.0312 -4.39355,-52.77523 -12.85054,-105.18978 -23.78816,-157.08894 -8.5536,-36.7393 -16.96361,-74.48217 -35.33684,-107.66106 -6.83572,-11.75705 -17.99633,-25.00061 -33.09375,-23 -18.1292,1.96431 -28.99802,19.01541 -36.39096,33.92253 -7.5802,13.52367 -11.99944,29.6977 -24.07779,40.01497 -3.79707,3.14244 -9.39091,2.47401 -12,-1.90625 C 260.29164,207.16942 254.50716,184.90321 246.96707,163.83189 234.7123,127.96814 225.8666,90.447739 208.28125,56.8125 202.87023,47.480146 195.06463,36.087766 182.84375,36.71875 z"
         id="path2905" />
      <path
         style="font-size:medium;font-style:normal;font-variant:normal;font-weight:normal;font-stretch:normal;text-indent:0;text-align:start;text-decoration:none;line-height:normal;letter-spacing:normal;word-spacing:normal;text-transform:none;direction:ltr;block-progression:tb;writing-mode:lr-tb;text-anchor:start;opacity:0.4;color:#000000;fill:url(#linearGradient4023);fill-opacity:1;fill-rule:evenodd;stroke:none;stroke-width:10.66600037;marker:none;visibility:visible;display:inline;overflow:visible;enable-background:accumulate;font-family:Abberancy;-inkscape-font-specification:Abberancy"
         d="m 183.90625,38.6875 c -10.70079,0 -19.56373,7.773986 -27.1875,19.09375 -7.62377,11.319764 -14.48394,26.864777 -20.875,45.375 C 123.06164,140.1767 112.22339,189.03247 103.375,237.875 85.678223,335.56007 76.03125,433.125 76.03125,433.125 l -0.21875,2.21875 -0.5625,3.68539 c 6.6e-5,8e-5 6.038819,-0.0293 6.0625,-0.0291 0.02368,1.7e-4 0.03801,-9e-5 0.0625,0 0.04898,1.8e-4 0.133034,-1.5e-4 0.21875,0 0.171431,3e-4 0.418469,-2.8e-4 0.75,0 0.663062,5.6e-4 1.626166,-5e-4 2.90625,0 2.560168,10e-4 6.317019,-7.5e-4 11.09375,0 9.55346,0.002 23.21857,-6.7e-4 39.59375,0 32.75036,10e-4 76.39767,9.5e-4 120.0625,0 43.66483,-9.5e-4 87.34563,0.002 120.09375,0 16.37406,-9.1e-4 30.01092,8.5e-4 39.5625,0 4.77579,-4.3e-4 8.53512,3.8e-4 11.09375,0 1.27932,-1.9e-4 2.24492,1.7e-4 2.90625,0 0.33067,-9e-5 0.58129,8e-5 0.75,0 0.0844,-4e-5 0.14356,4e-5 0.1875,0 0.022,-2e-5 5.3298,-0.0663 5.3437,-0.0663 l 0.0625,-5.52746 -0.0312,-0.25 c -3.9185,-41.40537 -13.57686,-109.82526 -27.65625,-168.25 -7.0397,-29.21237 -15.13674,-55.9003 -24.40625,-75.6875 -4.63475,-9.8936 -9.51855,-18.07308 -15.03125,-24.09375 -5.5127,-6.02067 -12.02901,-10.09375 -19.34375,-10.09375 -10.87169,0 -19.49548,6.00049 -25.9375,13.84375 -6.44202,7.84326 -11.28222,17.6814 -15.90625,27.25 -4.62403,9.5686 -9.03189,18.88912 -13.75,25.375 -4.71811,6.48588 -9.03555,9.71875 -14.46875,9.71875 -1.8578,0 -4.81942,-1.57033 -8.4375,-6.21875 -3.61808,-4.64842 -7.50638,-11.85098 -11.34375,-20.65625 -7.67473,-17.61054 -15.26707,-41.59133 -22.875,-65.65625 C 229.20457,114.62258 221.57583,90.456539 213.5,71.96875 209.46209,62.724855 205.37337,54.880099 200.78125,49 196.18913,43.119901 190.71342,38.6875 183.90625,38.6875 z m 0,10.65625 c 1.88657,0 4.83881,1.601952 8.46875,6.25 3.62994,4.648048 7.52909,11.851892 11.375,20.65625 7.69183,17.608716 15.29869,41.5925 22.90625,65.65625 7.60756,24.06375 15.19376,48.20154 23.25,66.6875 4.02812,9.24298 8.14229,17.05777 12.71875,22.9375 4.57646,5.87973 10.0445,10.34375 16.84375,10.34375 9.86073,0 17.42079,-6.29526 23.09375,-14.09375 5.67296,-7.79849 10.13888,-17.52278 14.71875,-27 4.57987,-9.47722 9.27213,-18.68389 14.5625,-25.125 5.29037,-6.44111 10.58262,-9.96875 17.6875,-9.96875 3.32528,0 7.12179,1.87748 11.46875,6.625 4.34696,4.74752 8.89299,12.13679 13.25,21.4375 8.71402,18.60142 16.77162,44.82801 23.71875,73.65625 13.31736,55.26256 22.55559,119.62333 26.71875,160.90625 -2.43925,3.2e-4 -5.14344,-3.5e-4 -9.03125,0 -9.55136,8.5e-4 -23.18851,-9.1e-4 -39.5625,0 -32.74797,0.002 -76.42905,0.0303 -120.09375,0.0312 -43.6647,9.5e-4 -87.31256,10e-4 -120.0625,0 -16.37497,-6.7e-4 -30.04111,-0.0297 -39.59375,-0.0312 -3.901781,-6.2e-4 -6.6198,7.8e-4 -9.0625,0 1.533756,-14.90166 10.543474,-99.93476 26.59375,-188.53125 8.79804,-48.5646 19.62067,-97.0901 32.0625,-133.125 6.22092,-18.01745 12.89813,-32.918204 19.625,-42.90625 6.72687,-9.988046 13.05904,-14.40625 18.34375,-14.40625 z"
         id="path2907"
         sodipodi:nodetypes="cssscccsssssssssssssscccsssssssssssssccssssssssssssscssssscsssc" />
      <path
         style="font-size:medium;font-style:normal;font-variant:normal;font-weight:normal;font-stretch:normal;text-indent:0;text-align:start;text-decoration:none;line-height:normal;letter-spacing:normal;word-spacing:normal;text-transform:none;direction:ltr;block-progression:tb;writing-mode:lr-tb;text-anchor:start;color:#000000;fill:url(#linearGradient3689);fill-opacity:1;fill-rule:evenodd;stroke:none;stroke-width:31.99799919;marker:none;visibility:visible;display:inline;overflow:visible;enable-background:accumulate;font-family:Abberancy;-inkscape-font-specification:Abberancy"
         d="m 183.90625,28.03125 c -16.11687,0 -27.54183,11.161018 -36.0625,23.8125 -8.52067,12.651482 -15.5013,28.840754 -22.0625,47.84375 -13.1224,38.00599 -23.97626,87.19203 -32.875,136.3125 -17.79748,98.24095 -27.5,196.0625 -27.5,196.0625 L 64.75,438.75 l -1,10.90625 c 0.312566,-0.18742 17.450324,-3.6e-4 17.5,0 0.04968,3.6e-4 0.06272,-1.1e-4 0.09375,0 0.06206,2.2e-4 0.129754,-1.6e-4 0.21875,0 0.177991,3.2e-4 0.416826,-2.8e-4 0.75,0 0.666348,5.7e-4 1.656593,-5e-4 2.9375,0 2.561814,10e-4 6.316606,-7.5e-4 11.09375,0 9.55429,0.002 23.21836,-6.7e-4 39.59375,0 32.75079,10e-4 76.39754,9.5e-4 120.0625,0 43.66496,-9.5e-4 87.34548,0.002 120.09375,0 16.37413,-9.1e-4 30.0107,8.5e-4 39.5625,0 4.7759,-4.3e-4 8.5347,3.8e-4 11.09375,0 1.27952,-1.9e-4 2.2441,1.8e-4 2.90625,0 0.33108,-9e-5 0.57966,8e-5 0.75,0 0.0852,-4e-5 0.17156,4e-5 0.21875,0 l 17.06602,-0.0259 -1.03477,-16.72411 -0.0625,-0.75 c -3.96973,-41.94675 -13.64172,-110.557 -27.90625,-169.75 -7.13227,-29.5965 -15.3,-56.71452 -25.125,-77.6875 -4.9125,-10.48649 -10.16532,-19.48742 -16.84375,-26.78125 -6.67843,-7.29383 -15.8833,-13.59375 -27.1875,-13.59375 -14.63849,0 -26.56259,8.5046 -34.15625,17.75 -7.59366,9.2454 -12.61306,19.74627 -17.28125,29.40625 -4.66819,9.65998 -9.01798,18.54547 -12.78125,23.71875 -2.32732,3.19931 -3.51069,4.27372 -4.40625,4.78125 -0.34213,-0.31111 -0.55094,-0.42346 -1.4375,-1.5625 -2.65969,-3.41711 -6.35339,-10.00744 -10,-18.375 C 262.17558,183.32737 254.6083,159.53485 247,135.46875 239.3917,111.40265 231.74107,87.054362 223.28125,67.6875 219.05134,58.004069 214.7418,49.549651 209.1875,42.4375 203.6332,35.325349 195.63401,28.03125 183.90625,28.03125 z m 0,10.65625 c 6.80717,0 12.28288,4.432401 16.875,10.3125 4.59212,5.880099 8.68084,13.724855 12.71875,22.96875 8.07583,18.487789 15.70452,42.65383 23.3125,66.71875 7.60793,24.06492 15.20027,48.04571 22.875,65.65625 3.83737,8.80527 7.72567,16.00783 11.34375,20.65625 3.61808,4.64842 6.5797,6.21875 8.4375,6.21875 5.4332,0 9.75064,-3.23287 14.46875,-9.71875 4.71811,-6.48588 9.12597,-15.8064 13.75,-25.375 4.62403,-9.5686 9.46423,-19.40674 15.90625,-27.25 6.44202,-7.84326 15.06581,-13.84375 25.9375,-13.84375 7.31474,0 13.83105,4.07308 19.34375,10.09375 5.5127,6.02067 10.3965,14.20015 15.03125,24.09375 9.26951,19.7872 17.36655,46.47513 24.40625,75.6875 14.07939,58.42474 23.73775,126.84463 27.65625,168.25 l 0.0312,0.25 0.3352,5.59375 c -0.0139,3e-5 -5.71945,-2e-5 -5.74145,0 -0.0439,4e-5 -0.1031,-4e-5 -0.1875,0 -0.16871,8e-5 -0.41933,-9e-5 -0.75,0 -0.66133,1.7e-4 -1.62693,-1.9e-4 -2.90625,0 -2.55863,3.8e-4 -6.31796,-4.3e-4 -11.09375,0 -9.55158,8.5e-4 -23.18844,-9.1e-4 -39.5625,0 -32.74812,0.002 -76.42892,-9.5e-4 -120.09375,0 -43.66483,9.5e-4 -87.31214,10e-4 -120.0625,0 -16.37518,-6.7e-4 -30.04029,0.002 -39.59375,0 -4.776731,-7.5e-4 -8.533582,10e-4 -11.09375,0 -1.280084,-5e-4 -2.243188,5.6e-4 -2.90625,0 -0.331531,-2.8e-4 -0.578569,3e-4 -0.75,0 -0.08572,-1.5e-4 -0.16977,1.8e-4 -0.21875,0 -0.02449,-9e-5 -0.03882,1.7e-4 -0.0625,0 -0.02368,-1.7e-4 -5.653424,0.007 -5.65349,0.007 l 0.15349,-3.66329 0.21875,-2.21875 c 0,0 9.646973,-97.56493 27.34375,-195.25 8.84839,-48.84253 19.68664,-97.6983 32.46875,-134.71875 6.39106,-18.510223 13.25123,-34.055236 20.875,-45.375 7.62377,-11.319764 16.48671,-19.09375 27.1875,-19.09375 l 5e-5,4e-5 z"
         id="path2909"
         sodipodi:nodetypes="cssscccsssssssssssssccccssssssscsssssccssssssssssssscccsssssssssssssscccssscc" />
    </g>
  </g>
  <g
     inkscape:groupmode="layer"
     id="layer4"
     inkscape:label="Dev Curve"
     style="display:none">
    <g
       id="g3977"
       transform="matrix(0.80370488,0,0,0.80370488,50.251551,54.999871)">
      <path
         id="path2908"
         d="m 182.84375,36.71875 c -16.29861,1.142333 -26.23315,16.501335 -33.5,29.375 C 129.36141,105.4144 119.93209,149.19382 110.28125,192 93.667618,272.68319 82.25646,354.36874 73.769804,436.24909 c -2.590894,7.12148 5.240374,4.25928 9.573946,4.75091 118.38539,-0.021 236.771,0.0418 355.15625,-0.0312 -4.39355,-52.77523 -12.85054,-105.18978 -23.78816,-157.08894 -8.5536,-36.7393 -16.96361,-74.48217 -35.33684,-107.66106 -6.83572,-11.75705 -17.99633,-25.00061 -33.09375,-23 -18.1292,1.96431 -28.99802,19.01541 -36.39096,33.92253 -7.5802,13.52367 -11.99944,29.6977 -24.07779,40.01497 -3.79707,3.14244 -9.39091,2.47401 -12,-1.90625 C 260.29164,207.16942 254.50716,184.90321 246.96707,163.83189 234.7123,127.96814 225.8666,90.447739 208.28125,56.8125 202.87023,47.480146 195.06463,36.087766 182.84375,36.71875 z"
         style="fill:url(#radialGradient4004);fill-opacity:1;fill-rule:evenodd;stroke:none" />
      <path
         sodipodi:nodetypes="cssscccsssssssssssssscccsssssssssssssccssssssssssssscssssscsssc"
         id="path3919"
         d="m 183.90625,38.6875 c -10.70079,0 -19.56373,7.773986 -27.1875,19.09375 -7.62377,11.319764 -14.48394,26.864777 -20.875,45.375 C 123.06164,140.1767 112.22339,189.03247 103.375,237.875 85.678223,335.56007 76.03125,433.125 76.03125,433.125 l -0.21875,2.21875 -0.5625,3.68539 c 6.6e-5,8e-5 6.038819,-0.0293 6.0625,-0.0291 0.02368,1.7e-4 0.03801,-9e-5 0.0625,0 0.04898,1.8e-4 0.133034,-1.5e-4 0.21875,0 0.171431,3e-4 0.418469,-2.8e-4 0.75,0 0.663062,5.6e-4 1.626166,-5e-4 2.90625,0 2.560168,10e-4 6.317019,-7.5e-4 11.09375,0 9.55346,0.002 23.21857,-6.7e-4 39.59375,0 32.75036,10e-4 76.39767,9.5e-4 120.0625,0 43.66483,-9.5e-4 87.34563,0.002 120.09375,0 16.37406,-9.1e-4 30.01092,8.5e-4 39.5625,0 4.77579,-4.3e-4 8.53512,3.8e-4 11.09375,0 1.27932,-1.9e-4 2.24492,1.7e-4 2.90625,0 0.33067,-9e-5 0.58129,8e-5 0.75,0 0.0844,-4e-5 0.14356,4e-5 0.1875,0 0.022,-2e-5 5.3298,-0.0663 5.3437,-0.0663 l 0.0625,-5.52746 -0.0312,-0.25 c -3.9185,-41.40537 -13.57686,-109.82526 -27.65625,-168.25 -7.0397,-29.21237 -15.13674,-55.9003 -24.40625,-75.6875 -4.63475,-9.8936 -9.51855,-18.07308 -15.03125,-24.09375 -5.5127,-6.02067 -12.02901,-10.09375 -19.34375,-10.09375 -10.87169,0 -19.49548,6.00049 -25.9375,13.84375 -6.44202,7.84326 -11.28222,17.6814 -15.90625,27.25 -4.62403,9.5686 -9.03189,18.88912 -13.75,25.375 -4.71811,6.48588 -9.03555,9.71875 -14.46875,9.71875 -1.8578,0 -4.81942,-1.57033 -8.4375,-6.21875 -3.61808,-4.64842 -7.50638,-11.85098 -11.34375,-20.65625 -7.67473,-17.61054 -15.26707,-41.59133 -22.875,-65.65625 C 229.20457,114.62258 221.57583,90.456539 213.5,71.96875 209.46209,62.724855 205.37337,54.880099 200.78125,49 196.18913,43.119901 190.71342,38.6875 183.90625,38.6875 z m 0,10.65625 c 1.88657,0 4.83881,1.601952 8.46875,6.25 3.62994,4.648048 7.52909,11.851892 11.375,20.65625 7.69183,17.608716 15.29869,41.5925 22.90625,65.65625 7.60756,24.06375 15.19376,48.20154 23.25,66.6875 4.02812,9.24298 8.14229,17.05777 12.71875,22.9375 4.57646,5.87973 10.0445,10.34375 16.84375,10.34375 9.86073,0 17.42079,-6.29526 23.09375,-14.09375 5.67296,-7.79849 10.13888,-17.52278 14.71875,-27 4.57987,-9.47722 9.27213,-18.68389 14.5625,-25.125 5.29037,-6.44111 10.58262,-9.96875 17.6875,-9.96875 3.32528,0 7.12179,1.87748 11.46875,6.625 4.34696,4.74752 8.89299,12.13679 13.25,21.4375 8.71402,18.60142 16.77162,44.82801 23.71875,73.65625 13.31736,55.26256 22.55559,119.62333 26.71875,160.90625 -2.43925,3.2e-4 -5.14344,-3.5e-4 -9.03125,0 -9.55136,8.5e-4 -23.18851,-9.1e-4 -39.5625,0 -32.74797,0.002 -76.42905,0.0303 -120.09375,0.0312 -43.6647,9.5e-4 -87.31256,10e-4 -120.0625,0 -16.37497,-6.7e-4 -30.04111,-0.0297 -39.59375,-0.0312 -3.901781,-6.2e-4 -6.6198,7.8e-4 -9.0625,0 1.533756,-14.90166 10.543474,-99.93476 26.59375,-188.53125 8.79804,-48.5646 19.62067,-97.0901 32.0625,-133.125 6.22092,-18.01745 12.89813,-32.918204 19.625,-42.90625 6.72687,-9.988046 13.05904,-14.40625 18.34375,-14.40625 z"
         style="font-size:medium;font-style:normal;font-variant:normal;font-weight:normal;font-stretch:normal;text-indent:0;text-align:start;text-decoration:none;line-height:normal;letter-spacing:normal;word-spacing:normal;text-transform:none;direction:ltr;block-progression:tb;writing-mode:lr-tb;text-anchor:start;opacity:0.4;color:#000000;fill:url(#linearGradient4023);fill-opacity:1;fill-rule:evenodd;stroke:none;stroke-width:10.66600037;marker:none;visibility:visible;display:inline;overflow:visible;enable-background:accumulate;font-family:Abberancy;-inkscape-font-specification:Abberancy" />
      <path
         sodipodi:nodetypes="cssscccsssssssssssssccccssssssscsssssccssssssssssssscccsssssssssssssscccssscc"
         id="path3857"
         d="m 183.90625,28.03125 c -16.11687,0 -27.54183,11.161018 -36.0625,23.8125 -8.52067,12.651482 -15.5013,28.840754 -22.0625,47.84375 -13.1224,38.00599 -23.97626,87.19203 -32.875,136.3125 -17.79748,98.24095 -27.5,196.0625 -27.5,196.0625 L 64.75,438.75 l -1,10.90625 c 0.312566,-0.18742 17.450324,-3.6e-4 17.5,0 0.04968,3.6e-4 0.06272,-1.1e-4 0.09375,0 0.06206,2.2e-4 0.129754,-1.6e-4 0.21875,0 0.177991,3.2e-4 0.416826,-2.8e-4 0.75,0 0.666348,5.7e-4 1.656593,-5e-4 2.9375,0 2.561814,10e-4 6.316606,-7.5e-4 11.09375,0 9.55429,0.002 23.21836,-6.7e-4 39.59375,0 32.75079,10e-4 76.39754,9.5e-4 120.0625,0 43.66496,-9.5e-4 87.34548,0.002 120.09375,0 16.37413,-9.1e-4 30.0107,8.5e-4 39.5625,0 4.7759,-4.3e-4 8.5347,3.8e-4 11.09375,0 1.27952,-1.9e-4 2.2441,1.8e-4 2.90625,0 0.33108,-9e-5 0.57966,8e-5 0.75,0 0.0852,-4e-5 0.17156,4e-5 0.21875,0 l 17.06602,-0.0259 -1.03477,-16.72411 -0.0625,-0.75 c -3.96973,-41.94675 -13.64172,-110.557 -27.90625,-169.75 -7.13227,-29.5965 -15.3,-56.71452 -25.125,-77.6875 -4.9125,-10.48649 -10.16532,-19.48742 -16.84375,-26.78125 -6.67843,-7.29383 -15.8833,-13.59375 -27.1875,-13.59375 -14.63849,0 -26.56259,8.5046 -34.15625,17.75 -7.59366,9.2454 -12.61306,19.74627 -17.28125,29.40625 -4.66819,9.65998 -9.01798,18.54547 -12.78125,23.71875 -2.32732,3.19931 -3.51069,4.27372 -4.40625,4.78125 -0.34213,-0.31111 -0.55094,-0.42346 -1.4375,-1.5625 -2.65969,-3.41711 -6.35339,-10.00744 -10,-18.375 C 262.17558,183.32737 254.6083,159.53485 247,135.46875 239.3917,111.40265 231.74107,87.054362 223.28125,67.6875 219.05134,58.004069 214.7418,49.549651 209.1875,42.4375 203.6332,35.325349 195.63401,28.03125 183.90625,28.03125 z m 0,10.65625 c 6.80717,0 12.28288,4.432401 16.875,10.3125 4.59212,5.880099 8.68084,13.724855 12.71875,22.96875 8.07583,18.487789 15.70452,42.65383 23.3125,66.71875 7.60793,24.06492 15.20027,48.04571 22.875,65.65625 3.83737,8.80527 7.72567,16.00783 11.34375,20.65625 3.61808,4.64842 6.5797,6.21875 8.4375,6.21875 5.4332,0 9.75064,-3.23287 14.46875,-9.71875 4.71811,-6.48588 9.12597,-15.8064 13.75,-25.375 4.62403,-9.5686 9.46423,-19.40674 15.90625,-27.25 6.44202,-7.84326 15.06581,-13.84375 25.9375,-13.84375 7.31474,0 13.83105,4.07308 19.34375,10.09375 5.5127,6.02067 10.3965,14.20015 15.03125,24.09375 9.26951,19.7872 17.36655,46.47513 24.40625,75.6875 14.07939,58.42474 23.73775,126.84463 27.65625,168.25 l 0.0312,0.25 0.3352,5.59375 c -0.0139,3e-5 -5.71945,-2e-5 -5.74145,0 -0.0439,4e-5 -0.1031,-4e-5 -0.1875,0 -0.16871,8e-5 -0.41933,-9e-5 -0.75,0 -0.66133,1.7e-4 -1.62693,-1.9e-4 -2.90625,0 -2.55863,3.8e-4 -6.31796,-4.3e-4 -11.09375,0 -9.55158,8.5e-4 -23.18844,-9.1e-4 -39.5625,0 -32.74812,0.002 -76.42892,-9.5e-4 -120.09375,0 -43.66483,9.5e-4 -87.31214,10e-4 -120.0625,0 -16.37518,-6.7e-4 -30.04029,0.002 -39.59375,0 -4.776731,-7.5e-4 -8.533582,10e-4 -11.09375,0 -1.280084,-5e-4 -2.243188,5.6e-4 -2.90625,0 -0.331531,-2.8e-4 -0.578569,3e-4 -0.75,0 -0.08572,-1.5e-4 -0.16977,1.8e-4 -0.21875,0 -0.02449,-9e-5 -0.03882,1.7e-4 -0.0625,0 -0.02368,-1.7e-4 -5.653424,0.007 -5.65349,0.007 l 0.15349,-3.66329 0.21875,-2.21875 c 0,0 9.646973,-97.56493 27.34375,-195.25 8.84839,-48.84253 19.68664,-97.6983 32.46875,-134.71875 6.39106,-18.510223 13.25123,-34.055236 20.875,-45.375 7.62377,-11.319764 16.48671,-19.09375 27.1875,-19.09375 l 5e-5,4e-5 z"
         style="font-size:medium;font-style:normal;font-variant:normal;font-weight:normal;font-stretch:normal;text-indent:0;text-align:start;text-decoration:none;line-height:normal;letter-spacing:normal;word-spacing:normal;text-transform:none;direction:ltr;block-progression:tb;writing-mode:lr-tb;text-anchor:start;color:#000000;fill:url(#linearGradient4012);fill-opacity:1;fill-rule:evenodd;stroke:none;stroke-width:31.99799919;marker:none;visibility:visible;display:inline;overflow:visible;enable-background:accumulate;font-family:Abberancy;-inkscape-font-specification:Abberancy" />
    </g>
  </g>
</svg>
