<?xml version="1.0" encoding="UTF-8" standalone="no"?>
<!-- Created with Inkscape (http://www.inkscape.org/) -->

<svg
   xmlns:dc="http://purl.org/dc/elements/1.1/"
   xmlns:cc="http://creativecommons.org/ns#"
   xmlns:rdf="http://www.w3.org/1999/02/22-rdf-syntax-ns#"
   xmlns:svg="http://www.w3.org/2000/svg"
   xmlns="http://www.w3.org/2000/svg"
   xmlns:sodipodi="http://sodipodi.sourceforge.net/DTD/sodipodi-0.dtd"
   xmlns:inkscape="http://www.inkscape.org/namespaces/inkscape"
   width="136.77234"
   height="22.799999"
   id="svg2"
   version="1.1"
   inkscape:version="0.48.2 r9819"
   sodipodi:docname="peakaboo.pdf">
  <defs
     id="defs4" />
  <sodipodi:namedview
     id="base"
     pagecolor="#ffffff"
     bordercolor="#666666"
     borderopacity="1.0"
     inkscape:pageopacity="0.0"
     inkscape:pageshadow="2"
     inkscape:zoom="2.8"
     inkscape:cx="112.82898"
     inkscape:cy="-8.8717021"
     inkscape:document-units="px"
     inkscape:current-layer="layer2"
     showgrid="false"
     fit-margin-top="0"
     fit-margin-left="0"
     fit-margin-right="0"
     fit-margin-bottom="0"
     inkscape:window-width="1680"
     inkscape:window-height="921"
     inkscape:window-x="0"
     inkscape:window-y="25"
     inkscape:window-maximized="1" />
  <metadata
     id="metadata7">
    <rdf:RDF>
      <cc:Work
         rdf:about="">
        <dc:format>image/svg+xml</dc:format>
        <dc:type
           rdf:resource="http://purl.org/dc/dcmitype/StillImage" />
        <dc:title></dc:title>
      </cc:Work>
    </rdf:RDF>
  </metadata>
  <g
     inkscape:label="Text"
     inkscape:groupmode="layer"
     id="layer1"
     transform="translate(930.63087,-378.43362)"
     style="display:none">
    <text
       xml:space="preserve"
       style="font-size:30px;font-style:normal;font-variant:normal;font-weight:bold;font-stretch:normal;text-align:center;line-height:125%;letter-spacing:0px;word-spacing:0px;text-anchor:middle;fill:#000000;fill-opacity:1;stroke:none;font-family:Nimbus Sans L;-inkscape-font-specification:Springsteel Bold"
       x="-862.85712"
       y="400.93362"
       id="text2985"
       sodipodi:linespacing="125%"><tspan
         sodipodi:role="line"
         id="tspan2987"
         x="-862.85712"
         y="400.93362"
         style="font-style:normal;font-variant:normal;font-weight:300;font-stretch:normal;font-family:Springsteel;-inkscape-font-specification:Springsteel Light">Peakaboo 4</tspan></text>
  </g>
  <g
     inkscape:groupmode="layer"
     id="layer2"
     inkscape:label="Paths">
    <g
       transform="translate(930.63087,-378.43362)"
       style="font-size:30px;font-style:normal;font-variant:normal;font-weight:bold;font-stretch:normal;text-align:center;line-height:125%;letter-spacing:0px;word-spacing:0px;text-anchor:middle;fill:#000000;fill-opacity:1;stroke:none;font-family:Nimbus Sans L;-inkscape-font-specification:Springsteel Bold"
       id="text2986">
      <path
         d="m -923.73087,379.63362 c -3.59999,0 -6.6,0.3 -6.6,0.3 0,0 -0.3,6.00001 -0.3,10.5 0,4.5 0.3,10.5 0.3,10.5 l 1.35,0 c 0,0 -0.12,-4.83 -0.15,-9.15 l 5.4,0 c 4.5,0 6.6,-2.4 6.6,-6.15 0,-3.74999 -2.1,-6 -6.6,-6 m 0,1.2 c 3.3,0 5.1,1.65001 5.1,4.8 0,3.15 -1.8,4.95 -5.1,4.95 l -5.4,0 0,-9.75 5.4,0"
         style="font-weight:300;font-family:Springsteel;-inkscape-font-specification:Springsteel Light"
         id="path2993" />
      <path
         d="m -909.32477,385.63362 c -5.55,0 -6.15,4.20001 -6.15,7.8 0,3 0.6,7.8 6.15,7.8 2.84999,0 4.65,-0.75 4.65,-0.75 l 0,-1.05 c 0,0 -2.10001,0.6 -4.65,0.6 -4.05,0 -4.65,-3.3 -4.65,-6 0,0 3.24,0.3 4.65,0.3 4.94999,0 5.55,-2.55 5.55,-4.05 0,-1.49999 -0.60001,-4.65 -5.55,-4.65 m 0,1.2 c 3.44999,0 4.05,2.25001 4.05,3.45 0,1.2 -0.60001,2.85 -4.05,2.85 l -4.65,0 c 0,-2.99999 0.45,-6.3 4.65,-6.3"
         style="font-weight:300;font-family:Springsteel;-inkscape-font-specification:Springsteel Light"
         id="path2995" />
      <path
         d="m -900.77805,386.23362 0,1.05 c 0,0 2.1,-0.45 4.65,-0.45 3.14999,0 4.05,1.80001 4.05,6 0,0 -2.40001,-0.3 -4.05,-0.3 -5.25,0 -5.85,2.94001 -5.85,4.35 0,1.29 0.6,4.35 5.85,4.35 3.38999,0 5.25,-0.3 5.25,-0.3 0,0 0.3,-4.29 0.3,-7.5 0,-3.89999 -0.33001,-7.8 -5.55,-7.8 -2.55,0 -4.65,0.6 -4.65,0.6 m 8.7,13.8 -4.05,0 c -3.75,0 -4.35,-1.62 -4.35,-3.15 0,-1.49999 0.6,-3.15 4.35,-3.15 l 4.05,0 0,6.3"
         style="font-weight:300;font-family:Springsteel;-inkscape-font-specification:Springsteel Light"
         id="path2997" />
      <path
         d="m -885.63134,400.93362 0,-10.5 c 0,-4.49999 0.15,-12 0.15,-12 l -1.35,0 c 0,0 -0.3,7.50001 -0.3,12 0,4.5 0.3,10.5 0.3,10.5 l 1.2,0 m 0,-7.5 3.9,3.6 c 1.95,1.8 3.9,3.9 3.9,3.9 l 1.8,0 c 0,0 -3.24,-3.3 -4.8,-4.8 -0.59999,-0.6 -3,-2.7 -3,-2.7 0,0 2.40001,-2.1 3,-2.7 1.56,-1.49999 4.8,-4.8 4.8,-4.8 l -1.8,0 c 0,0 -1.95,2.10001 -3.9,3.9 l -3.9,3.6"
         style="font-weight:300;font-family:Springsteel;-inkscape-font-specification:Springsteel Light"
         id="path2999" />
      <path
         d="m -873.76634,386.23362 0,1.05 c 0,0 2.10001,-0.45 4.65,-0.45 3.15,0 4.05,1.80001 4.05,6 0,0 -2.4,-0.3 -4.05,-0.3 -5.24999,0 -5.85,2.94001 -5.85,4.35 0,1.29 0.60001,4.35 5.85,4.35 3.39,0 5.25,-0.3 5.25,-0.3 0,0 0.3,-4.29 0.3,-7.5 0,-3.89999 -0.33,-7.8 -5.55,-7.8 -2.54999,0 -4.65,0.6 -4.65,0.6 m 8.7,13.8 -4.05,0 c -3.74999,0 -4.35,-1.62 -4.35,-3.15 0,-1.49999 0.60001,-3.15 4.35,-3.15 l 4.05,0 0,6.3"
         style="font-weight:300;font-family:Springsteel;-inkscape-font-specification:Springsteel Light"
         id="path3001" />
      <path
         d="m -854.56962,385.63362 c -1.85999,0 -3.18,0.3 -4.05,0.57 0,-3.86999 0.15,-7.77 0.15,-7.77 l -1.35,0 c 0,0 -0.3,6.90001 -0.3,11.7 0,4.8 0.3,10.8 0.3,10.8 0,0 2.40001,0.3 5.25,0.3 5.55,0 6.15,-4.8 6.15,-7.8 0,-2.99999 -0.6,-7.8 -6.15,-7.8 m -4.05,1.5 c 0.93,-0.15 2.25001,-0.3 4.05,-0.3 4.05,0 4.65,3.15001 4.65,6.6 0,3.45 -0.6,6.6 -4.65,6.6 l -4.05,0 0,-12.9"
         style="font-weight:300;font-family:Springsteel;-inkscape-font-specification:Springsteel Light"
         id="path3003" />
      <path
         d="m -839.86259,386.83362 c 4.05,0 4.65,3.15001 4.65,6.6 0,3.45 -0.6,6.6 -4.65,6.6 -4.04999,0 -4.65,-3.15 -4.65,-6.6 0,-3.44999 0.60001,-6.6 4.65,-6.6 m 0,-1.2 c -5.54999,0 -6.15,4.80001 -6.15,7.8 0,3 0.60001,7.8 6.15,7.8 5.55,0 6.15,-4.8 6.15,-7.8 0,-2.99999 -0.6,-7.8 -6.15,-7.8"
         style="font-weight:300;font-family:Springsteel;-inkscape-font-specification:Springsteel Light"
         id="path3005" />
      <path
         d="m -825.15555,386.83362 c 4.04999,0 4.65,3.15001 4.65,6.6 0,3.45 -0.60001,6.6 -4.65,6.6 -4.05,0 -4.65,-3.15 -4.65,-6.6 0,-3.44999 0.6,-6.6 4.65,-6.6 m 0,-1.2 c -5.55,0 -6.15,4.80001 -6.15,7.8 0,3 0.6,7.8 6.15,7.8 5.54999,0 6.15,-4.8 6.15,-7.8 0,-2.99999 -0.60001,-7.8 -6.15,-7.8"
         style="font-weight:300;font-family:Springsteel;-inkscape-font-specification:Springsteel Light"
         id="path3007" />
      <path
         d="m -793.85852,392.38362 0,-1.23 -3,0 c 0,-5.39999 0.12,-11.22 0.12,-11.22 l -1.32,0 c 0,0 -0.3,5.82001 -0.3,11.22 l -9.3,0 c 0.96,-5.12999 2.85,-11.22 2.85,-11.22 l -1.35,0 c 0,0 -1.74,5.40001 -2.76,10.14 -0.18,0.9 -0.48,2.31 -0.48,2.31 l 11.01,0 c 0.12,4.26 0.33,8.55 0.33,8.55 l 1.32,0 c 0,0 -0.12,-4.29 -0.12,-8.55 l 3,0"
         style="font-weight:300;font-family:Springsteel;-inkscape-font-specification:Springsteel Light"
         id="path3009" />
    </g>
  </g>
</svg>
