<?xml version="1.0" encoding="UTF-8" standalone="no"?>
<!-- Created with Inkscape (http://www.inkscape.org/) -->

<svg
   xmlns:dc="http://purl.org/dc/elements/1.1/"
   xmlns:cc="http://creativecommons.org/ns#"
   xmlns:rdf="http://www.w3.org/1999/02/22-rdf-syntax-ns#"
   xmlns:svg="http://www.w3.org/2000/svg"
   xmlns="http://www.w3.org/2000/svg"
   xmlns:xlink="http://www.w3.org/1999/xlink"
   xmlns:sodipodi="http://sodipodi.sourceforge.net/DTD/sodipodi-0.dtd"
   xmlns:inkscape="http://www.inkscape.org/namespaces/inkscape"
   width="48.000000px"
   height="48.000000px"
   id="svg249"
   sodipodi:version="0.32"
   inkscape:version="0.47 r22583"
   sodipodi:docname="discard-scan.svg"
   inkscape:export-filename="/home/nathaniel/workspace/Peakaboo_SwingGUI/src/peakaboo/ui/swing/icons/discard-scan22.png"
   inkscape:export-xdpi="43.419998"
   inkscape:export-ydpi="43.419998"
   inkscape:output_extension="org.inkscape.output.svg.inkscape"
   version="1.1">
  <defs
     id="defs3">
    <inkscape:perspective
       sodipodi:type="inkscape:persp3d"
       inkscape:vp_x="0 : 24 : 1"
       inkscape:vp_y="0 : 1000 : 0"
       inkscape:vp_z="48 : 24 : 1"
       inkscape:persp3d-origin="24 : 16 : 1"
       id="perspective108" />
    <radialGradient
       inkscape:collect="always"
       xlink:href="#linearGradient5060"
       id="radialGradient6719"
       gradientUnits="userSpaceOnUse"
       gradientTransform="matrix(-2.774389,0,0,1.969706,112.7623,-872.8854)"
       cx="605.71429"
       cy="486.64789"
       fx="605.71429"
       fy="486.64789"
       r="117.14286" />
    <linearGradient
       inkscape:collect="always"
       id="linearGradient5060">
      <stop
         style="stop-color:black;stop-opacity:1;"
         offset="0"
         id="stop5062" />
      <stop
         style="stop-color:black;stop-opacity:0;"
         offset="1"
         id="stop5064" />
    </linearGradient>
    <radialGradient
       inkscape:collect="always"
       xlink:href="#linearGradient5060"
       id="radialGradient6717"
       gradientUnits="userSpaceOnUse"
       gradientTransform="matrix(2.774389,0,0,1.969706,-1891.633,-872.8854)"
       cx="605.71429"
       cy="486.64789"
       fx="605.71429"
       fy="486.64789"
       r="117.14286" />
    <linearGradient
       id="linearGradient5048">
      <stop
         style="stop-color:black;stop-opacity:0;"
         offset="0"
         id="stop5050" />
      <stop
         id="stop5056"
         offset="0.5"
         style="stop-color:black;stop-opacity:1;" />
      <stop
         style="stop-color:black;stop-opacity:0;"
         offset="1"
         id="stop5052" />
    </linearGradient>
    <linearGradient
       inkscape:collect="always"
       xlink:href="#linearGradient5048"
       id="linearGradient6715"
       gradientUnits="userSpaceOnUse"
       gradientTransform="matrix(2.774389,0,0,1.969706,-1892.179,-872.8854)"
       x1="302.85715"
       y1="366.64789"
       x2="302.85715"
       y2="609.50507" />
    <linearGradient
       inkscape:collect="always"
       id="linearGradient5853">
      <stop
         style="stop-color:#000000;stop-opacity:1;"
         offset="0"
         id="stop5855" />
      <stop
         style="stop-color:#000000;stop-opacity:0;"
         offset="1"
         id="stop5857" />
    </linearGradient>
    <linearGradient
       id="linearGradient3531">
      <stop
         id="stop3533"
         offset="0.0000000"
         style="stop-color:#000000;stop-opacity:0.092783503;" />
      <stop
         id="stop3535"
         offset="1.0000000"
         style="stop-color:#000000;stop-opacity:0.0000000;" />
    </linearGradient>
    <linearGradient
       id="linearGradient3519">
      <stop
         style="stop-color:#ffffff;stop-opacity:1.0000000;"
         offset="0.0000000"
         id="stop3521" />
      <stop
         style="stop-color:#ffffff;stop-opacity:0.0000000;"
         offset="1.0000000"
         id="stop3523" />
    </linearGradient>
    <linearGradient
       id="linearGradient15662">
      <stop
         style="stop-color:#ffffff;stop-opacity:1.0000000;"
         offset="0.0000000"
         id="stop15664" />
      <stop
         style="stop-color:#f8f8f8;stop-opacity:1.0000000;"
         offset="1.0000000"
         id="stop15666" />
    </linearGradient>
    <linearGradient
       id="linearGradient269">
      <stop
         style="stop-color:#a3a3a3;stop-opacity:1.0000000;"
         offset="0.0000000"
         id="stop270" />
      <stop
         style="stop-color:#4c4c4c;stop-opacity:1.0000000;"
         offset="1.0000000"
         id="stop271" />
    </linearGradient>
    <linearGradient
       id="linearGradient259">
      <stop
         style="stop-color:#fafafa;stop-opacity:1.0000000;"
         offset="0.0000000"
         id="stop260" />
      <stop
         style="stop-color:#bbbbbb;stop-opacity:1.0000000;"
         offset="1.0000000"
         id="stop261" />
    </linearGradient>
    <radialGradient
       r="37.751713"
       fy="3.7561285"
       fx="8.8244190"
       cy="3.7561285"
       cx="8.8244190"
       gradientTransform="matrix(0.968273,0.000000,0.000000,1.032767,3.353553,0.646447)"
       gradientUnits="userSpaceOnUse"
       id="radialGradient15656"
       xlink:href="#linearGradient269"
       inkscape:collect="always" />
    <radialGradient
       r="86.708450"
       fy="35.736916"
       fx="33.966679"
       cy="35.736916"
       cx="33.966679"
       gradientTransform="scale(0.960493,1.041132)"
       gradientUnits="userSpaceOnUse"
       id="radialGradient15658"
       xlink:href="#linearGradient259"
       inkscape:collect="always" />
    <radialGradient
       r="38.158695"
       fy="7.2678967"
       fx="8.1435566"
       cy="7.2678967"
       cx="8.1435566"
       gradientTransform="matrix(0.968273,0.000000,0.000000,1.032767,3.353553,0.646447)"
       gradientUnits="userSpaceOnUse"
       id="radialGradient15668"
       xlink:href="#linearGradient15662"
       inkscape:collect="always" />
    <linearGradient
       inkscape:collect="always"
       xlink:href="#linearGradient3519"
       id="linearGradient3525"
       gradientTransform="scale(0.668545,1.495785)"
       x1="57.643562"
       y1="8.6012535"
       x2="34.242393"
       y2="21.033955"
       gradientUnits="userSpaceOnUse" />
    <linearGradient
       inkscape:collect="always"
       xlink:href="#linearGradient3531"
       id="linearGradient3529"
       gradientUnits="userSpaceOnUse"
       gradientTransform="matrix(-0.668545,0.000000,0.000000,1.495785,47.90649,0.000000)"
       x1="57.643562"
       y1="8.6012535"
       x2="39.081673"
       y2="20.923300" />
    <radialGradient
       inkscape:collect="always"
       xlink:href="#linearGradient5853"
       id="radialGradient5859"
       cx="24.875"
       cy="41.625"
       fx="24.875"
       fy="41.625"
       r="16.625"
       gradientTransform="matrix(0.834586,-4.742171e-18,1.889736e-18,0.332579,4.114662,27.78137)"
       gradientUnits="userSpaceOnUse" />
    <clipPath
       id="clipPath3204"
       clipPathUnits="userSpaceOnUse">
      <path
         id="path3206"
         d="M 11.65625,0.34375 C 11.397943,0.34374991 11.133813,0.45993703 10.9375,0.65625 L 8,3.59375 L 5.0625,0.65625 C 4.8175256,0.4112756 4.5421483,0.37499998 4.34375,0.375 C 4.1453518,0.37500002 3.8636191,0.44888119 3.65625,0.65625 L 0.65625,3.65625 C 0.26362291,4.0488771 0.26362304,4.6698728 0.65625,5.0625 L 3.59375,8 L 0.65625,10.9375 C 0.26362395,11.330127 0.263624,11.951123 0.65625,12.34375 L 3.65625,15.34375 C 4.0488769,15.736378 4.669873,15.736378 5.0625,15.34375 L 8,12.40625 L 10.9375,15.34375 C 11.330127,15.736377 11.951123,15.736377 12.34375,15.34375 L 15.34375,12.34375 C 15.736377,11.951123 15.736379,11.330127 15.34375,10.9375 L 12.40625,8 L 15.34375,5.0625 C 15.736378,4.6698724 15.736376,4.0488769 15.34375,3.65625 L 12.34375,0.65625 C 12.147437,0.45993695 11.914557,0.34375009 11.65625,0.34375 z"
         style="opacity:1;fill:#e09292;fill-opacity:1;stroke:none;stroke-width:2;stroke-linecap:butt;stroke-linejoin:round;stroke-miterlimit:4;stroke-dasharray:none;stroke-dashoffset:0;stroke-opacity:1" />
    </clipPath>
    <inkscape:perspective
       id="perspective10"
       inkscape:persp3d-origin="372.04724 : 350.78739 : 1"
       inkscape:vp_z="744.09448 : 526.18109 : 1"
       inkscape:vp_y="0 : 1000 : 0"
       inkscape:vp_x="0 : 526.18109 : 1"
       sodipodi:type="inkscape:persp3d" />
    <linearGradient
       gradientTransform="matrix(1.0416848,0,0,1.0525207,-6.2233339,-25.284917)"
       y2="443.56918"
       x2="69.626221"
       y1="471.97302"
       x1="69.626221"
       gradientUnits="userSpaceOnUse"
       id="linearGradient3188"
       xlink:href="#linearGradient3463"
       inkscape:collect="always" />
    <linearGradient
       y2="443.56918"
       x2="69.626221"
       y1="471.97302"
       x1="69.626221"
       gradientUnits="userSpaceOnUse"
       id="linearGradient3185"
       xlink:href="#linearGradient3463"
       inkscape:collect="always" />
    <linearGradient
       gradientUnits="userSpaceOnUse"
       y2="443.56918"
       x2="69.626221"
       y1="471.97302"
       x1="69.626221"
       id="linearGradient3469"
       xlink:href="#linearGradient3463"
       inkscape:collect="always" />
    <linearGradient
       gradientUnits="userSpaceOnUse"
       y2="444.94653"
       x2="55.409981"
       y1="72.64727"
       x1="55.409981"
       id="linearGradient3453"
       xlink:href="#linearGradient3447"
       inkscape:collect="always" />
    <linearGradient
       y2="82.026207"
       x2="65.752502"
       y1="435.4863"
       x1="65.752502"
       gradientUnits="userSpaceOnUse"
       id="linearGradient3445"
       xlink:href="#linearGradient3409"
       inkscape:collect="always" />
    <linearGradient
       y2="57.535431"
       x2="54.5"
       y1="442.16458"
       x1="54.5"
       gradientTransform="matrix(0.9188206,0,0,0.9188206,20.388147,29.221142)"
       gradientUnits="userSpaceOnUse"
       id="linearGradient3443"
       xlink:href="#linearGradient3168"
       inkscape:collect="always" />
    <linearGradient
       id="linearGradient3168">
      <stop
         id="stop3170"
         offset="0"
         style="stop-color:#448605;stop-opacity:1;" />
      <stop
         id="stop3172"
         offset="1"
         style="stop-color:#66cb07;stop-opacity:1;" />
    </linearGradient>
    <linearGradient
       id="linearGradient3409">
      <stop
         id="stop3411"
         offset="0"
         style="stop-color:#438604;stop-opacity:1;" />
      <stop
         id="stop3413"
         offset="1"
         style="stop-color:#99f244;stop-opacity:1;" />
    </linearGradient>
    <linearGradient
       id="linearGradient3447">
      <stop
         id="stop3449"
         offset="0"
         style="stop-color:#56ae06;stop-opacity:1;" />
      <stop
         id="stop3451"
         offset="1"
         style="stop-color:#316103;stop-opacity:1;" />
    </linearGradient>
    <linearGradient
       id="linearGradient3463">
      <stop
         id="stop3465"
         offset="0"
         style="stop-color:#bebebe;stop-opacity:1;" />
      <stop
         style="stop-color:#7b7b7b;stop-opacity:1;"
         offset="0.89999998"
         id="stop3197" />
      <stop
         id="stop3467"
         offset="1"
         style="stop-color:#7b7b7b;stop-opacity:1;" />
    </linearGradient>
    <inkscape:perspective
       id="perspective3623"
       inkscape:persp3d-origin="256 : 170.66667 : 1"
       inkscape:vp_z="512 : 256 : 1"
       inkscape:vp_y="0 : 1000 : 0"
       inkscape:vp_x="0 : 256 : 1"
       sodipodi:type="inkscape:persp3d" />
    <inkscape:perspective
       id="perspective4455"
       inkscape:persp3d-origin="0.5 : 0.33333333 : 1"
       inkscape:vp_z="1 : 0.5 : 1"
       inkscape:vp_y="0 : 1000 : 0"
       inkscape:vp_x="0 : 0.5 : 1"
       sodipodi:type="inkscape:persp3d" />
    <clipPath
       id="clipPath3204-2"
       clipPathUnits="userSpaceOnUse">
      <path
         id="path3206-9"
         d="M 11.65625,0.34375 C 11.397943,0.34374991 11.133813,0.45993703 10.9375,0.65625 L 8,3.59375 L 5.0625,0.65625 C 4.8175256,0.4112756 4.5421483,0.37499998 4.34375,0.375 C 4.1453518,0.37500002 3.8636191,0.44888119 3.65625,0.65625 L 0.65625,3.65625 C 0.26362291,4.0488771 0.26362304,4.6698728 0.65625,5.0625 L 3.59375,8 L 0.65625,10.9375 C 0.26362395,11.330127 0.263624,11.951123 0.65625,12.34375 L 3.65625,15.34375 C 4.0488769,15.736378 4.669873,15.736378 5.0625,15.34375 L 8,12.40625 L 10.9375,15.34375 C 11.330127,15.736377 11.951123,15.736377 12.34375,15.34375 L 15.34375,12.34375 C 15.736377,11.951123 15.736379,11.330127 15.34375,10.9375 L 12.40625,8 L 15.34375,5.0625 C 15.736378,4.6698724 15.736376,4.0488769 15.34375,3.65625 L 12.34375,0.65625 C 12.147437,0.45993695 11.914557,0.34375009 11.65625,0.34375 z"
         style="opacity:1;fill:#e09292;fill-opacity:1;stroke:none;stroke-width:2;stroke-linecap:butt;stroke-linejoin:round;stroke-miterlimit:4;stroke-dasharray:none;stroke-dashoffset:0;stroke-opacity:1" />
    </clipPath>
    <inkscape:perspective
       id="perspective10-5"
       inkscape:persp3d-origin="372.04724 : 350.78739 : 1"
       inkscape:vp_z="744.09448 : 526.18109 : 1"
       inkscape:vp_y="0 : 1000 : 0"
       inkscape:vp_x="0 : 526.18109 : 1"
       sodipodi:type="inkscape:persp3d" />
    <clipPath
       id="clipPath3204-29"
       clipPathUnits="userSpaceOnUse">
      <path
         id="path3206-7"
         d="M 11.65625,0.34375 C 11.397943,0.34374991 11.133813,0.45993703 10.9375,0.65625 L 8,3.59375 L 5.0625,0.65625 C 4.8175256,0.4112756 4.5421483,0.37499998 4.34375,0.375 C 4.1453518,0.37500002 3.8636191,0.44888119 3.65625,0.65625 L 0.65625,3.65625 C 0.26362291,4.0488771 0.26362304,4.6698728 0.65625,5.0625 L 3.59375,8 L 0.65625,10.9375 C 0.26362395,11.330127 0.263624,11.951123 0.65625,12.34375 L 3.65625,15.34375 C 4.0488769,15.736378 4.669873,15.736378 5.0625,15.34375 L 8,12.40625 L 10.9375,15.34375 C 11.330127,15.736377 11.951123,15.736377 12.34375,15.34375 L 15.34375,12.34375 C 15.736377,11.951123 15.736379,11.330127 15.34375,10.9375 L 12.40625,8 L 15.34375,5.0625 C 15.736378,4.6698724 15.736376,4.0488769 15.34375,3.65625 L 12.34375,0.65625 C 12.147437,0.45993695 11.914557,0.34375009 11.65625,0.34375 z"
         style="opacity:1;fill:#e09292;fill-opacity:1;stroke:none;stroke-width:2;stroke-linecap:butt;stroke-linejoin:round;stroke-miterlimit:4;stroke-dasharray:none;stroke-dashoffset:0;stroke-opacity:1" />
    </clipPath>
    <inkscape:perspective
       id="perspective10-6"
       inkscape:persp3d-origin="372.04724 : 350.78739 : 1"
       inkscape:vp_z="744.09448 : 526.18109 : 1"
       inkscape:vp_y="0 : 1000 : 0"
       inkscape:vp_x="0 : 526.18109 : 1"
       sodipodi:type="inkscape:persp3d" />
    <linearGradient
       gradientTransform="matrix(0.70710678,0.70710678,-0.70710678,0.70710678,-29.999359,-10.747609)"
       gradientUnits="userSpaceOnUse"
       y2="35.05225"
       x2="24.30225"
       y1="15.80225"
       x1="21.75"
       id="linearGradient2262"
       xlink:href="#linearGradient2256"
       inkscape:collect="always" />
    <radialGradient
       gradientUnits="userSpaceOnUse"
       gradientTransform="matrix(4.154957,0,0,3.198723,-52.84553,-23.50921)"
       r="21.25"
       fy="10.666344"
       fx="16.75"
       cy="10.666344"
       cx="16.75"
       id="radialGradient2254"
       xlink:href="#linearGradient2248"
       inkscape:collect="always" />
    <linearGradient
       gradientTransform="matrix(0.988373,0.000000,0.000000,0.988373,0.279002,0.278984)"
       y2="37.959785"
       x2="41.047836"
       y1="20.105337"
       x1="23.995985"
       gradientUnits="userSpaceOnUse"
       id="linearGradient2243"
       xlink:href="#linearGradient4981"
       inkscape:collect="always" />
    <radialGradient
       gradientTransform="matrix(1.1978255,1.1978255,-1.1978255,1.1978255,-25.582897,-39.015193)"
       gradientUnits="userSpaceOnUse"
       r="12.30225"
       fy="33.30225"
       fx="24.30225"
       cy="33.30225"
       cx="24.30225"
       id="radialGradient2239"
       xlink:href="#linearGradient9647"
       inkscape:collect="always" />
    <linearGradient
       gradientUnits="userSpaceOnUse"
       y2="28.394291"
       x2="32.166405"
       y1="16.285088"
       x1="15.578875"
       id="linearGradient7901"
       xlink:href="#linearGradient7895"
       inkscape:collect="always" />
    <linearGradient
       gradientTransform="translate(0,-2)"
       gradientUnits="userSpaceOnUse"
       y2="37.959785"
       x2="41.047836"
       y1="20.105337"
       x1="23.995985"
       id="linearGradient4987"
       xlink:href="#linearGradient4981"
       inkscape:collect="always" />
    <linearGradient
       gradientTransform="translate(0,-2)"
       gradientUnits="userSpaceOnUse"
       y2="47.374317"
       x2="53.570126"
       y1="12.503600"
       x1="15.737001"
       id="linearGradient2057"
       xlink:href="#linearGradient11780"
       inkscape:collect="always" />
    <linearGradient
       inkscape:collect="always"
       xlink:href="#linearGradient15762"
       id="linearGradient15772"
       gradientUnits="userSpaceOnUse"
       gradientTransform="matrix(-1.000000,0.000000,0.000000,-1.000000,31.72170,31.29079)"
       x1="5.7365270"
       y1="5.3855424"
       x2="9.8940229"
       y2="9.6507530" />
    <linearGradient
       id="linearGradient11014">
      <stop
         id="stop11016"
         offset="0.0000000"
         style="stop-color:#a80000;stop-opacity:1.0000000;" />
      <stop
         id="stop13245"
         offset="0.0000000"
         style="stop-color:#c60000;stop-opacity:1.0000000;" />
      <stop
         id="stop11018"
         offset="1.0000000"
         style="stop-color:#e50000;stop-opacity:1.0000000;" />
    </linearGradient>
    <linearGradient
       id="linearGradient11780">
      <stop
         id="stop11782"
         offset="0.0000000"
         style="stop-color:#ff8b8b;stop-opacity:1.0000000;" />
      <stop
         id="stop11784"
         offset="1.0000000"
         style="stop-color:#ec1b1b;stop-opacity:1.0000000;" />
    </linearGradient>
    <linearGradient
       id="linearGradient14236">
      <stop
         style="stop-color:#ed4040;stop-opacity:1.0000000;"
         offset="0.0000000"
         id="stop14238" />
      <stop
         style="stop-color:#a40000;stop-opacity:1.0000000;"
         offset="1.0000000"
         id="stop14240" />
    </linearGradient>
    <linearGradient
       inkscape:collect="always"
       id="linearGradient15762">
      <stop
         style="stop-color:#ffffff;stop-opacity:1;"
         offset="0"
         id="stop15764" />
      <stop
         style="stop-color:#ffffff;stop-opacity:0;"
         offset="1"
         id="stop15766" />
    </linearGradient>
    <linearGradient
       id="linearGradient4981">
      <stop
         id="stop4983"
         offset="0"
         style="stop-color:#cc0000;stop-opacity:1;" />
      <stop
         id="stop4985"
         offset="1.0000000"
         style="stop-color:#b30000;stop-opacity:1.0000000;" />
    </linearGradient>
    <linearGradient
       id="linearGradient7895"
       inkscape:collect="always">
      <stop
         id="stop7897"
         offset="0"
         style="stop-color:#ffffff;stop-opacity:1;" />
      <stop
         id="stop7899"
         offset="1"
         style="stop-color:#ffffff;stop-opacity:0;" />
    </linearGradient>
    <radialGradient
       gradientUnits="userSpaceOnUse"
       gradientTransform="matrix(1,0,0,0.595238,0,14.875)"
       r="15.75"
       fy="36.75"
       fx="25.125"
       cy="36.75"
       cx="25.125"
       id="radialGradient21650"
       xlink:href="#linearGradient21644"
       inkscape:collect="always" />
    <linearGradient
       id="linearGradient21644"
       inkscape:collect="always">
      <stop
         id="stop21646"
         offset="0"
         style="stop-color:#000000;stop-opacity:1;" />
      <stop
         id="stop21648"
         offset="1"
         style="stop-color:#000000;stop-opacity:0;" />
    </linearGradient>
    <linearGradient
       id="linearGradient9647">
      <stop
         id="stop9649"
         offset="0"
         style="stop-color:#ffffff;stop-opacity:1;" />
      <stop
         id="stop9651"
         offset="1"
         style="stop-color:#dbdbdb;stop-opacity:1;" />
    </linearGradient>
    <linearGradient
       id="linearGradient2248"
       inkscape:collect="always">
      <stop
         id="stop2250"
         offset="0"
         style="stop-color:#ffffff;stop-opacity:1;" />
      <stop
         id="stop2252"
         offset="1"
         style="stop-color:#ffffff;stop-opacity:0;" />
    </linearGradient>
    <linearGradient
       id="linearGradient2256">
      <stop
         id="stop2258"
         offset="0"
         style="stop-color:#ff0202;stop-opacity:1;" />
      <stop
         id="stop2260"
         offset="1"
         style="stop-color:#ff9b9b;stop-opacity:1;" />
    </linearGradient>
    <inkscape:perspective
       id="perspective52"
       inkscape:persp3d-origin="24 : 16 : 1"
       inkscape:vp_z="48 : 24 : 1"
       inkscape:vp_y="0 : 1000 : 0"
       inkscape:vp_x="0 : 24 : 1"
       sodipodi:type="inkscape:persp3d" />
    <radialGradient
       inkscape:collect="always"
       xlink:href="#linearGradient21644"
       id="radialGradient4647"
       gradientUnits="userSpaceOnUse"
       gradientTransform="matrix(1,0,0,0.595238,0,14.875)"
       cx="25.125"
       cy="36.75"
       fx="25.125"
       fy="36.75"
       r="15.75" />
    <linearGradient
       inkscape:collect="always"
       xlink:href="#linearGradient4981"
       id="linearGradient4649"
       gradientUnits="userSpaceOnUse"
       gradientTransform="translate(0,-2)"
       x1="23.995985"
       y1="20.105337"
       x2="41.047836"
       y2="37.959785" />
    <linearGradient
       inkscape:collect="always"
       xlink:href="#linearGradient11780"
       id="linearGradient4651"
       gradientUnits="userSpaceOnUse"
       gradientTransform="translate(0,-2)"
       x1="15.737001"
       y1="12.503600"
       x2="53.570126"
       y2="47.374317" />
    <radialGradient
       inkscape:collect="always"
       xlink:href="#linearGradient2248"
       id="radialGradient4653"
       gradientUnits="userSpaceOnUse"
       gradientTransform="matrix(4.154957,0,0,3.198723,-52.84553,-23.50921)"
       cx="16.75"
       cy="10.666344"
       fx="16.75"
       fy="10.666344"
       r="21.25" />
    <linearGradient
       gradientUnits="userSpaceOnUse"
       y2="43.31715"
       x2="65.862885"
       y1="9.9124937"
       x1="44.592766"
       id="linearGradient3088"
       xlink:href="#linearGradient3082"
       inkscape:collect="always" />
    <linearGradient
       y2="248.6311"
       x2="153.0005"
       y1="15.4238"
       x1="99.7773"
       gradientTransform="matrix(0.200685,0,0,0.200685,25.33302,3.157373)"
       gradientUnits="userSpaceOnUse"
       id="linearGradient2193"
       xlink:href="#aigrd1"
       inkscape:collect="always" />
    <radialGradient
       gradientUnits="userSpaceOnUse"
       gradientTransform="matrix(1.000000,0.000000,0.000000,0.284916,0.000000,30.08928)"
       r="15.821514"
       fy="42.07798"
       fx="24.306795"
       cy="42.07798"
       cx="24.306795"
       id="radialGradient4548"
       xlink:href="#linearGradient4542"
       inkscape:collect="always" />
    <radialGradient
       inkscape:collect="always"
       xlink:href="#aigrd3"
       id="radialGradient2285"
       gradientUnits="userSpaceOnUse"
       gradientTransform="matrix(0.229703,0,0,0.229703,4.613529,3.979808)"
       cx="20.8921"
       cy="64.5679"
       fx="20.8921"
       fy="64.5679"
       r="5.257" />
    <radialGradient
       inkscape:collect="always"
       xlink:href="#aigrd2"
       id="radialGradient2283"
       gradientUnits="userSpaceOnUse"
       gradientTransform="matrix(0.229703,0,0,0.229703,4.613529,3.979808)"
       cx="20.8921"
       cy="114.5684"
       fx="20.8921"
       fy="114.5684"
       r="5.256" />
    <radialGradient
       r="38.158695"
       fy="7.2678967"
       fx="8.1435566"
       cy="7.2678967"
       cx="8.1435566"
       gradientTransform="matrix(0.968273,0,0,1.032767,3.353553,0.646447)"
       gradientUnits="userSpaceOnUse"
       id="radialGradient15668-0"
       xlink:href="#linearGradient15662-4"
       inkscape:collect="always" />
    <radialGradient
       r="86.708450"
       fy="35.736916"
       fx="33.966679"
       cy="35.736916"
       cx="33.966679"
       gradientTransform="scale(0.960493,1.041132)"
       gradientUnits="userSpaceOnUse"
       id="radialGradient15658-9"
       xlink:href="#linearGradient259-3"
       inkscape:collect="always" />
    <radialGradient
       r="37.751713"
       fy="3.7561285"
       fx="8.8244190"
       cy="3.7561285"
       cx="8.8244190"
       gradientTransform="matrix(0.968273,0,0,1.032767,3.353553,0.646447)"
       gradientUnits="userSpaceOnUse"
       id="radialGradient15656-2"
       xlink:href="#linearGradient269-0"
       inkscape:collect="always" />
    <linearGradient
       id="linearGradient259-3">
      <stop
         style="stop-color:#fafafa;stop-opacity:1.0000000;"
         offset="0.0000000"
         id="stop260-6" />
      <stop
         style="stop-color:#bbbbbb;stop-opacity:1.0000000;"
         offset="1.0000000"
         id="stop261-9" />
    </linearGradient>
    <linearGradient
       id="linearGradient269-0">
      <stop
         style="stop-color:#a3a3a3;stop-opacity:1.0000000;"
         offset="0.0000000"
         id="stop270-1" />
      <stop
         style="stop-color:#4c4c4c;stop-opacity:1.0000000;"
         offset="1.0000000"
         id="stop271-7" />
    </linearGradient>
    <radialGradient
       gradientUnits="userSpaceOnUse"
       fy="114.5684"
       fx="20.8921"
       r="5.256"
       cy="114.5684"
       cx="20.8921"
       id="aigrd2">
      <stop
         id="stop15566"
         style="stop-color:#F0F0F0"
         offset="0" />
      <stop
         id="stop15568"
         style="stop-color:#9a9a9a;stop-opacity:1.0000000;"
         offset="1.0000000" />
    </radialGradient>
    <radialGradient
       gradientUnits="userSpaceOnUse"
       fy="64.5679"
       fx="20.8921"
       r="5.257"
       cy="64.5679"
       cx="20.8921"
       id="aigrd3">
      <stop
         id="stop15573"
         style="stop-color:#F0F0F0"
         offset="0" />
      <stop
         id="stop15575"
         style="stop-color:#9a9a9a;stop-opacity:1.0000000;"
         offset="1.0000000" />
    </radialGradient>
    <linearGradient
       id="linearGradient15662-4">
      <stop
         style="stop-color:#ffffff;stop-opacity:1.0000000;"
         offset="0.0000000"
         id="stop15664-5" />
      <stop
         style="stop-color:#f8f8f8;stop-opacity:1.0000000;"
         offset="1.0000000"
         id="stop15666-7" />
    </linearGradient>
    <linearGradient
       id="linearGradient4542"
       inkscape:collect="always">
      <stop
         id="stop4544"
         offset="0"
         style="stop-color:#000000;stop-opacity:1;" />
      <stop
         id="stop4546"
         offset="1"
         style="stop-color:#000000;stop-opacity:0;" />
    </linearGradient>
    <linearGradient
       y2="248.6311"
       x2="153.0005"
       y1="15.4238"
       x1="99.7773"
       gradientUnits="userSpaceOnUse"
       id="aigrd1">
      <stop
         id="stop53300"
         style="stop-color:#464646;stop-opacity:1"
         offset="0" />
      <stop
         id="stop53302"
         style="stop-color:#cdcdcd;stop-opacity:1"
         offset="1" />
    </linearGradient>
    <linearGradient
       id="linearGradient3082"
       inkscape:collect="always">
      <stop
         id="stop3084"
         offset="0"
         style="stop-color:#ffffff;stop-opacity:1;" />
      <stop
         id="stop3086"
         offset="1"
         style="stop-color:#ffffff;stop-opacity:0;" />
    </linearGradient>
    <linearGradient
       y2="609.50507"
       x2="302.85715"
       y1="366.64789"
       x1="302.85715"
       gradientTransform="matrix(2.774389,0,0,1.969706,-1892.179,-872.8854)"
       gradientUnits="userSpaceOnUse"
       id="linearGradient6715-4"
       xlink:href="#linearGradient5048-9"
       inkscape:collect="always" />
    <linearGradient
       id="linearGradient5048-9">
      <stop
         id="stop5050-0"
         offset="0"
         style="stop-color:black;stop-opacity:0;" />
      <stop
         style="stop-color:black;stop-opacity:1;"
         offset="0.5"
         id="stop5056-4" />
      <stop
         id="stop5052-8"
         offset="1"
         style="stop-color:black;stop-opacity:0;" />
    </linearGradient>
    <radialGradient
       r="117.14286"
       fy="486.64789"
       fx="605.71429"
       cy="486.64789"
       cx="605.71429"
       gradientTransform="matrix(2.774389,0,0,1.969706,-1891.633,-872.8854)"
       gradientUnits="userSpaceOnUse"
       id="radialGradient6717-7"
       xlink:href="#linearGradient5060-8"
       inkscape:collect="always" />
    <linearGradient
       id="linearGradient5060-8"
       inkscape:collect="always">
      <stop
         id="stop5062-7"
         offset="0"
         style="stop-color:black;stop-opacity:1;" />
      <stop
         id="stop5064-7"
         offset="1"
         style="stop-color:black;stop-opacity:0;" />
    </linearGradient>
    <radialGradient
       r="117.14286"
       fy="486.64789"
       fx="605.71429"
       cy="486.64789"
       cx="605.71429"
       gradientTransform="matrix(-2.774389,0,0,1.969706,112.7623,-872.8854)"
       gradientUnits="userSpaceOnUse"
       id="radialGradient6719-5"
       xlink:href="#linearGradient5060-8"
       inkscape:collect="always" />
    <inkscape:perspective
       id="perspective76"
       inkscape:persp3d-origin="24 : 16 : 1"
       inkscape:vp_z="48 : 24 : 1"
       inkscape:vp_y="0 : 1000 : 0"
       inkscape:vp_x="0 : 24 : 1"
       sodipodi:type="inkscape:persp3d" />
  </defs>
  <sodipodi:namedview
     id="base"
     pagecolor="#ffffff"
     bordercolor="#666666"
     borderopacity="0.21568627"
     inkscape:pageopacity="0.0"
     inkscape:pageshadow="2"
     inkscape:zoom="4"
     inkscape:cx="49.308846"
     inkscape:cy="50.910685"
     inkscape:current-layer="layer5"
     showgrid="false"
     inkscape:grid-bbox="true"
     inkscape:document-units="px"
     inkscape:window-width="1680"
     inkscape:window-height="915"
     inkscape:window-x="0"
     inkscape:window-y="24"
     inkscape:showpageshadow="false"
     inkscape:window-maximized="1" />
  <metadata
     id="metadata4">
    <rdf:RDF>
      <cc:Work
         rdf:about="">
        <dc:format>image/svg+xml</dc:format>
        <dc:type
           rdf:resource="http://purl.org/dc/dcmitype/StillImage" />
        <dc:title></dc:title>
        <dc:subject>
          <rdf:Bag>
            <rdf:li>template</rdf:li>
          </rdf:Bag>
        </dc:subject>
        <dc:creator>
          <cc:Agent>
            <dc:title>Jakub Steiner</dc:title>
          </cc:Agent>
        </dc:creator>
        <dc:source>http://jimmac.musichall.cz</dc:source>
        <cc:license
           rdf:resource="http://creativecommons.org/licenses/publicdomain/" />
      </cc:Work>
      <cc:License
         rdf:about="http://creativecommons.org/licenses/publicdomain/">
        <cc:permits
           rdf:resource="http://creativecommons.org/ns#Reproduction" />
        <cc:permits
           rdf:resource="http://creativecommons.org/ns#Distribution" />
        <cc:permits
           rdf:resource="http://creativecommons.org/ns#DerivativeWorks" />
      </cc:License>
    </rdf:RDF>
  </metadata>
  <g
     inkscape:label="Shadow"
     id="layer6"
     inkscape:groupmode="layer">
    <g
       style="display:inline"
       transform="matrix(0.02105461,0,0,0.02086758,42.498167,41.507153)"
       id="g6707">
      <rect
         style="opacity:0.40206185;color:#000000;fill:url(#linearGradient6715);fill-opacity:1;fill-rule:nonzero;stroke:none;stroke-width:1;marker:none;visibility:visible;display:inline;overflow:visible"
         id="rect6709"
         width="1339.6335"
         height="478.35718"
         x="-1559.2523"
         y="-150.69685" />
      <path
         style="opacity:0.40206185;color:#000000;fill:url(#radialGradient6717);fill-opacity:1;fill-rule:nonzero;stroke:none;stroke-width:1;marker:none;visibility:visible;display:inline;overflow:visible"
         d="m -219.61876,-150.68038 c 0,0 0,478.33079 0,478.33079 142.874166,0.90045 345.40022,-107.16966 345.40014,-239.196175 0,-132.026537 -159.436816,-239.134595 -345.40014,-239.134615 z"
         id="path6711"
         sodipodi:nodetypes="cccc" />
      <path
         sodipodi:nodetypes="cccc"
         id="path6713"
         d="m -1559.2523,-150.68038 c 0,0 0,478.33079 0,478.33079 -142.8742,0.90045 -345.4002,-107.16966 -345.4002,-239.196175 0,-132.026537 159.4368,-239.134595 345.4002,-239.134615 z"
         style="opacity:0.40206185;color:#000000;fill:url(#radialGradient6719);fill-opacity:1;fill-rule:nonzero;stroke:none;stroke-width:1;marker:none;visibility:visible;display:inline;overflow:visible" />
    </g>
  </g>
  <g
     id="layer1"
     inkscape:label="Base"
     inkscape:groupmode="layer"
     style="display:inline">
    <rect
       ry="1.1490486"
       y="3.6464462"
       x="6.6035528"
       height="40.920494"
       width="34.875000"
       id="rect15391"
       style="color:#000000;fill:url(#radialGradient15658);fill-opacity:1.0000000;fill-rule:nonzero;stroke:url(#radialGradient15656);stroke-width:1.0000000;stroke-linecap:round;stroke-linejoin:round;stroke-miterlimit:4.0000000;stroke-dashoffset:0.0000000;stroke-opacity:1.0000000;marker:none;marker-start:none;marker-mid:none;marker-end:none;visibility:visible;display:block;overflow:visible" />
    <rect
       rx="0.14904857"
       ry="0.14904857"
       y="4.5839462"
       x="7.6660538"
       height="38.946384"
       width="32.775887"
       id="rect15660"
       style="color:#000000;fill:none;fill-opacity:1.0000000;fill-rule:nonzero;stroke:url(#radialGradient15668);stroke-width:1.0000000;stroke-linecap:round;stroke-linejoin:round;stroke-miterlimit:4.0000000;stroke-dashoffset:0.0000000;stroke-opacity:1.0000000;marker:none;marker-start:none;marker-mid:none;marker-end:none;visibility:visible;display:block;overflow:visible" />
  </g>
  <g
     style="display:inline"
     inkscape:label="Text"
     id="layer5"
     inkscape:groupmode="layer">
    <g
       id="layer1-0"
       inkscape:label="Layer 1"
       transform="matrix(0.06577181,0,0,0.06577181,95.614844,6.4125225)">
      <g
         transform="translate(-2.1208423e-6,5.4154248e-7)"
         id="g3432">
        <g
           id="g3269"
           transform="matrix(0.9437344,0,0,1.1271501,-1329.8098,-22.678221)">
          <g
             id="g3427">
            <path
               id="path3361"
               d="m 137.21875,81.6875 c -4.46313,0 -7.20351,2.98714 -9.34375,6.09375 -2.14024,3.10661 -3.9893,7.084048 -5.875,12 -3.7714,9.8319 -7.49944,23.38291 -11.25,39.625 C 103.24888,171.89043 95.779858,214.94883 89.125,258 75.815284,344.10235 65.78125,430.15625 65.78125,430.15625 L 65.5,432.625 l 1.78125,1.78125 c 7e-5,7e-5 3.60317,1.49987 3.625,1.5 0.02183,1.3e-4 0.03737,-8e-5 0.0625,0 0.05025,1.5e-4 0.128336,-1.3e-4 0.21875,0 0.180829,2.7e-4 0.430159,-2.5e-4 0.78125,0 0.702181,5e-4 1.7687,-4.4e-4 3.125,0 2.712599,8.8e-4 6.688532,-6.6e-4 11.75,0 10.122937,10e-4 24.58605,0.0307 41.9375,0.0312 34.70289,10e-4 80.95063,8.6e-4 127.21875,0 46.26812,-8.6e-4 92.54945,-0.0297 127.25,-0.0312 17.35027,-7.9e-4 31.81649,7.3e-4 41.9375,0 5.06051,-3.7e-4 9.00764,3.2e-4 11.71875,0 1.35556,-1.6e-4 2.42436,1.5e-4 3.125,0 0.35032,-7e-5 0.60274,7e-5 0.78125,0 0.0893,-3e-5 0.14146,3e-5 0.1875,0 0.046,-3e-5 0.0625,0 0.0625,0 0,-3.25178 -0.2168,-6.77339 -0.28125,-10.125 0.0161,-0.0179 0.22061,-0.21875 0.21875,-0.21875 -0.0436,3e-5 -0.0989,-3e-5 -0.1875,0 -0.007,0 -0.0242,0 -0.0312,0 -0.68811,-35.03451 -4.75399,-74.51185 -13.96875,-103.0625 -5.05791,-15.67124 -10.33764,-29.26723 -14.78125,-39.46875 -2.2218,-5.10076 -4.22622,-9.34482 -5.9375,-12.625 -1.71128,-3.28018 -2.80875,-5.35838 -4.5,-7.21875 -2.53459,-2.78805 -5.75003,-4.07061 -8.78125,-5.03125 -3.03122,-0.96064 -6.19795,-1.75167 -10.125,-3.25 -7.85411,-2.99666 -18.90578,-8.87126 -35.125,-24.75 -15.61042,-15.28271 -22.96581,-32.42738 -28.84375,-46.4375 -2.93897,-7.00506 -5.42047,-13.22407 -8.84375,-18.21875 -3.42328,-4.99468 -8.66275,-9 -15.15625,-9 -5.96661,0 -10.95747,3.61964 -14.65625,8.375 -3.69878,4.75536 -6.62796,10.91999 -9.375,18.125 -5.49408,14.41001 -10.05421,33.02482 -15,51.5 -4.94579,18.47518 -10.28681,36.80429 -16.8125,50.03125 -3.26285,6.61348 -6.83265,11.90171 -10.46875,15.3125 -3.6361,3.41079 -7.08196,4.96875 -11.125,4.96875 -3.30987,0 -6.83076,-2.09331 -10.84375,-7.5 -4.01299,-5.40669 -7.99288,-13.74202 -11.65625,-23.9375 -7.32675,-20.39095 -13.51842,-48.14045 -19.125,-75.96875 -5.60658,-27.8283 -10.65338,-55.74852 -16.03125,-76.96875 -2.68894,-10.61011 -5.42211,-19.53648 -8.5625,-26.21875 -1.57019,-3.341134 -3.23162,-6.142544 -5.34375,-8.40625 -2.11213,-2.263706 -5.02793,-4.125 -8.5,-4.125 z m 0.34375,10.625 c 0.0923,0.04218 -0.004,-0.07844 0.59375,0.5625 0.93768,1.004977 2.26522,2.989591 3.5625,5.75 2.59455,5.52082 5.26226,14.03429 7.875,24.34375 5.22548,20.61893 10.30494,48.51151 15.9375,76.46875 5.63256,27.95724 11.79337,55.9893 19.5,77.4375 3.85332,10.7241 8.04929,19.79736 13.09375,26.59375 5.04446,6.79639 11.47309,11.6875 19.15625,11.6875 6.94999,0 13.17632,-3.08058 18.1875,-7.78125 5.01118,-4.70067 9.05871,-10.98937 12.65625,-18.28125 7.19509,-14.58377 12.5505,-33.33171 17.53125,-51.9375 4.98075,-18.60579 9.57823,-37.06804 14.6875,-50.46875 2.55464,-6.70036 5.29583,-12.11265 7.90625,-15.46875 2.61042,-3.3561 4.55976,-4.375 6.46875,-4.375 2.76636,0 4.21328,0.98122 6.625,4.5 2.41172,3.51878 4.89641,9.34999 7.84375,16.375 5.89469,14.05002 13.9006,32.98093 31.125,49.84375 17.00164,16.64474 29.57926,23.55609 38.6875,27.03125 4.55412,1.73758 8.20358,2.61906 10.6875,3.40625 2.48392,0.78719 3.50309,1.33464 4.25,2.15625 -0.0505,-0.0555 1.44516,2.05094 3,5.03125 1.55484,2.98031 3.4783,7.07167 5.625,12 4.29339,9.85666 9.45558,23.16104 14.40625,38.5 9.42465,29.20097 17.97028,65.75692 18.78125,99.875 -2.66679,2.9e-4 -6.00137,-3.3e-4 -10.5625,0 -10.12085,7.3e-4 -24.58728,0.0305 -41.9375,0.0312 -34.70043,0.002 -80.98199,-8.6e-4 -127.25,0 -46.26801,8.6e-4 -92.5162,10e-4 -127.21875,0 -17.35128,-5.8e-4 -31.815231,10e-4 -41.9375,0 -4.334275,-5.7e-4 -7.432514,-0.0305 -10.0625,-0.0312 1.000648,-8.51753 10.006579,-84.7428 22.5625,-165.96875 6.63523,-42.92418 14.08005,-85.84641 21.46875,-117.84375 3.69435,-15.99867 7.40097,-29.30605 10.84375,-38.28125 1.72139,-4.487602 3.41967,-7.912742 4.75,-9.84375 0.5711,-0.82897 0.92408,-1.106885 1.15625,-1.3125 z"
               style="fill:#484848;fill-opacity:1;fill-rule:evenodd;stroke:none" />
            <path
               sodipodi:nodetypes="cssssssc"
               id="path3194"
               d="m 70.92328,430.74574 c 0,0 40.03433,-343.901421 66.28635,-343.901421 26.25201,0 36.09652,223.142151 80.06864,223.142151 43.97214,0 45.94103,-148.3239 77.44346,-148.3239 18.51973,0 16.38771,40.04752 49.22253,72.19305 33.22088,32.52348 47.25363,25.59571 53.81664,32.81502 6.563,7.2193 43.31582,91.22576 43.31582,164.0751 0,0.004 -370.149433,0 -370.15344,0 z"
               style="fill:none;stroke:url(#linearGradient3453);stroke-width:31.02660179;stroke-linecap:square;stroke-linejoin:miter;stroke-miterlimit:4;stroke-opacity:1;stroke-dasharray:none" />
            <path
               style="fill:url(#linearGradient3443);fill-opacity:1;fill-rule:evenodd;stroke:url(#linearGradient3445);stroke-width:10.34155464;stroke-linecap:square;stroke-linejoin:miter;stroke-miterlimit:4;stroke-opacity:1;stroke-dasharray:none"
               d="m 70.92328,430.74574 c 0,0 40.03433,-343.901421 66.28635,-343.901421 26.25201,0 36.09652,223.142151 80.06864,223.142151 43.97214,0 45.94103,-148.3239 77.44346,-148.3239 18.51973,0 16.38771,40.04752 49.22253,72.19305 33.22088,32.52348 47.25363,25.59571 53.81664,32.81502 6.563,7.2193 43.31582,91.22576 43.31582,164.0751 0,0.004 -370.135595,0.0179 -370.15344,0 z"
               id="path2396"
               sodipodi:nodetypes="cssssssc" />
          </g>
        </g>
      </g>
    </g>
  </g>
</svg>
