<?xml version="1.0" encoding="UTF-8" standalone="no"?>
<!-- Created with Inkscape (http://www.inkscape.org/) -->

<svg
   xmlns:dc="http://purl.org/dc/elements/1.1/"
   xmlns:cc="http://creativecommons.org/ns#"
   xmlns:rdf="http://www.w3.org/1999/02/22-rdf-syntax-ns#"
   xmlns:svg="http://www.w3.org/2000/svg"
   xmlns="http://www.w3.org/2000/svg"
   xmlns:sodipodi="http://sodipodi.sourceforge.net/DTD/sodipodi-0.dtd"
   xmlns:inkscape="http://www.inkscape.org/namespaces/inkscape"
   width="16"
   height="16"
   id="svg2"
   sodipodi:version="0.32"
   inkscape:version="0.47 r22583"
   version="1.0"
   inkscape:export-filename="/home/nathaniel/workspace/Peakaboo_SwingGUI/src/peakaboo/ui/swing/icons/16/window-close.png"
   inkscape:export-xdpi="90"
   inkscape:export-ydpi="90"
   sodipodi:docname="window-close.svg"
   inkscape:output_extension="org.inkscape.output.svg.inkscape">
  <defs
     id="defs4">
    <inkscape:perspective
       sodipodi:type="inkscape:persp3d"
       inkscape:vp_x="0 : 526.18109 : 1"
       inkscape:vp_y="0 : 1000 : 0"
       inkscape:vp_z="744.09448 : 526.18109 : 1"
       inkscape:persp3d-origin="372.04724 : 350.78739 : 1"
       id="perspective10" />
    <clipPath
       clipPathUnits="userSpaceOnUse"
       id="clipPath3204">
      <path
         style="opacity:1;fill:#e09292;fill-opacity:1;stroke:none;stroke-width:2;stroke-linecap:butt;stroke-linejoin:round;stroke-miterlimit:4;stroke-dasharray:none;stroke-dashoffset:0;stroke-opacity:1"
         d="M 11.65625,0.34375 C 11.397943,0.34374991 11.133813,0.45993703 10.9375,0.65625 L 8,3.59375 L 5.0625,0.65625 C 4.8175256,0.4112756 4.5421483,0.37499998 4.34375,0.375 C 4.1453518,0.37500002 3.8636191,0.44888119 3.65625,0.65625 L 0.65625,3.65625 C 0.26362291,4.0488771 0.26362304,4.6698728 0.65625,5.0625 L 3.59375,8 L 0.65625,10.9375 C 0.26362395,11.330127 0.263624,11.951123 0.65625,12.34375 L 3.65625,15.34375 C 4.0488769,15.736378 4.669873,15.736378 5.0625,15.34375 L 8,12.40625 L 10.9375,15.34375 C 11.330127,15.736377 11.951123,15.736377 12.34375,15.34375 L 15.34375,12.34375 C 15.736377,11.951123 15.736379,11.330127 15.34375,10.9375 L 12.40625,8 L 15.34375,5.0625 C 15.736378,4.6698724 15.736376,4.0488769 15.34375,3.65625 L 12.34375,0.65625 C 12.147437,0.45993695 11.914557,0.34375009 11.65625,0.34375 z"
         id="path3206" />
    </clipPath>
  </defs>
  <sodipodi:namedview
     id="base"
     pagecolor="#ffffff"
     bordercolor="#666666"
     borderopacity="1.0"
     gridtolerance="10000"
     guidetolerance="10"
     objecttolerance="10"
     inkscape:pageopacity="0.0"
     inkscape:pageshadow="2"
     inkscape:zoom="22.4"
     inkscape:cx="-0.0312954"
     inkscape:cy="7.8230147"
     inkscape:document-units="px"
     inkscape:current-layer="g2817"
     showgrid="false"
     inkscape:window-width="1680"
     inkscape:window-height="914"
     inkscape:window-x="0"
     inkscape:window-y="25"
     inkscape:window-maximized="1" />
  <metadata
     id="metadata7">
    <rdf:RDF>
      <cc:Work
         rdf:about="">
        <dc:format>image/svg+xml</dc:format>
        <dc:type
           rdf:resource="http://purl.org/dc/dcmitype/StillImage" />
        <dc:title></dc:title>
      </cc:Work>
    </rdf:RDF>
  </metadata>
  <g
     inkscape:label="Layer 1"
     inkscape:groupmode="layer"
     id="layer1">
    <g
       id="g2817"
       transform="matrix(0.75042572,0,0,0.75042572,1.9965943,1.9965941)">
      <path
         id="rect2387"
         d="m 4.1772579,0.55997978 c -0.1336296,10e-9 -0.2570091,0.0282982 -0.3594031,0.13069202 L 0.6812462,3.8272804 c -0.20478769,0.2047877 -0.2047877,0.5466913 0,0.7514791 L 4.1119119,8.0094252 0.6812462,11.440091 c -0.20478767,0.204788 -0.20478765,0.546691 0,0.751479 l 3.1366086,3.136609 c 0.2047877,0.204788 0.5466913,0.204788 0.7514791,0 l 3.4306657,-3.430666 3.4306654,3.430666 c 0.204788,0.204788 0.546691,0.204788 0.751479,0 l 3.136609,-3.136609 c 0.204788,-0.204788 0.204788,-0.546692 0,-0.751479 L 11.888087,8.0094252 15.318753,4.5787595 c 0.204788,-0.2047877 0.204787,-0.5466915 0,-0.7514791 L 12.182144,0.6906718 c -0.204788,-0.20478769 -0.546691,-0.20478763 -0.751479,0 L 7.9999996,4.1213375 4.5693339,0.6906718 C 4.4669401,0.58827797 4.3108874,0.55997976 4.1772579,0.55997978 z"
         style="fill:#7f7f7f;fill-opacity:1;stroke:none" />
      <path
         inkscape:export-ydpi="90"
         inkscape:export-xdpi="90"
         transform="matrix(1.0455362,0,0,1.0455362,-0.36429,-0.3548644)"
         clip-path="url(#clipPath3204)"
         style="fill:none;stroke:#c0c0c0;stroke-width:2.86934113999999996;stroke-linecap:butt;stroke-linejoin:round;stroke-miterlimit:4;stroke-opacity:1;stroke-dasharray:none;stroke-dashoffset:0"
         d="M 4.34375,0.875 C 4.2159404,0.87500001 4.0979344,0.90206572 4,1 L 1,4 C 0.80413142,4.1958686 0.80413141,4.5228813 1,4.71875 L 4.28125,8 1,11.28125 C 0.80413144,11.477119 0.80413146,11.804131 1,12 l 3,3 c 0.1958686,0.195869 0.5228813,0.195869 0.71875,0 L 8,11.71875 11.28125,15 c 0.195869,0.195869 0.522881,0.195869 0.71875,0 l 3,-3 c 0.195869,-0.195869 0.195869,-0.522882 0,-0.71875 L 11.71875,8 15,4.71875 C 15.195869,4.5228814 15.195868,4.1958685 15,4 L 12,1 C 11.804131,0.80413142 11.477119,0.80413148 11.28125,1 L 8,4.28125 4.71875,1 C 4.6208157,0.90206572 4.4715596,0.87499999 4.34375,0.875 z"
         id="path3187" />
      <path
         style="fill:none;stroke:#404040;stroke-width:0.99999994000000003;stroke-linecap:butt;stroke-linejoin:round;stroke-miterlimit:4;stroke-opacity:1;stroke-dasharray:none;stroke-dashoffset:0"
         d="m 4.1772579,0.55997978 c -0.1336296,10e-9 -0.2570091,0.0282982 -0.3594031,0.13069202 L 0.6812462,3.8272804 c -0.20478769,0.2047877 -0.2047877,0.5466913 0,0.7514791 L 4.1119119,8.0094252 0.6812462,11.440091 c -0.20478767,0.204788 -0.20478765,0.546691 0,0.751479 l 3.1366086,3.136609 c 0.2047877,0.204788 0.5466913,0.204788 0.7514791,0 l 3.4306657,-3.430666 3.4306654,3.430666 c 0.204788,0.204788 0.546691,0.204788 0.751479,0 l 3.136609,-3.136609 c 0.204788,-0.204788 0.204788,-0.546692 0,-0.751479 L 11.888087,8.0094252 15.318753,4.5787595 c 0.204788,-0.2047877 0.204787,-0.5466915 0,-0.7514791 L 12.182144,0.6906718 c -0.204788,-0.20478769 -0.546691,-0.20478763 -0.751479,0 L 7.9999996,4.1213375 4.5693339,0.6906718 C 4.4669401,0.58827797 4.3108874,0.55997976 4.1772579,0.55997978 z"
         id="path3185" />
    </g>
  </g>
</svg>
