<?xml version="1.0" encoding="UTF-8" standalone="no"?>
<!-- Created with Inkscape (http://www.inkscape.org/) -->

<svg
   xmlns:dc="http://purl.org/dc/elements/1.1/"
   xmlns:cc="http://creativecommons.org/ns#"
   xmlns:rdf="http://www.w3.org/1999/02/22-rdf-syntax-ns#"
   xmlns:svg="http://www.w3.org/2000/svg"
   xmlns="http://www.w3.org/2000/svg"
   xmlns:xlink="http://www.w3.org/1999/xlink"
   xmlns:sodipodi="http://sodipodi.sourceforge.net/DTD/sodipodi-0.dtd"
   xmlns:inkscape="http://www.inkscape.org/namespaces/inkscape"
   width="835.79742"
   height="683.38818"
   id="svg2"
   sodipodi:version="0.32"
   inkscape:version="0.92.2 (5c3e80d, 2017-08-06)"
   version="1.0"
   sodipodi:docname="logo.svg"
   inkscape:output_extension="org.inkscape.output.svg.inkscape"
   inkscape:export-filename="/home/nathaniel/Projects/SS/Git/Peakaboo/Art/logo/v3/devsplash.png"
   inkscape:export-xdpi="68.919998"
   inkscape:export-ydpi="68.919998"
   enable-background="new">
  <defs
     id="defs4">
    <linearGradient
       id="linearGradient1271">
      <stop
         offset="0"
         style="stop-color:#e09e00;stop-opacity:0.75294119"
         id="stop1267" />
      <stop
         offset="1"
         style="stop-color:#e09e00;stop-opacity:0.18039216"
         id="stop1269" />
    </linearGradient>
    <linearGradient
       id="linearGradient1265">
      <stop
         offset="0"
         style="stop-color:#ffee9d;stop-opacity:1"
         id="stop1261" />
      <stop
         offset="1"
         style="stop-color:#ffee9d;stop-opacity:0.00392157"
         id="stop1263" />
    </linearGradient>
    <linearGradient
       id="linearGradient1115">
      <stop
         offset="0"
         style="stop-color:#860404;stop-opacity:1"
         id="stop1132" />
      <stop
         offset="1"
         style="stop-color:#860404;stop-opacity:0"
         id="stop1134" />
    </linearGradient>
    <linearGradient
       id="linearGradient1098">
      <stop
         offset="0"
         style="stop-color:#df4d4d;stop-opacity:1"
         id="stop1127" />
      <stop
         offset="1"
         style="stop-color:#df4d4d;stop-opacity:0"
         id="stop1129" />
    </linearGradient>
    <linearGradient
       id="linearGradient1115-9">
      <stop
         id="stop1107"
         style="stop-color:#beeb91;stop-opacity:1"
         offset="0" />
      <stop
         id="stop1111"
         style="stop-color:#beeb91;stop-opacity:0"
         offset="1" />
    </linearGradient>
    <linearGradient
       id="linearGradient1098-9">
      <stop
         id="stop1090"
         style="stop-color:#438604;stop-opacity:1"
         offset="0" />
      <stop
         id="stop1096"
         style="stop-color:#438604;stop-opacity:0"
         offset="1" />
    </linearGradient>
    <linearGradient
       id="linearGradient1066">
      <stop
         id="stop1058"
         style="stop-color:#b6e984;stop-opacity:1;"
         offset="0" />
      <stop
         id="stop1060"
         style="stop-color:#b6e984;stop-opacity:0"
         offset="1" />
    </linearGradient>
    <linearGradient
       id="linearGradient3242-52-665">
      <stop
         id="stop1049"
         style="stop-color:#b6e984;stop-opacity:1;"
         offset="0" />
      <stop
         id="stop1051"
         style="stop-color:#73c429;stop-opacity:1;"
         offset="0.25" />
      <stop
         id="stop1053"
         style="stop-color:#438604;stop-opacity:1;"
         offset="0.64999998" />
      <stop
         id="stop1055"
         style="stop-color:#274e02;stop-opacity:1;"
         offset="1" />
    </linearGradient>
    <linearGradient
       id="linearGradient4251">
      <stop
         offset="0"
         style="stop-color:#dd4040;stop-opacity:1"
         id="stop4253" />
      <stop
         offset="0.25"
         style="stop-color:#c42929;stop-opacity:1;"
         id="stop4255" />
      <stop
         offset="0.64999998"
         style="stop-color:#860404;stop-opacity:1;"
         id="stop4257" />
      <stop
         offset="1"
         style="stop-color:#4e0202;stop-opacity:1;"
         id="stop4259" />
    </linearGradient>
    <linearGradient
       id="linearGradient3814">
      <stop
         style="stop-color:#927700;stop-opacity:1;"
         offset="0"
         id="stop3816" />
      <stop
         style="stop-color:#dcb400;stop-opacity:1;"
         offset="1"
         id="stop3818" />
    </linearGradient>
    <linearGradient
       id="linearGradient3802">
      <stop
         id="stop3804"
         style="stop-color:#dacc8e;stop-opacity:1;"
         offset="0" />
      <stop
         id="stop3806"
         style="stop-color:#e9c31b;stop-opacity:1;"
         offset="0.25" />
      <stop
         id="stop3808"
         style="stop-color:#c4a000;stop-opacity:1;"
         offset="0.64999998" />
      <stop
         id="stop3810"
         style="stop-color:#6e5a00;stop-opacity:1;"
         offset="1" />
    </linearGradient>
    <inkscape:perspective
       sodipodi:type="inkscape:persp3d"
       inkscape:vp_x="0 : 256 : 1"
       inkscape:vp_y="0 : 1000 : 0"
       inkscape:vp_z="512 : 256 : 1"
       inkscape:persp3d-origin="256 : 170.66667 : 1"
       id="perspective70" />
    <linearGradient
       id="linearGradient4006">
      <stop
         style="stop-color:#610303;stop-opacity:1;"
         offset="0"
         id="stop4008" />
      <stop
         style="stop-color:#ae0606;stop-opacity:1;"
         offset="1"
         id="stop4010" />
    </linearGradient>
    <linearGradient
       id="linearGradient3994">
      <stop
         id="stop3996"
         style="stop-color:#e98484;stop-opacity:1;"
         offset="0" />
      <stop
         id="stop3998"
         style="stop-color:#c42929;stop-opacity:1;"
         offset="0.25" />
      <stop
         id="stop4000"
         style="stop-color:#860404;stop-opacity:1;"
         offset="0.64999998" />
      <stop
         id="stop4002"
         style="stop-color:#4e0202;stop-opacity:1;"
         offset="1" />
    </linearGradient>
    <linearGradient
       id="linearGradient3878">
      <stop
         id="stop3880"
         offset="0"
         style="stop-color:#ffffff;stop-opacity:0;" />
      <stop
         style="stop-color:#ffffff;stop-opacity:0;"
         offset="0.1"
         id="stop3886" />
      <stop
         id="stop3882"
         offset="1"
         style="stop-color:#ffffff;stop-opacity:1;" />
    </linearGradient>
    <linearGradient
       id="linearGradient3849">
      <stop
         id="stop3851"
         offset="0"
         style="stop-color:#316103;stop-opacity:1;" />
      <stop
         id="stop3853"
         offset="1"
         style="stop-color:#56ae06;stop-opacity:1;" />
    </linearGradient>
    <linearGradient
       id="linearGradient3463">
      <stop
         style="stop-color:#bebebe;stop-opacity:1;"
         offset="0"
         id="stop3465" />
      <stop
         id="stop3197"
         offset="0.89999998"
         style="stop-color:#7b7b7b;stop-opacity:1;" />
      <stop
         style="stop-color:#7b7b7b;stop-opacity:1;"
         offset="1"
         id="stop3467" />
    </linearGradient>
    <linearGradient
       inkscape:collect="always"
       xlink:href="#linearGradient3463"
       id="linearGradient3188"
       gradientUnits="userSpaceOnUse"
       x1="69.626221"
       y1="471.97302"
       x2="69.626221"
       y2="443.56918"
       gradientTransform="matrix(1.0416848,0,0,1.0525207,-6.2233339,-25.284917)" />
    <linearGradient
       id="linearGradient3242-52-665-5">
      <stop
         offset="0"
         style="stop-color:#b6e984;stop-opacity:1;"
         id="stop2903" />
      <stop
         offset="0.25"
         style="stop-color:#73c429;stop-opacity:1;"
         id="stop2905" />
      <stop
         offset="0.64999998"
         style="stop-color:#438604;stop-opacity:1;"
         id="stop2907" />
      <stop
         offset="1"
         style="stop-color:#274e02;stop-opacity:1;"
         id="stop2909" />
    </linearGradient>
    <linearGradient
       inkscape:collect="always"
       xlink:href="#linearGradient3849"
       id="linearGradient3912"
       gradientUnits="userSpaceOnUse"
       gradientTransform="matrix(0.9437344,0,0,1.1271501,14.403992,-51.860609)"
       x1="65.752502"
       y1="435.4863"
       x2="65.752502"
       y2="82.026207" />
    <linearGradient
       inkscape:collect="always"
       xlink:href="#linearGradient3878"
       id="linearGradient3925"
       gradientUnits="userSpaceOnUse"
       gradientTransform="matrix(0.9437344,0,0,1.1271501,14.403992,-51.860609)"
       x1="65.752502"
       y1="435.4863"
       x2="65.752502"
       y2="82.026207" />
    <radialGradient
       inkscape:collect="always"
       xlink:href="#linearGradient3242-52-665-5"
       id="radialGradient3946"
       gradientUnits="userSpaceOnUse"
       gradientTransform="matrix(0,2.6461921,-3.8910805,0,488.87751,-636.74139)"
       cx="256.02121"
       cy="59.841999"
       fx="256.02121"
       fy="59.841999"
       r="179.99628" />
    <radialGradient
       inkscape:collect="always"
       xlink:href="#linearGradient3994"
       id="radialGradient4004"
       gradientUnits="userSpaceOnUse"
       gradientTransform="matrix(0,2.6461921,-3.8910805,0,488.87751,-636.74139)"
       cx="256.02121"
       cy="59.841999"
       fx="256.02121"
       fy="59.841999"
       r="179.99628" />
    <linearGradient
       inkscape:collect="always"
       xlink:href="#linearGradient4006"
       id="linearGradient4012"
       gradientUnits="userSpaceOnUse"
       gradientTransform="matrix(0.9437344,0,0,1.1271501,14.403992,-51.860609)"
       x1="65.752502"
       y1="435.4863"
       x2="65.752502"
       y2="82.026207" />
    <linearGradient
       inkscape:collect="always"
       xlink:href="#linearGradient3463"
       id="linearGradient4015"
       gradientUnits="userSpaceOnUse"
       gradientTransform="matrix(0.83720716,0,0,0.84591602,45.249825,34.678261)"
       x1="69.626221"
       y1="471.97302"
       x2="69.626221"
       y2="443.56918" />
    <linearGradient
       inkscape:collect="always"
       xlink:href="#linearGradient3878"
       id="linearGradient4023"
       gradientUnits="userSpaceOnUse"
       gradientTransform="matrix(0.9437344,0,0,1.1271501,14.403992,-51.860609)"
       x1="65.752502"
       y1="435.4863"
       x2="65.752502"
       y2="82.026207" />
    <radialGradient
       inkscape:collect="always"
       xlink:href="#linearGradient3242-52-665-5"
       id="radialGradient3687"
       gradientUnits="userSpaceOnUse"
       gradientTransform="matrix(0,2.6461921,-3.8910805,0,488.87751,-636.74139)"
       cx="256.02121"
       cy="59.841999"
       fx="256.02121"
       fy="59.841999"
       r="179.99628" />
    <linearGradient
       inkscape:collect="always"
       xlink:href="#linearGradient3849"
       id="linearGradient3689"
       gradientUnits="userSpaceOnUse"
       gradientTransform="matrix(0.9437344,0,0,1.1271501,14.403992,-51.860609)"
       x1="65.752502"
       y1="435.4863"
       x2="65.752502"
       y2="82.026207" />
    <linearGradient
       inkscape:collect="always"
       xlink:href="#linearGradient3878"
       id="linearGradient3677"
       gradientUnits="userSpaceOnUse"
       gradientTransform="matrix(0.9437344,0,0,1.1271501,14.403992,-51.860609)"
       x1="65.752502"
       y1="435.4863"
       x2="65.752502"
       y2="82.026207" />
    <linearGradient
       inkscape:collect="always"
       xlink:href="#linearGradient3463"
       id="linearGradient3679"
       gradientUnits="userSpaceOnUse"
       gradientTransform="matrix(0.83720716,0,0,0.84591602,45.249825,34.678261)"
       x1="69.626221"
       y1="471.97302"
       x2="69.626221"
       y2="443.56918" />
    <linearGradient
       inkscape:collect="always"
       xlink:href="#linearGradient4006"
       id="linearGradient3672"
       gradientUnits="userSpaceOnUse"
       gradientTransform="matrix(0.9437344,0,0,1.1271501,14.403992,-51.860609)"
       x1="65.752502"
       y1="435.4863"
       x2="65.752502"
       y2="82.026207" />
    <radialGradient
       inkscape:collect="always"
       xlink:href="#linearGradient3994"
       id="radialGradient3674"
       gradientUnits="userSpaceOnUse"
       gradientTransform="matrix(0,2.6461921,-3.8910805,0,488.87751,-636.74139)"
       cx="256.02121"
       cy="59.841999"
       fx="256.02121"
       fy="59.841999"
       r="179.99628" />
    <radialGradient
       inkscape:collect="always"
       xlink:href="#linearGradient3242-52-665-5"
       id="radialGradient3686"
       gradientUnits="userSpaceOnUse"
       gradientTransform="matrix(0,-2.9143271,3.8910805,0,-162.22644,1882.3286)"
       cx="454.22845"
       cy="105.75438"
       fx="454.22845"
       fy="105.75438"
       r="179.99628" />
    <inkscape:perspective
       id="perspective3717"
       inkscape:persp3d-origin="0.5 : 0.33333333 : 1"
       inkscape:vp_z="1 : 0.5 : 1"
       inkscape:vp_y="0 : 1000 : 0"
       inkscape:vp_x="0 : 0.5 : 1"
       sodipodi:type="inkscape:persp3d" />
    <linearGradient
       id="linearGradient3242-52-665-2">
      <stop
         offset="0"
         style="stop-color:#fdd835;stop-opacity:1"
         id="stop2903-8" />
      <stop
         offset="0.25"
         style="stop-color:#ffeb3b;stop-opacity:1"
         id="stop2905-3" />
      <stop
         offset="0.64999998"
         style="stop-color:#fbc02d;stop-opacity:1"
         id="stop2907-0" />
      <stop
         offset="1"
         style="stop-color:#f59a17;stop-opacity:1"
         id="stop2909-8" />
    </linearGradient>
    <linearGradient
       id="linearGradient3878-6">
      <stop
         id="stop3880-9"
         offset="0"
         style="stop-color:#ffffff;stop-opacity:0;" />
      <stop
         style="stop-color:#ffffff;stop-opacity:0;"
         offset="0.1"
         id="stop3886-7" />
      <stop
         id="stop3882-1"
         offset="1"
         style="stop-color:#ffffff;stop-opacity:1;" />
    </linearGradient>
    <linearGradient
       inkscape:collect="always"
       xlink:href="#linearGradient3849-3"
       id="linearGradient3690-9"
       gradientUnits="userSpaceOnUse"
       gradientTransform="matrix(0.9437344,0,0,1.1271501,14.403992,-51.860609)"
       x1="65.752502"
       y1="435.4863"
       x2="65.752502"
       y2="82.026207" />
    <linearGradient
       id="linearGradient3849-3">
      <stop
         id="stop3851-7"
         offset="0"
         style="stop-color:#a44900;stop-opacity:1;" />
      <stop
         id="stop3853-1"
         offset="1"
         style="stop-color:#ff7505;stop-opacity:1;" />
    </linearGradient>
    <radialGradient
       inkscape:collect="always"
       xlink:href="#linearGradient3802"
       id="radialGradient3812"
       gradientUnits="userSpaceOnUse"
       gradientTransform="matrix(0,2.6461921,-3.8910805,0,488.87751,-636.74139)"
       cx="256.02121"
       cy="59.841999"
       fx="256.02121"
       fy="59.841999"
       r="179.99628" />
    <linearGradient
       inkscape:collect="always"
       xlink:href="#linearGradient3814"
       id="linearGradient3820"
       gradientUnits="userSpaceOnUse"
       gradientTransform="matrix(0.9437344,0,0,1.1271501,14.403992,-51.860609)"
       x1="65.752502"
       y1="435.4863"
       x2="65.752502"
       y2="82.026207" />
    <radialGradient
       inkscape:collect="always"
       xlink:href="#linearGradient3242-52-665-2"
       id="radialGradient4349"
       gradientUnits="userSpaceOnUse"
       gradientTransform="matrix(0,-2.9143275,3.8910805,0,-162.22644,1882.8225)"
       cx="454.31723"
       cy="106.93162"
       fx="454.31723"
       fy="106.93162"
       r="179.99628" />
    <radialGradient
       inkscape:collect="always"
       xlink:href="#linearGradient4251"
       id="radialGradient4359"
       gradientUnits="userSpaceOnUse"
       gradientTransform="matrix(0,-2.9143271,3.8910805,0,-162.22644,1886.2255)"
       cx="454.92926"
       cy="109.87472"
       fx="454.92926"
       fy="109.87472"
       r="179.99628" />
    <linearGradient
       inkscape:collect="always"
       xlink:href="#linearGradient1098-9"
       id="linearGradient1088"
       x1="445.78906"
       y1="467.45703"
       x2="243.20297"
       y2="339.62195"
       gradientUnits="userSpaceOnUse" />
    <linearGradient
       inkscape:collect="always"
       xlink:href="#linearGradient1115-9"
       id="linearGradient1105"
       x1="382.0332"
       y1="467.12695"
       x2="563.78693"
       y2="370.41589"
       gradientUnits="userSpaceOnUse" />
    <linearGradient
       inkscape:collect="always"
       xlink:href="#linearGradient1115"
       id="linearGradient1137"
       gradientUnits="userSpaceOnUse"
       x1="445.78906"
       y1="467.45703"
       x2="243.20297"
       y2="339.62195" />
    <linearGradient
       inkscape:collect="always"
       xlink:href="#linearGradient1098"
       id="linearGradient1139"
       gradientUnits="userSpaceOnUse"
       x1="382.0332"
       y1="467.12695"
       x2="533.38135"
       y2="385.97223" />
    <linearGradient
       gradientTransform="translate(-161.90052,-10.424995)"
       inkscape:collect="always"
       xlink:href="#linearGradient1265"
       id="linearGradient1105-6"
       x1="382.0332"
       y1="467.12695"
       x2="563.78693"
       y2="370.41589"
       gradientUnits="userSpaceOnUse" />
    <linearGradient
       gradientTransform="translate(-161.90052,-10.424995)"
       inkscape:collect="always"
       xlink:href="#linearGradient1271"
       id="linearGradient1088-4"
       x1="445.78906"
       y1="467.45703"
       x2="243.20297"
       y2="339.62195"
       gradientUnits="userSpaceOnUse" />
  </defs>
  <sodipodi:namedview
     id="base"
     pagecolor="#ffffff"
     bordercolor="#666666"
     borderopacity="1.0"
     gridtolerance="10000"
     guidetolerance="10"
     objecttolerance="10"
     inkscape:pageopacity="0.0"
     inkscape:pageshadow="2"
     inkscape:zoom="1"
     inkscape:cx="407.98862"
     inkscape:cy="346.99879"
     inkscape:document-units="px"
     inkscape:current-layer="layer9"
     showgrid="false"
     inkscape:window-width="1920"
     inkscape:window-height="1016"
     inkscape:window-x="1920"
     inkscape:window-y="300"
     inkscape:window-maximized="1"
     fit-margin-top="64"
     fit-margin-left="64"
     fit-margin-right="64"
     fit-margin-bottom="64" />
  <metadata
     id="metadata7">
    <rdf:RDF>
      <cc:Work
         rdf:about="">
        <dc:format>image/svg+xml</dc:format>
        <dc:type
           rdf:resource="http://purl.org/dc/dcmitype/StillImage" />
        <dc:title />
      </cc:Work>
    </rdf:RDF>
  </metadata>
  <g
     inkscape:groupmode="layer"
     id="layer9"
     inkscape:label="Title Border"
     style="display:inline">
    <rect
       transform="translate(161.89871,10.426315)"
       style="color:#000000;clip-rule:nonzero;display:inline;overflow:visible;visibility:visible;opacity:1;isolation:auto;mix-blend-mode:normal;color-interpolation:sRGB;color-interpolation-filters:linearRGB;solid-color:#000000;solid-opacity:1;fill:#ffffff;fill-opacity:0.99561403;fill-rule:nonzero;stroke:none;stroke-width:10.66699982;stroke-linecap:round;stroke-linejoin:bevel;stroke-miterlimit:4;stroke-dasharray:none;stroke-dashoffset:0;stroke-opacity:1;marker:none;color-rendering:auto;image-rendering:auto;shape-rendering:auto;text-rendering:auto;enable-background:accumulate"
       id="rect4401"
       width="835.79742"
       height="683.38818"
       x="-161.89871"
       y="-10.426311"
       rx="5"
       ry="5" />
  </g>
  <g
     inkscape:groupmode="layer"
     id="layer10"
     inkscape:label="Banner Border"
     style="display:none"
     sodipodi:insensitive="true">
    <rect
       style="color:#000000;clip-rule:nonzero;display:inline;overflow:visible;visibility:visible;opacity:1;isolation:auto;mix-blend-mode:normal;color-interpolation:sRGB;color-interpolation-filters:linearRGB;solid-color:#000000;solid-opacity:1;fill:#ffffff;fill-opacity:0;fill-rule:nonzero;stroke:none;stroke-width:10.66699982;stroke-linecap:round;stroke-linejoin:bevel;stroke-miterlimit:4;stroke-dasharray:none;stroke-dashoffset:0;stroke-opacity:1;marker:none;color-rendering:auto;image-rendering:auto;shape-rendering:auto;text-rendering:auto;enable-background:accumulate"
       id="rect4407"
       width="1964.343"
       height="536.60303"
       x="203.65686"
       y="-2.3691406"
       rx="5.0000005"
       ry="5" />
  </g>
  <g
     inkscape:groupmode="layer"
     id="layer11"
     inkscape:label="Icon Border"
     sodipodi:insensitive="true"
     style="display:none">
    <rect
       style="color:#000000;clip-rule:nonzero;display:inline;overflow:visible;visibility:visible;opacity:1;isolation:auto;mix-blend-mode:normal;color-interpolation:sRGB;color-interpolation-filters:linearRGB;solid-color:#000000;solid-opacity:1;fill:#ffffff;fill-opacity:0;fill-rule:nonzero;stroke:none;stroke-width:10.66699982;stroke-linecap:round;stroke-linejoin:bevel;stroke-miterlimit:4;stroke-dasharray:none;stroke-dashoffset:0;stroke-opacity:1;marker:none;color-rendering:auto;image-rendering:auto;shape-rendering:auto;text-rendering:auto;enable-background:accumulate"
       id="rect4410"
       width="450"
       height="450"
       x="193.24069"
       y="41.426731"
       rx="5"
       ry="5" />
  </g>
  <g
     inkscape:groupmode="layer"
     id="layer1"
     inkscape:label="DevText"
     style="display:inline"
     sodipodi:insensitive="true">
    <text
       xml:space="preserve"
       style="font-style:normal;font-variant:normal;font-weight:300;font-stretch:normal;line-height:0%;font-family:Springsteel;-inkscape-font-specification:'Springsteel, Light';text-align:center;letter-spacing:0px;word-spacing:0px;writing-mode:lr-tb;text-anchor:middle;fill:#404040;fill-opacity:1;stroke:none;stroke-width:1px;stroke-linecap:butt;stroke-linejoin:miter;stroke-opacity:1"
       x="417.31888"
       y="657.6897"
       id="text4227"><tspan
         sodipodi:role="line"
         id="tspan4229"
         x="417.31888"
         y="657.6897"
         style="font-style:normal;font-variant:normal;font-weight:300;font-stretch:normal;font-size:31.25px;line-height:125%;font-family:Springsteel;-inkscape-font-specification:'Springsteel, Light';text-align:center;writing-mode:lr-tb;text-anchor:middle;fill:#404040;fill-opacity:1">Development Release</tspan></text>
  </g>
  <g
     style="display:none"
     inkscape:label="RC Text"
     id="g1257"
     inkscape:groupmode="layer"
     sodipodi:insensitive="true">
    <text
       id="text1255"
       y="657.6897"
       x="417.31888"
       style="font-style:normal;font-variant:normal;font-weight:300;font-stretch:normal;line-height:0%;font-family:Springsteel;-inkscape-font-specification:'Springsteel, Light';text-align:center;letter-spacing:0px;word-spacing:0px;writing-mode:lr-tb;text-anchor:middle;fill:#404040;fill-opacity:1;stroke:none;stroke-width:1px;stroke-linecap:butt;stroke-linejoin:miter;stroke-opacity:1"
       xml:space="preserve"><tspan
         style="font-style:normal;font-variant:normal;font-weight:300;font-stretch:normal;font-size:31.25px;line-height:125%;font-family:Springsteel;-inkscape-font-specification:'Springsteel, Light';text-align:center;writing-mode:lr-tb;text-anchor:middle;fill:#404040;fill-opacity:1"
         y="657.6897"
         x="417.31888"
         id="tspan1253"
         sodipodi:role="line">Release Candidate</tspan></text>
  </g>
  <g
     inkscape:groupmode="layer"
     id="layer5"
     inkscape:label="Text"
     style="display:inline"
     transform="translate(161.89871,10.426315)"
     sodipodi:insensitive="true">
    <text
       id="text2841"
       y="607.40936"
       x="252.83072"
       style="font-style:normal;font-variant:normal;font-weight:bold;font-stretch:normal;line-height:0%;font-family:Springsteel;-inkscape-font-specification:'Springsteel Bold';text-align:center;text-anchor:middle;fill:#404040;fill-opacity:1;stroke:#000000;stroke-width:0;stroke-linecap:butt;stroke-linejoin:miter;stroke-miterlimit:4;stroke-dasharray:none;stroke-opacity:1"
       xml:space="preserve"><tspan
         style="font-style:normal;font-variant:normal;font-weight:bold;font-stretch:normal;font-size:155.25012207px;line-height:1.25;font-family:Springsteel;-inkscape-font-specification:'Springsteel Bold';text-align:center;text-anchor:middle;fill:#404040;fill-opacity:1;stroke:#000000;stroke-width:0;stroke-linecap:butt;stroke-linejoin:miter;stroke-miterlimit:4;stroke-dasharray:none;stroke-opacity:1"
         y="607.40936"
         x="252.83072"
         id="tspan2843"
         sodipodi:role="line">Peakaboo 5</tspan></text>
  </g>
  <g
     inkscape:groupmode="layer"
     id="layer2"
     inkscape:label="Side Text"
     style="display:none"
     transform="translate(161.89871,10.426315)"
     sodipodi:insensitive="true">
    <text
       xml:space="preserve"
       style="font-style:normal;font-variant:normal;font-weight:bold;font-stretch:normal;line-height:0%;font-family:Springsteel;-inkscape-font-specification:'Springsteel Bold';fill:#404040;fill-opacity:1;stroke:#000000;stroke-width:0;stroke-linecap:butt;stroke-linejoin:miter;stroke-miterlimit:4;stroke-dasharray:none;stroke-opacity:1"
       x="488.8873"
       y="372.04352"
       id="text3701"><tspan
         sodipodi:role="line"
         id="tspan3703"
         x="488.8873"
         y="372.04352"
         style="font-style:normal;font-variant:normal;font-weight:bold;font-stretch:normal;font-size:313.63000488px;line-height:1.25;font-family:Springsteel;-inkscape-font-specification:'Springsteel Bold';fill:#404040;fill-opacity:1;stroke:#000000;stroke-width:0;stroke-linecap:butt;stroke-linejoin:miter;stroke-miterlimit:4;stroke-dasharray:none;stroke-opacity:1">Peakaboo 5</tspan></text>
  </g>
  <g
     inkscape:groupmode="layer"
     id="layer3"
     inkscape:label="Release Curve"
     style="display:none"
     transform="translate(161.89871,10.426315)"
     sodipodi:insensitive="true">
    <g
       style="display:inline"
       transform="matrix(0.87322183,0,0,0.87322183,32.455213,13.753808)"
       id="g2903">
      <path
         style="fill:url(#radialGradient3686);fill-opacity:1;fill-rule:evenodd;stroke:none"
         d="m 182.84375,45.626193 c -16.29861,1.142333 -26.23315,16.501335 -33.5,29.375 -19.98234,39.320647 -29.41166,83.100067 -39.0625,125.906247 -16.155723,82.81213 -50.293791,215.83409 3.19045,269.31833 53.48425,53.48425 231.59687,50.51374 282.11062,0 50.51374,-50.51375 30.06714,-125.53931 19.12952,-177.43847 -8.5536,-36.7393 -16.96361,-74.48217 -35.33684,-107.66106 -6.83572,-11.75705 -17.99633,-25.00061 -33.09375,-23 -18.1292,1.96431 -28.99802,19.01541 -36.39096,33.92253 -7.5802,13.52367 -11.99944,29.6977 -24.07779,40.01497 -3.79707,3.14244 -9.39091,2.47401 -12,-1.90625 C 260.29164,216.07686 254.50716,193.81065 246.96707,172.73933 234.7123,136.87558 225.8666,99.355182 208.28125,65.719943 202.87023,56.387589 195.06463,44.995209 182.84375,45.626193 Z"
         id="path2905"
         inkscape:connector-curvature="0"
         sodipodi:nodetypes="ccczzccccccccc" />
      <path
         sodipodi:nodetypes="ccczzccccccccc"
         inkscape:connector-curvature="0"
         id="path1068"
         d="m 182.84375,45.626193 c -16.29861,1.142333 -26.23315,16.501335 -33.5,29.375 -19.98234,39.320647 -29.41166,83.100067 -39.0625,125.906247 -16.155723,82.81213 -50.293791,215.83409 3.19045,269.31833 53.48425,53.48425 231.59687,50.51374 282.11062,0 50.51374,-50.51375 30.06714,-125.53931 19.12952,-177.43847 -8.5536,-36.7393 -16.96361,-74.48217 -35.33684,-107.66106 -6.83572,-11.75705 -17.99633,-25.00061 -33.09375,-23 -18.1292,1.96431 -28.99802,19.01541 -36.39096,33.92253 -7.5802,13.52367 -11.99944,29.6977 -24.07779,40.01497 -3.79707,3.14244 -9.39091,2.47401 -12,-1.90625 C 260.29164,216.07686 254.50716,193.81065 246.96707,172.73933 234.7123,136.87558 225.8666,99.355182 208.28125,65.719943 202.87023,56.387589 195.06463,44.995209 182.84375,45.626193 Z"
         style="fill:url(#radialGradient3686);fill-opacity:1;fill-rule:evenodd;stroke:none" />
    </g>
    <path
       style="opacity:0.5;fill:url(#linearGradient1105);fill-opacity:1;fill-rule:evenodd;stroke:none;stroke-width:0.87322181"
       d="m 501.10938,165.66016 c -2.35422,211.57319 23.20637,239.15188 -119.07618,301.46679 36.58841,3.84776 76.65979,1.19372 108.66016,-7.55664 0.007,-0.002 0.0129,-0.004 0.0195,-0.006 21.94797,-8.03537 39.97796,-16.53101 48.03711,-23.79101 0.002,-0.002 0.004,-0.004 0.006,-0.006 l 0.004,-0.004 c 0.36208,-0.32646 0.7041,-0.65137 1.02539,-0.97265 0.68987,-0.68988 1.3636,-1.3838 2.02343,-2.08399 0.6589,-0.69915 1.30217,-1.40221 1.93164,-2.11133 3.3e-4,-3.7e-4 -3.3e-4,-0.002 0,-0.002 0.62978,-0.70948 1.24485,-1.42344 1.84571,-2.14258 0.60145,-0.71985 1.1887,-1.44266 1.76172,-2.17187 0.57215,-0.72807 1.12948,-1.46018 1.67382,-2.19727 3.2e-4,-4.3e-4 -3.1e-4,-0.002 0,-0.002 0.54464,-0.73751 1.07642,-1.4784 1.59375,-2.22461 0.68533,-0.98854 1.33811,-1.98714 1.97657,-2.99024 0.17167,-0.26971 0.34142,-0.5398 0.50976,-0.81054 0.62344,-1.00265 1.23389,-2.00909 1.8125,-3.02539 2.9e-4,-5e-4 -2.8e-4,-0.001 0,-0.002 0.43834,-0.76992 0.86413,-1.54296 1.27735,-2.32031 2.7e-4,-5.1e-4 -2.8e-4,-0.001 0,-0.002 0.41346,-0.77786 0.81428,-1.55877 1.20312,-2.34375 0.52433,-1.05851 1.01935,-2.12458 1.5,-3.19531 0.10944,-0.24377 0.21701,-0.48805 0.32422,-0.73243 0.46955,-1.07033 0.92571,-2.14494 1.35352,-3.22656 0.63633,-1.60886 1.22791,-3.2297 1.77539,-4.86133 0.31284,-0.93236 0.60771,-1.86951 0.89257,-2.80859 0.092,-0.30337 0.1784,-0.60806 0.26758,-0.91211 0.19105,-0.65148 0.37658,-1.30453 0.55469,-1.95898 0.0889,-0.32649 0.17601,-0.65327 0.26172,-0.98047 0.1712,-0.65376 0.33537,-1.30835 0.49414,-1.96485 0.077,-0.31831 0.15634,-0.63615 0.23047,-0.95508 0.21925,-0.9436 0.43038,-1.88915 0.625,-2.83789 1.3e-4,-6.2e-4 -1.3e-4,-10e-4 0,-0.002 0.17192,-0.83808 0.33505,-1.67782 0.48828,-2.51953 1.1e-4,-6.3e-4 -1.2e-4,-0.001 0,-0.002 0.15332,-0.84234 0.29651,-1.6856 0.43164,-2.53125 1.75674,-10.99408 1.99849,-22.25357 1.31445,-33.43164 -0.1052,-1.71945 -0.23201,-3.43595 -0.3789,-5.15039 -0.13253,-1.54678 -0.28609,-3.09026 -0.44922,-4.63086 -0.0483,-0.4562 -0.0996,-0.91164 -0.15039,-1.36719 -0.13258,-1.18858 -0.27325,-2.37501 -0.42188,-3.55859 -0.0454,-0.36194 -0.0879,-0.72452 -0.13476,-1.08594 -0.20232,-1.5604 -0.41405,-3.11653 -0.64063,-4.66602 -0.2462,-1.68371 -0.50661,-3.36091 -0.77734,-5.0293 -0.28842,-1.77737 -0.59114,-3.54376 -0.90235,-5.30078 -0.12347,-0.69708 -0.25436,-1.38654 -0.38085,-2.08007 -0.18917,-1.0372 -0.37726,-2.07478 -0.57227,-3.10352 -0.15929,-0.84021 -0.32184,-1.67363 -0.48438,-2.50781 -0.15221,-0.78129 -0.30443,-1.5622 -0.45898,-2.33789 -0.55199,-2.76994 -1.11777,-5.49914 -1.68555,-8.18946 -0.51461,-2.43863 -1.02879,-4.84213 -1.53906,-7.20507 -0.83055,-3.84476 -1.6807,-7.77131 -2.44141,-11.38086 -0.93379,-4.01081 -1.86538,-8.0338 -2.8125,-12.0625 -0.94683,-4.02747 -1.90967,-8.05958 -2.90429,-12.08594 -1.5e-4,-6.1e-4 1.5e-4,-10e-4 0,-0.002 -1.49201,-6.03987 -3.05744,-12.06876 -4.75391,-18.05274 -2.26235,-7.98003 -4.75768,-15.88121 -7.625,-23.62891 -0.71678,-1.93678 -1.4573,-3.86296 -2.22265,-5.77929 -2.29603,-5.74901 -4.82008,-11.39968 -7.63086,-16.92188 -0.46873,-0.92087 -0.94477,-1.83842 -1.42969,-2.75195 -0.48465,-0.91303 -0.97715,-1.82117 -1.47852,-2.72656 -0.36438,-0.62672 -0.74426,-1.25756 -1.13672,-1.89063 -0.009,-0.0148 -0.0182,-0.0301 -0.0273,-0.0449 -0.0388,-0.0625 -0.082,-0.12493 -0.12109,-0.1875 -0.33973,-0.54355 -0.68855,-1.08778 -1.04883,-1.63086 -0.0981,-0.14778 -0.2012,-0.29386 -0.30078,-0.44141 -0.30465,-0.45149 -0.61479,-0.9019 -0.9336,-1.3496 -0.15492,-0.21746 -0.31244,-0.43426 -0.4707,-0.6504 -0.2792,-0.38147 -0.56396,-0.76054 -0.85352,-1.13671 -0.18699,-0.2428 -0.3751,-0.48456 -0.5664,-0.72461 -0.27763,-0.34858 -0.56294,-0.69146 -0.84961,-1.03321 -0.20557,-0.24489 -0.41089,-0.48964 -0.6211,-0.73047 -0.2767,-0.31723 -0.56098,-0.62629 -0.8457,-0.93554 -0.2324,-0.25224 -0.4615,-0.50763 -0.69922,-0.75391 -0.27624,-0.2864 -0.56229,-0.56037 -0.8457,-0.83789 -0.25735,-0.2518 -0.51019,-0.51013 -0.77344,-0.7539 -0.24391,-0.22605 -0.49909,-0.43571 -0.74804,-0.6543 -0.58588,-0.514 -1.18512,-1.0049 -1.79883,-1.47266 -0.25424,-0.19394 -0.50468,-0.39493 -0.76367,-0.58008 -0.32292,-0.23063 -0.65604,-0.44209 -0.98633,-0.6582 -0.27554,-0.18043 -0.54943,-0.3635 -0.83008,-0.5332 -1.97138,-1.19104 -4.06594,-2.11868 -6.28711,-2.66992 -0.30581,-0.0759 -0.61333,-0.1434 -0.92383,-0.20508 -0.0364,-0.007 -0.0729,-0.0144 -0.10937,-0.0215 -0.29396,-0.0567 -0.59055,-0.1069 -0.88868,-0.15039 -0.052,-0.008 -0.10414,-0.0143 -0.15624,-0.0215 -0.30589,-0.0421 -0.61358,-0.0777 -0.92383,-0.10547 -0.005,-4.1e-4 -0.009,-0.002 -0.0137,-0.002 z"
       id="path1072"
       inkscape:connector-curvature="0"
       sodipodi:nodetypes="ccccccccccccccccccccccccccccccccccccccccccccccssccccccsccscccccccccccccccccccccccccccccccc"
       transform="translate(-161.89871,-10.426315)" />
    <path
       style="opacity:0.4;fill:url(#linearGradient1088);fill-opacity:1;fill-rule:evenodd;stroke:none;stroke-width:0.87322181"
       d="m 354.01758,64.021484 c -0.44476,0.03117 -0.88436,0.07393 -1.31836,0.128907 -0.86801,0.109947 -1.71485,0.266984 -2.54102,0.466797 -0.51518,0.1246 -1.02011,0.272389 -1.51953,0.429687 -0.37313,0.117524 -0.74265,0.244577 -1.10742,0.378906 -0.0157,0.0058 -0.0312,0.01174 -0.0469,0.01758 -0.005,0.002 -0.0104,0.0039 -0.0156,0.0059 -0.01,0.0037 -0.0194,0.008 -0.0293,0.01172 -0.33087,0.12333 -0.65844,0.251705 -0.98242,0.388671 -0.003,0.0011 -0.005,0.0028 -0.008,0.0039 -0.10985,0.04649 -0.21712,0.09845 -0.32617,0.146484 -0.0379,0.01668 -0.0754,0.03406 -0.11328,0.05078 -0.19893,0.08782 -0.39801,0.175857 -0.59375,0.269531 -0.36473,0.175343 -0.72626,0.356733 -1.08204,0.548829 -0.42559,0.229793 -0.84369,0.474497 -1.25586,0.728515 -0.0182,0.01111 -0.0365,0.02206 -0.0547,0.0332 -0.0235,0.01425 -0.047,0.02854 -0.0703,0.04297 -0.0207,0.01289 -0.0399,0.02808 -0.0605,0.04102 -0.3735,0.234157 -0.74315,0.474288 -1.10742,0.724609 -0.54495,0.374476 -1.08242,0.761257 -1.60547,1.171875 -2.62957,2.064322 -4.9864,4.563003 -7.12305,7.267578 -0.53419,0.676129 -1.05518,1.364158 -1.5625,2.0625 -3e-4,4.2e-4 3.1e-4,0.0015 0,0.002 -0.50728,0.698345 -1.00238,1.405706 -1.48437,2.119141 -0.48203,0.713436 -0.95185,1.430936 -1.41016,2.152344 0,0 0,0.002 0,0.002 -0.45799,0.72094 -0.90397,1.444231 -1.33984,2.166015 -2.9e-4,4.71e-4 2.8e-4,0.0015 0,0.002 -0.87229,1.444509 -1.70291,2.881933 -2.4961,4.287109 -0.7234,1.423495 -1.42488,2.856382 -2.11719,4.292969 -0.0756,0.156894 -0.1513,0.313657 -0.22656,0.470703 -0.10779,0.223777 -0.21564,0.447551 -0.32226,0.671875 -0.0123,0.0258 -0.0229,0.05232 -0.0352,0.07813 -0.66916,1.408987 -1.32965,2.821514 -1.9707,4.242187 -0.49387,1.094504 -0.97916,2.191864 -1.45703,3.292964 0,0 0,0.002 0,0.002 -0.86047,1.98259 -1.68682,3.97782 -2.49805,5.98046 -0.2395,0.59123 -0.47359,1.18448 -0.70899,1.77735 -0.59507,1.4988 -1.17821,3.00285 -1.74804,4.51172 -0.2293,0.60715 -0.46018,1.21355 -0.68555,1.82226 -0.74326,2.00752 -1.47312,4.01966 -2.17578,6.04297 -0.788,2.26915 -1.5517,4.54715 -2.29297,6.83399 -1.9e-4,5.8e-4 1.9e-4,0.001 0,0.002 -0.66449,2.04986 -1.3051,4.10762 -1.93555,6.16992 -0.19959,0.65283 -0.39539,1.30698 -0.59179,1.96094 -0.47098,1.56842 -0.93309,3.1404 -1.38672,4.71484 -0.15064,0.52275 -0.3043,1.045 -0.45313,1.56836 -0.60148,2.1154 -1.1934,4.23316 -1.76758,6.35742 0,0 0,0.002 0,0.002 -0.62851,2.32533 -1.24162,4.65649 -1.84179,6.99023 -0.80608,3.13437 -1.58109,6.27722 -2.34571,9.42188 -0.20744,0.85313 -0.41421,1.70692 -0.61914,2.56054 -0.37173,1.54863 -0.73322,3.0987 -1.09765,4.64844 -0.36258,1.54167 -0.7156,3.08289 -1.07227,4.625 -0.28513,1.2311 -0.57559,2.4619 -0.85742,3.69336 -0.009,0.0398 -0.0182,0.0794 -0.0273,0.11914 -1.30505,5.70418 -2.59409,11.4103 -3.875,17.0918 -0.86263,4.42172 -1.79104,9.04012 -2.75,13.76367 -0.0196,0.0967 -0.037,0.18441 -0.0566,0.28125 -0.79743,3.92637 -1.61451,7.92622 -2.45118,12.02734 -0.33603,1.64714 -0.67989,3.35342 -1.01953,5.02539 -0.68162,3.35574 -1.36805,6.77073 -2.05468,10.21485 -0.74101,3.71694 -1.48333,7.44887 -2.21485,11.25 v 0.002 c 0,0 0,0.002 0,0.002 -0.73064,3.7966 -1.44701,7.64092 -2.15234,11.50196 -0.12788,0.69999 -0.25608,1.39982 -0.38281,2.10156 -0.69993,3.87554 -1.38522,7.77236 -2.04102,11.68945 -0.40767,2.43507 -0.80577,4.8753 -1.19141,7.32032 -0.089,0.5645 -0.17202,1.13043 -0.25976,1.69531 -0.29755,1.91576 -0.58773,3.83332 -0.86914,5.75195 -0.13719,0.93526 -0.27127,1.8711 -0.4043,2.80664 -0.24651,1.73377 -0.48365,3.46771 -0.71484,5.20117 -0.10747,0.8057 -0.21833,1.61065 -0.32227,2.41602 -0.28228,2.18733 -0.55026,4.37206 -0.80469,6.55469 -0.0451,0.38693 -0.0945,0.77538 -0.13867,1.16211 -0.28218,2.47013 -0.54106,4.9338 -0.7832,7.39257 -0.0813,0.8258 -0.152,1.64851 -0.22852,2.47266 -0.15839,1.70614 -0.30853,3.40954 -0.44531,5.10742 -0.0724,0.89912 -0.14289,1.79691 -0.20898,2.69336 -0.13082,1.77456 -0.24481,3.54199 -0.34961,5.30469 -0.0507,0.85328 -0.10992,1.71037 -0.1543,2.56055 -0.0156,0.29813 -0.0282,0.59484 -0.043,0.89257 -0.0882,1.7784 -0.16381,3.5495 -0.22266,5.3125 -0.007,0.21698 -0.0167,0.43562 -0.0234,0.65235 -0.0581,1.8567 -0.0957,3.70198 -0.11914,5.53906 -0.005,0.38671 -0.008,0.77242 -0.0117,1.1582 -0.0161,1.85971 -0.0199,3.7122 0.002,5.54883 4e-5,0.003 -4e-5,0.007 0,0.01 0.0217,1.81452 0.0701,3.61268 0.13086,5.40234 0.0138,0.40809 0.027,0.81593 0.043,1.22266 0.0698,1.78256 0.15645,3.55564 0.26758,5.31054 0.01,0.15506 0.0231,0.30806 0.0332,0.46289 0.1055,1.60954 0.23106,3.20295 0.37305,4.78711 0.0356,0.39714 0.0695,0.79593 0.10742,1.19141 0.16138,1.68185 0.34385,3.3496 0.54883,5 0.0353,0.28398 0.0747,0.56464 0.11133,0.84766 0.20054,1.55106 0.421,3.08848 0.6621,4.60937 0.0409,0.25772 0.0771,0.51857 0.11915,0.77539 0.058,0.35455 0.11935,0.70578 0.17968,1.0586 0.1357,0.79351 0.27643,1.58456 0.42383,2.36914 0.0532,0.28319 0.10736,0.56564 0.16211,0.84765 0.16146,0.83168 0.33079,1.65738 0.50586,2.47852 0.0563,0.26405 0.11025,0.53002 0.16797,0.79297 0.22587,1.02889 0.46098,2.04908 0.70898,3.06054 0.0534,0.2177 0.1116,0.43157 0.16602,0.64844 0.19951,0.7951 0.40549,1.58533 0.61914,2.36914 0.0957,0.35127 0.19435,0.69987 0.29297,1.04883 0.19246,0.68095 0.3902,1.35732 0.59375,2.0293 0.0958,0.31639 0.19075,0.6329 0.28906,0.94726 0.28167,0.90061 0.57266,1.79602 0.875,2.67969 0.0217,0.0634 0.0426,0.12804 0.0644,0.19141 0.34091,0.99009 0.69497,1.96751 1.0625,2.93554 0.0716,0.18844 0.14814,0.37296 0.22071,0.56055 0.28694,0.74175 0.58167,1.47686 0.88476,2.20508 0.11934,0.28671 0.23946,0.57284 0.36133,0.85742 0.27662,0.64595 0.56175,1.28513 0.85156,1.91992 0.13324,0.29185 0.26434,0.58555 0.40039,0.875 0.39927,0.8494 0.80663,1.69115 1.23047,2.51953 0.004,0.008 0.008,0.0156 0.0117,0.0234 0.0705,0.13765 0.14563,0.27114 0.2168,0.4082 0.38247,0.73656 0.77524,1.46432 1.17773,2.1836 0.13532,0.2418 0.27451,0.48088 0.41211,0.7207 0.3573,0.62272 0.72282,1.23851 1.09571,1.84766 0.14259,0.23295 0.28478,0.46632 0.42968,0.69726 0.41053,0.65428 0.83057,1.29961 1.25977,1.9375 0.11107,0.16509 0.21774,0.33407 0.33008,0.49805 0.53574,0.78198 1.08756,1.55035 1.65234,2.30664 0.1221,0.1635 0.24958,0.3221 0.37305,0.48437 0.4536,0.59619 0.91442,1.18612 1.38672,1.76563 0.18347,0.22513 0.37031,0.44735 0.55664,0.66992 0.43383,0.51825 0.87674,1.02896 1.32617,1.53321 0.19322,0.21678 0.38395,0.43622 0.58008,0.65039 0.63174,0.68985 1.2733,1.369 1.93554,2.03125 0.59211,0.59211 1.2132,1.17176 1.83985,1.74804 5.69156,4.85286 17.93404,11.60106 33.3789,18.97461 32.55963,11.89987 76.70746,15.70454 117.13086,11.94336 C 297.82534,403.8697 330.88706,296.79745 354.01758,64.021484 Z"
       id="path1074"
       inkscape:connector-curvature="0"
       transform="translate(-161.89871,-10.426315)" />
  </g>
  <g
     inkscape:groupmode="layer"
     id="layer6"
     inkscape:label="Android White Curve"
     style="display:none"
     sodipodi:insensitive="true">
    <g
       id="g911"
       transform="matrix(0.87322183,0,0,0.87322183,194.35392,24.180123)"
       style="display:inline;fill:#ffffff;fill-opacity:1">
      <path
         sodipodi:nodetypes="ccczzccccccccc"
         inkscape:connector-curvature="0"
         id="path909"
         d="m 182.84375,45.626193 c -16.29861,1.142333 -26.23315,16.501335 -33.5,29.375 -19.98234,39.320647 -29.41166,83.100067 -39.0625,125.906247 -16.155723,82.81213 -50.293791,215.83409 3.19045,269.31833 53.48425,53.48425 231.59687,50.51374 282.11062,0 50.51374,-50.51375 30.06714,-125.53931 19.12952,-177.43847 -8.5536,-36.7393 -16.96361,-74.48217 -35.33684,-107.66106 -6.83572,-11.75705 -17.99633,-25.00061 -33.09375,-23 -18.1292,1.96431 -28.99802,19.01541 -36.39096,33.92253 -7.5802,13.52367 -11.99944,29.6977 -24.07779,40.01497 -3.79707,3.14244 -9.39091,2.47401 -12,-1.90625 C 260.29164,216.07686 254.50716,193.81065 246.96707,172.73933 234.7123,136.87558 225.8666,99.355182 208.28125,65.719943 202.87023,56.387589 195.06463,44.995209 182.84375,45.626193 Z"
         style="fill:#ffffff;fill-opacity:1;fill-rule:evenodd;stroke:none" />
    </g>
  </g>
  <g
     inkscape:groupmode="layer"
     id="layer7"
     inkscape:label="RC Curve"
     style="display:none"
     transform="translate(161.89871,10.426315)"
     sodipodi:insensitive="true">
    <g
       id="g4339"
       transform="matrix(0.87322183,0,0,0.87322183,32.455213,13.753808)"
       style="display:inline">
      <path
         sodipodi:nodetypes="ccczzccccccccc"
         inkscape:connector-curvature="0"
         id="path4341"
         d="m 182.84375,45.626193 c -16.29861,1.142333 -26.23315,16.501335 -33.5,29.375 -19.98234,39.320647 -29.41166,83.100067 -39.0625,125.906247 -16.155723,82.81213 -50.293791,215.83409 3.19045,269.31833 53.48425,53.48425 231.59687,50.51374 282.11062,0 50.51374,-50.51375 30.06714,-125.53931 19.12952,-177.43847 -8.5536,-36.7393 -16.96361,-74.48217 -35.33684,-107.66106 -6.83572,-11.75705 -17.99633,-25.00061 -33.09375,-23 -18.1292,1.96431 -28.99802,19.01541 -36.39096,33.92253 -7.5802,13.52367 -11.99944,29.6977 -24.07779,40.01497 -3.79707,3.14244 -9.39091,2.47401 -12,-1.90625 C 260.29164,216.07686 254.50716,193.81065 246.96707,172.73933 234.7123,136.87558 225.8666,99.355182 208.28125,65.719943 202.87023,56.387589 195.06463,44.995209 182.84375,45.626193 Z"
         style="fill:url(#radialGradient4349);fill-opacity:1;fill-rule:evenodd;stroke:none" />
    </g>
    <path
       style="display:inline;opacity:0.5;fill:url(#linearGradient1105-6);fill-opacity:1;fill-rule:evenodd;stroke:none;stroke-width:0.87322181"
       d="m 339.20886,155.23517 c -2.35422,211.57319 23.20637,239.15188 -119.07618,301.46679 36.58841,3.84776 76.65979,1.19372 108.66016,-7.55664 0.007,-0.002 0.0129,-0.004 0.0195,-0.006 21.94797,-8.03537 39.97796,-16.53101 48.03711,-23.79101 0.002,-0.002 0.004,-0.004 0.006,-0.006 l 0.004,-0.004 c 0.36208,-0.32646 0.7041,-0.65137 1.02539,-0.97265 0.68987,-0.68988 1.3636,-1.3838 2.02343,-2.08399 0.6589,-0.69915 1.30217,-1.40221 1.93164,-2.11133 3.3e-4,-3.7e-4 -3.3e-4,-0.002 0,-0.002 0.62978,-0.70948 1.24485,-1.42344 1.84571,-2.14258 0.60145,-0.71985 1.1887,-1.44266 1.76172,-2.17187 0.57215,-0.72807 1.12948,-1.46018 1.67382,-2.19727 3.2e-4,-4.3e-4 -3.1e-4,-0.002 0,-0.002 0.54464,-0.73751 1.07642,-1.4784 1.59375,-2.22461 0.68533,-0.98854 1.33811,-1.98714 1.97657,-2.99024 0.17167,-0.26971 0.34142,-0.5398 0.50976,-0.81054 0.62344,-1.00265 1.23389,-2.00909 1.8125,-3.02539 2.9e-4,-5e-4 -2.8e-4,-10e-4 0,-0.002 0.43834,-0.76992 0.86413,-1.54296 1.27735,-2.32031 2.7e-4,-5.1e-4 -2.8e-4,-10e-4 0,-0.002 0.41346,-0.77786 0.81428,-1.55877 1.20312,-2.34375 0.52433,-1.05851 1.01935,-2.12458 1.5,-3.19531 0.10944,-0.24377 0.21701,-0.48805 0.32422,-0.73243 0.46955,-1.07033 0.92571,-2.14494 1.35352,-3.22656 0.63633,-1.60886 1.22791,-3.2297 1.77539,-4.86133 0.31284,-0.93236 0.60771,-1.86951 0.89257,-2.80859 0.092,-0.30337 0.1784,-0.60806 0.26758,-0.91211 0.19105,-0.65148 0.37658,-1.30453 0.55469,-1.95898 0.0889,-0.32649 0.17601,-0.65327 0.26172,-0.98047 0.1712,-0.65376 0.33537,-1.30835 0.49414,-1.96485 0.077,-0.31831 0.15634,-0.63615 0.23047,-0.95508 0.21925,-0.9436 0.43038,-1.88915 0.625,-2.83789 1.3e-4,-6.2e-4 -1.3e-4,-0.001 0,-0.002 0.17192,-0.83808 0.33505,-1.67782 0.48828,-2.51953 1.1e-4,-6.3e-4 -1.2e-4,-0.001 0,-0.002 0.15332,-0.84234 0.29651,-1.6856 0.43164,-2.53125 1.75674,-10.99408 1.99849,-22.25357 1.31445,-33.43164 -0.1052,-1.71945 -0.23201,-3.43595 -0.3789,-5.15039 -0.13253,-1.54678 -0.28609,-3.09026 -0.44922,-4.63086 -0.0483,-0.4562 -0.0996,-0.91164 -0.15039,-1.36719 -0.13258,-1.18858 -0.27325,-2.37501 -0.42188,-3.55859 -0.0454,-0.36194 -0.0879,-0.72452 -0.13476,-1.08594 -0.20232,-1.5604 -0.41405,-3.11653 -0.64063,-4.66602 -0.2462,-1.68371 -0.50661,-3.36091 -0.77734,-5.0293 -0.28842,-1.77737 -0.59114,-3.54376 -0.90235,-5.30078 -0.12347,-0.69708 -0.25436,-1.38654 -0.38085,-2.08007 -0.18917,-1.0372 -0.37726,-2.07478 -0.57227,-3.10352 -0.15929,-0.84021 -0.32184,-1.67363 -0.48438,-2.50781 -0.15221,-0.78129 -0.30443,-1.5622 -0.45898,-2.33789 -0.55199,-2.76994 -1.11777,-5.49914 -1.68555,-8.18946 -0.51461,-2.43863 -1.02879,-4.84213 -1.53906,-7.20507 -0.83055,-3.84476 -1.6807,-7.77131 -2.44141,-11.38086 -0.93379,-4.01081 -1.86538,-8.0338 -2.8125,-12.0625 -0.94683,-4.02747 -1.90967,-8.05958 -2.90429,-12.08594 -1.5e-4,-6.1e-4 1.5e-4,-0.001 0,-0.002 -1.49201,-6.03987 -3.05744,-12.06876 -4.75391,-18.05274 -2.26235,-7.98003 -4.75768,-15.88121 -7.625,-23.62891 -0.71678,-1.93678 -1.4573,-3.86296 -2.22265,-5.77929 -2.29603,-5.74901 -4.82008,-11.39968 -7.63086,-16.92188 -0.46873,-0.92087 -0.94477,-1.83842 -1.42969,-2.75195 -0.48465,-0.91303 -0.97715,-1.82117 -1.47852,-2.72656 -0.36438,-0.62672 -0.74426,-1.25756 -1.13672,-1.89063 -0.009,-0.0148 -0.0182,-0.0301 -0.0273,-0.0449 -0.0388,-0.0625 -0.082,-0.12493 -0.12109,-0.1875 -0.33973,-0.54355 -0.68855,-1.08778 -1.04883,-1.63086 -0.0981,-0.14778 -0.2012,-0.29386 -0.30078,-0.44141 -0.30465,-0.45149 -0.61479,-0.9019 -0.9336,-1.3496 -0.15492,-0.21746 -0.31244,-0.43426 -0.4707,-0.6504 -0.2792,-0.38147 -0.56396,-0.76054 -0.85352,-1.13671 -0.18699,-0.2428 -0.3751,-0.48456 -0.5664,-0.72461 -0.27763,-0.34858 -0.56294,-0.69146 -0.84961,-1.03321 -0.20557,-0.24489 -0.41089,-0.48964 -0.6211,-0.73047 -0.2767,-0.31723 -0.56098,-0.62629 -0.8457,-0.93554 -0.2324,-0.25224 -0.4615,-0.50763 -0.69922,-0.75391 -0.27624,-0.2864 -0.56229,-0.56037 -0.8457,-0.83789 -0.25735,-0.2518 -0.51019,-0.51013 -0.77344,-0.7539 -0.24391,-0.22605 -0.49909,-0.43571 -0.74804,-0.6543 -0.58588,-0.514 -1.18512,-1.0049 -1.79883,-1.47266 -0.25424,-0.19394 -0.50468,-0.39493 -0.76367,-0.58008 -0.32292,-0.23063 -0.65604,-0.44209 -0.98633,-0.6582 -0.27554,-0.18043 -0.54943,-0.3635 -0.83008,-0.5332 -1.97138,-1.19104 -4.06594,-2.11868 -6.28711,-2.66992 -0.30581,-0.0759 -0.61333,-0.1434 -0.92383,-0.20508 -0.0364,-0.007 -0.0729,-0.0144 -0.10937,-0.0215 -0.29396,-0.0567 -0.59055,-0.1069 -0.88868,-0.15039 -0.052,-0.008 -0.10414,-0.0143 -0.15624,-0.0215 -0.30589,-0.0421 -0.61358,-0.0777 -0.92383,-0.10547 -0.005,-4.1e-4 -0.009,-0.002 -0.0137,-0.002 z"
       id="path1072-2"
       inkscape:connector-curvature="0"
       sodipodi:nodetypes="ccccccccccccccccccccccccccccccccccccccccccccccssccccccsccscccccccccccccccccccccccccccccccc" />
    <path
       style="display:inline;opacity:0.4;fill:url(#linearGradient1088-4);fill-opacity:1;fill-rule:evenodd;stroke:none;stroke-width:0.87322181"
       d="m 192.11706,53.596488 c -0.44476,0.0312 -0.88436,0.0739 -1.31836,0.12891 -0.86801,0.10995 -1.71485,0.26698 -2.54102,0.4668 -0.51518,0.1246 -1.02011,0.27238 -1.51953,0.42968 -0.37313,0.11753 -0.74265,0.24458 -1.10742,0.37891 -0.0157,0.006 -0.0312,0.0117 -0.0469,0.0176 -0.005,0.002 -0.0104,0.004 -0.0156,0.006 -0.01,0.004 -0.0194,0.008 -0.0293,0.0117 -0.33087,0.12333 -0.65844,0.2517 -0.98242,0.38867 -0.003,0.001 -0.005,0.003 -0.008,0.004 -0.10985,0.0465 -0.21712,0.0984 -0.32617,0.14648 -0.0379,0.0167 -0.0754,0.0341 -0.11328,0.0508 -0.19893,0.0878 -0.39801,0.17586 -0.59375,0.26953 -0.36473,0.17535 -0.72626,0.35674 -1.08204,0.54883 -0.42559,0.2298 -0.84369,0.4745 -1.25586,0.72852 -0.0182,0.0111 -0.0365,0.0221 -0.0547,0.0332 -0.0235,0.0142 -0.047,0.0285 -0.0703,0.043 -0.0207,0.0129 -0.0399,0.0281 -0.0605,0.041 -0.3735,0.23416 -0.74315,0.47429 -1.10742,0.72461 -0.54495,0.37447 -1.08242,0.76125 -1.60547,1.17187 -2.62957,2.06432 -4.9864,4.56301 -7.12305,7.26758 -0.53419,0.67613 -1.05518,1.36416 -1.5625,2.0625 -3e-4,4.2e-4 3.1e-4,0.002 0,0.002 -0.50728,0.69835 -1.00238,1.40571 -1.48437,2.11914 -0.48203,0.71344 -0.95185,1.43094 -1.41016,2.15235 0,0 0,0.002 0,0.002 -0.45799,0.72094 -0.90397,1.44423 -1.33984,2.16601 -2.9e-4,4.7e-4 2.8e-4,10e-4 0,0.002 -0.87229,1.44451 -1.70291,2.88193 -2.4961,4.28711 -0.7234,1.42349 -1.42488,2.85638 -2.11719,4.29297 -0.0756,0.15689 -0.1513,0.31366 -0.22656,0.4707 -0.10779,0.22378 -0.21564,0.44755 -0.32226,0.67188 -0.0123,0.0258 -0.0229,0.0523 -0.0352,0.0781 -0.66916,1.40898 -1.32965,2.82151 -1.9707,4.24218 -0.49387,1.09451 -0.97916,2.19187 -1.45703,3.29297 0,0 0,0.002 0,0.002 -0.86047,1.98259 -1.68682,3.97782 -2.49805,5.98046 -0.2395,0.59123 -0.47359,1.18448 -0.70899,1.777352 -0.59507,1.4988 -1.17821,3.00285 -1.74804,4.51172 -0.2293,0.60715 -0.46018,1.21355 -0.68555,1.82226 -0.74326,2.00752 -1.47312,4.01966 -2.17578,6.04297 -0.788,2.26915 -1.5517,4.54715 -2.29297,6.83399 -1.9e-4,5.8e-4 1.9e-4,0.001 0,0.002 -0.66449,2.04986 -1.3051,4.10762 -1.93555,6.16992 -0.19959,0.65283 -0.39539,1.30698 -0.59179,1.96094 -0.47098,1.56842 -0.93309,3.1404 -1.38672,4.71484 -0.15064,0.52275 -0.3043,1.045 -0.45313,1.56836 -0.60148,2.1154 -1.1934,4.23316 -1.76758,6.35742 0,0 0,0.002 0,0.002 -0.62851,2.32533 -1.24162,4.65649 -1.84179,6.99023 -0.80608,3.13437 -1.58109,6.27722 -2.34571,9.42188 -0.20744,0.85313 -0.41421,1.70692 -0.61914,2.56054 -0.37173,1.54863 -0.73322,3.0987 -1.09765,4.64844 -0.36258,1.54167 -0.7156,3.08289 -1.07227,4.625 -0.28513,1.2311 -0.57559,2.4619 -0.85742,3.69336 -0.009,0.0398 -0.0182,0.0794 -0.0273,0.11914 -1.30505,5.70418 -2.59409,11.4103 -3.875,17.0918 -0.86263,4.42172 -1.79104,9.04012 -2.75,13.76367 -0.0196,0.0967 -0.037,0.18441 -0.0566,0.28125 -0.79743,3.92637 -1.61451,7.92622 -2.45118,12.02734 -0.33603,1.64714 -0.67989,3.35342 -1.01953,5.02539 -0.68162,3.35574 -1.36805,6.77073 -2.05468,10.21485 -0.74101,3.71694 -1.48333,7.44887 -2.21485,11.25 v 0.002 c 0,0 0,0.002 0,0.002 -0.73064,3.7966 -1.44701,7.64092 -2.15234,11.50196 -0.12788,0.69999 -0.25608,1.39982 -0.38281,2.10156 -0.69993,3.87554 -1.38522,7.77236 -2.04102,11.68945 -0.40767,2.43507 -0.80577,4.8753 -1.19141,7.32032 -0.089,0.5645 -0.17202,1.13043 -0.25976,1.69531 -0.29755,1.91576 -0.58773,3.83332 -0.86914,5.75195 -0.13719,0.93526 -0.27127,1.8711 -0.4043,2.80664 -0.24651,1.73377 -0.48365,3.46771 -0.71484,5.20117 -0.10747,0.8057 -0.21833,1.61065 -0.32227,2.41602 -0.28228,2.18733 -0.55026,4.37206 -0.80469,6.55469 -0.0451,0.38693 -0.0945,0.77538 -0.13867,1.16211 -0.28218,2.47013 -0.54106,4.9338 -0.7832,7.39257 -0.0813,0.8258 -0.152,1.64851 -0.22852,2.47266 -0.15839,1.70614 -0.30853,3.40954 -0.44531,5.10742 -0.0724,0.89912 -0.14289,1.79691 -0.20898,2.69336 -0.13082,1.77456 -0.24481,3.54199 -0.34961,5.30469 -0.0507,0.85328 -0.10992,1.71037 -0.1543,2.56055 -0.0156,0.29813 -0.0282,0.59484 -0.043,0.89257 -0.0882,1.7784 -0.16381,3.5495 -0.22266,5.3125 -0.007,0.21698 -0.0167,0.43562 -0.0234,0.65235 -0.0581,1.8567 -0.0957,3.70198 -0.11914,5.53906 -0.005,0.38671 -0.008,0.77242 -0.0117,1.1582 -0.0161,1.85971 -0.0199,3.7122 0.002,5.54883 4e-5,0.003 -4e-5,0.007 0,0.01 0.0217,1.81452 0.0701,3.61268 0.13086,5.40234 0.0138,0.40809 0.027,0.81593 0.043,1.22266 0.0698,1.78256 0.15645,3.55564 0.26758,5.31054 0.01,0.15506 0.0231,0.30806 0.0332,0.46289 0.1055,1.60954 0.23106,3.20295 0.37305,4.78711 0.0356,0.39714 0.0695,0.79593 0.10742,1.19141 0.16138,1.68185 0.34385,3.3496 0.54883,5 0.0353,0.28398 0.0747,0.56464 0.11133,0.84766 0.20054,1.55106 0.421,3.08848 0.6621,4.60937 0.0409,0.25772 0.0771,0.51857 0.11915,0.77539 0.058,0.35455 0.11935,0.70578 0.17968,1.0586 0.1357,0.79352 0.27643,1.58456 0.42383,2.36914 0.0532,0.28319 0.10736,0.56564 0.16211,0.84765 0.16146,0.83168 0.33079,1.65738 0.50586,2.47852 0.0563,0.26405 0.11025,0.53002 0.16797,0.79298 0.22587,1.02889 0.46098,2.04908 0.70898,3.06054 0.0534,0.21769 0.1116,0.43157 0.16602,0.64844 0.19951,0.7951 0.40549,1.58533 0.61914,2.36914 0.0957,0.35127 0.19435,0.69987 0.29297,1.04883 0.19246,0.68095 0.3902,1.35732 0.59375,2.0293 0.0958,0.31639 0.19075,0.6329 0.28906,0.94725 0.28167,0.90061 0.57266,1.79602 0.875,2.67969 0.0217,0.0634 0.0426,0.12804 0.0644,0.19141 0.34091,0.9901 0.69497,1.96752 1.0625,2.93555 0.0716,0.18844 0.14814,0.37295 0.22071,0.56054 0.28694,0.74176 0.58167,1.47686 0.88476,2.20508 0.11934,0.28672 0.23946,0.57284 0.36133,0.85742 0.27662,0.64596 0.56175,1.28513 0.85156,1.91992 0.13324,0.29185 0.26434,0.58555 0.40039,0.875 0.39927,0.8494 0.80663,1.69115 1.23047,2.51953 0.004,0.008 0.008,0.0156 0.0117,0.0234 0.0705,0.13765 0.14563,0.27114 0.2168,0.4082 0.38247,0.73656 0.77524,1.46432 1.17773,2.1836 0.13532,0.2418 0.27451,0.48088 0.41211,0.7207 0.3573,0.62272 0.72282,1.23852 1.09571,1.84767 0.14259,0.23295 0.28478,0.46631 0.42968,0.69725 0.41053,0.65428 0.83057,1.29961 1.25977,1.9375 0.11107,0.16509 0.21774,0.33407 0.33008,0.49805 0.53574,0.78198 1.08756,1.55035 1.65234,2.30664 0.1221,0.1635 0.24958,0.3221 0.37305,0.48437 0.4536,0.59619 0.91442,1.18612 1.38672,1.76563 0.18347,0.22513 0.37031,0.44735 0.55664,0.66992 0.43383,0.51825 0.87674,1.02896 1.32617,1.53321 0.19322,0.21678 0.38395,0.43622 0.58008,0.65039 0.63174,0.68985 1.2733,1.369 1.93554,2.03125 0.59211,0.59211 1.2132,1.17176 1.83985,1.74804 5.69156,4.85286 17.93404,11.60106 33.3789,18.97461 32.55963,11.89987 76.70746,15.70454 117.13086,11.94336 C 135.92482,393.44471 168.98654,286.37246 192.11706,53.596488 Z"
       id="path1074-9"
       inkscape:connector-curvature="0" />
  </g>
  <g
     inkscape:groupmode="layer"
     id="layer4"
     inkscape:label="Dev Curve"
     style="display:inline"
     transform="translate(161.89871,10.426315)"
     sodipodi:insensitive="true">
    <g
       id="g4351"
       transform="matrix(0.87322183,0,0,0.87322183,32.455213,13.753808)"
       style="display:inline">
      <path
         sodipodi:nodetypes="ccczzccccccccc"
         inkscape:connector-curvature="0"
         id="path4353"
         d="m 182.84375,45.626193 c -16.29861,1.142333 -26.23315,16.501335 -33.5,29.375 -19.98234,39.320647 -29.41166,83.100067 -39.0625,125.906247 -16.155723,82.81213 -50.293791,215.83409 3.19045,269.31833 53.48425,53.48425 231.59687,50.51374 282.11062,0 50.51374,-50.51375 30.06714,-125.53931 19.12952,-177.43847 -8.5536,-36.7393 -16.96361,-74.48217 -35.33684,-107.66106 -6.83572,-11.75705 -17.99633,-25.00061 -33.09375,-23 -18.1292,1.96431 -28.99802,19.01541 -36.39096,33.92253 -7.5802,13.52367 -11.99944,29.6977 -24.07779,40.01497 -3.79707,3.14244 -9.39091,2.47401 -12,-1.90625 C 260.29164,216.07686 254.50716,193.81065 246.96707,172.73933 234.7123,136.87558 225.8666,99.355182 208.28125,65.719943 202.87023,56.387589 195.06463,44.995209 182.84375,45.626193 Z"
         style="fill:url(#radialGradient4359);fill-opacity:1;fill-rule:evenodd;stroke:none" />
    </g>
    <path
       sodipodi:nodetypes="ccccccccccccccccccccccccccccccccccccccccccccccssccccccsccscccccccccccccccccccccccccccccccc"
       inkscape:connector-curvature="0"
       id="path1117"
       d="m 501.10938,165.66016 c -2.35422,211.57319 23.20637,239.15188 -119.07618,301.46679 36.58841,3.84776 76.65979,1.19372 108.66016,-7.55664 0.007,-0.002 0.0129,-0.004 0.0195,-0.006 21.94797,-8.03537 39.97796,-16.53101 48.03711,-23.79101 0.002,-0.002 0.004,-0.004 0.006,-0.006 l 0.004,-0.004 c 0.36208,-0.32646 0.7041,-0.65137 1.02539,-0.97265 0.68987,-0.68988 1.3636,-1.3838 2.02343,-2.08399 0.6589,-0.69915 1.30217,-1.40221 1.93164,-2.11133 3.3e-4,-3.7e-4 -3.3e-4,-0.002 0,-0.002 0.62978,-0.70948 1.24485,-1.42344 1.84571,-2.14258 0.60145,-0.71985 1.1887,-1.44266 1.76172,-2.17187 0.57215,-0.72807 1.12948,-1.46018 1.67382,-2.19727 3.2e-4,-4.3e-4 -3.1e-4,-0.002 0,-0.002 0.54464,-0.73751 1.07642,-1.4784 1.59375,-2.22461 0.68533,-0.98854 1.33811,-1.98714 1.97657,-2.99024 0.17167,-0.26971 0.34142,-0.5398 0.50976,-0.81054 0.62344,-1.00265 1.23389,-2.00909 1.8125,-3.02539 2.9e-4,-5e-4 -2.8e-4,-0.001 0,-0.002 0.43834,-0.76992 0.86413,-1.54296 1.27735,-2.32031 2.7e-4,-5.1e-4 -2.8e-4,-0.001 0,-0.002 0.41346,-0.77786 0.81428,-1.55877 1.20312,-2.34375 0.52433,-1.05851 1.01935,-2.12458 1.5,-3.19531 0.10944,-0.24377 0.21701,-0.48805 0.32422,-0.73243 0.46955,-1.07033 0.92571,-2.14494 1.35352,-3.22656 0.63633,-1.60886 1.22791,-3.2297 1.77539,-4.86133 0.31284,-0.93236 0.60771,-1.86951 0.89257,-2.80859 0.092,-0.30337 0.1784,-0.60806 0.26758,-0.91211 0.19105,-0.65148 0.37658,-1.30453 0.55469,-1.95898 0.0889,-0.32649 0.17601,-0.65327 0.26172,-0.98047 0.1712,-0.65376 0.33537,-1.30835 0.49414,-1.96485 0.077,-0.31831 0.15634,-0.63615 0.23047,-0.95508 0.21925,-0.9436 0.43038,-1.88915 0.625,-2.83789 1.3e-4,-6.2e-4 -1.3e-4,-10e-4 0,-0.002 0.17192,-0.83808 0.33505,-1.67782 0.48828,-2.51953 1.1e-4,-6.3e-4 -1.2e-4,-0.001 0,-0.002 0.15332,-0.84234 0.29651,-1.6856 0.43164,-2.53125 1.75674,-10.99408 1.99849,-22.25357 1.31445,-33.43164 -0.1052,-1.71945 -0.23201,-3.43595 -0.3789,-5.15039 -0.13253,-1.54678 -0.28609,-3.09026 -0.44922,-4.63086 -0.0483,-0.4562 -0.0996,-0.91164 -0.15039,-1.36719 -0.13258,-1.18858 -0.27325,-2.37501 -0.42188,-3.55859 -0.0454,-0.36194 -0.0879,-0.72452 -0.13476,-1.08594 -0.20232,-1.5604 -0.41405,-3.11653 -0.64063,-4.66602 -0.2462,-1.68371 -0.50661,-3.36091 -0.77734,-5.0293 -0.28842,-1.77737 -0.59114,-3.54376 -0.90235,-5.30078 -0.12347,-0.69708 -0.25436,-1.38654 -0.38085,-2.08007 -0.18917,-1.0372 -0.37726,-2.07478 -0.57227,-3.10352 -0.15929,-0.84021 -0.32184,-1.67363 -0.48438,-2.50781 -0.15221,-0.78129 -0.30443,-1.5622 -0.45898,-2.33789 -0.55199,-2.76994 -1.11777,-5.49914 -1.68555,-8.18946 -0.51461,-2.43863 -1.02879,-4.84213 -1.53906,-7.20507 -0.83055,-3.84476 -1.6807,-7.77131 -2.44141,-11.38086 -0.93379,-4.01081 -1.86538,-8.0338 -2.8125,-12.0625 -0.94683,-4.02747 -1.90967,-8.05958 -2.90429,-12.08594 -1.5e-4,-6.1e-4 1.5e-4,-10e-4 0,-0.002 -1.49201,-6.03987 -3.05744,-12.06876 -4.75391,-18.05274 -2.26235,-7.98003 -4.75768,-15.88121 -7.625,-23.62891 -0.71678,-1.93678 -1.4573,-3.86296 -2.22265,-5.77929 -2.29603,-5.74901 -4.82008,-11.39968 -7.63086,-16.92188 -0.46873,-0.92087 -0.94477,-1.83842 -1.42969,-2.75195 -0.48465,-0.91303 -0.97715,-1.82117 -1.47852,-2.72656 -0.36438,-0.62672 -0.74426,-1.25756 -1.13672,-1.89063 -0.009,-0.0148 -0.0182,-0.0301 -0.0273,-0.0449 -0.0388,-0.0625 -0.082,-0.12493 -0.12109,-0.1875 -0.33973,-0.54355 -0.68855,-1.08778 -1.04883,-1.63086 -0.0981,-0.14778 -0.2012,-0.29386 -0.30078,-0.44141 -0.30465,-0.45149 -0.61479,-0.9019 -0.9336,-1.3496 -0.15492,-0.21746 -0.31244,-0.43426 -0.4707,-0.6504 -0.2792,-0.38147 -0.56396,-0.76054 -0.85352,-1.13671 -0.18699,-0.2428 -0.3751,-0.48456 -0.5664,-0.72461 -0.27763,-0.34858 -0.56294,-0.69146 -0.84961,-1.03321 -0.20557,-0.24489 -0.41089,-0.48964 -0.6211,-0.73047 -0.2767,-0.31723 -0.56098,-0.62629 -0.8457,-0.93554 -0.2324,-0.25224 -0.4615,-0.50763 -0.69922,-0.75391 -0.27624,-0.2864 -0.56229,-0.56037 -0.8457,-0.83789 -0.25735,-0.2518 -0.51019,-0.51013 -0.77344,-0.7539 -0.24391,-0.22605 -0.49909,-0.43571 -0.74804,-0.6543 -0.58588,-0.514 -1.18512,-1.0049 -1.79883,-1.47266 -0.25424,-0.19394 -0.50468,-0.39493 -0.76367,-0.58008 -0.32292,-0.23063 -0.65604,-0.44209 -0.98633,-0.6582 -0.27554,-0.18043 -0.54943,-0.3635 -0.83008,-0.5332 -1.97138,-1.19104 -4.06594,-2.11868 -6.28711,-2.66992 -0.30581,-0.0759 -0.61333,-0.1434 -0.92383,-0.20508 -0.0364,-0.007 -0.0729,-0.0144 -0.10937,-0.0215 -0.29396,-0.0567 -0.59055,-0.1069 -0.88868,-0.15039 -0.052,-0.008 -0.10414,-0.0143 -0.15624,-0.0215 -0.30589,-0.0421 -0.61358,-0.0777 -0.92383,-0.10547 -0.005,-4.1e-4 -0.009,-0.002 -0.0137,-0.002 z"
       style="display:inline;opacity:0.7;fill:url(#linearGradient1139);fill-opacity:1;fill-rule:evenodd;stroke:none;stroke-width:0.87322181"
       transform="translate(-161.89871,-10.426315)" />
    <path
       id="path1119"
       d="m 354.01758,64.021484 c -0.44476,0.03117 -0.88436,0.07393 -1.31836,0.128907 -0.86801,0.109947 -1.71485,0.266984 -2.54102,0.466797 -0.51518,0.1246 -1.02011,0.272389 -1.51953,0.429687 -0.37313,0.117524 -0.74265,0.244577 -1.10742,0.378906 -0.0157,0.0058 -0.0312,0.01174 -0.0469,0.01758 -0.005,0.002 -0.0104,0.0039 -0.0156,0.0059 -0.01,0.0037 -0.0194,0.008 -0.0293,0.01172 -0.33087,0.12333 -0.65844,0.251705 -0.98242,0.388671 -0.003,0.0011 -0.005,0.0028 -0.008,0.0039 -0.10985,0.04649 -0.21712,0.09845 -0.32617,0.146484 -0.0379,0.01668 -0.0754,0.03406 -0.11328,0.05078 -0.19893,0.08782 -0.39801,0.175857 -0.59375,0.269531 -0.36473,0.175343 -0.72626,0.356733 -1.08204,0.548829 -0.42559,0.229793 -0.84369,0.474497 -1.25586,0.728515 -0.0182,0.01111 -0.0365,0.02206 -0.0547,0.0332 -0.0235,0.01425 -0.047,0.02854 -0.0703,0.04297 -0.0207,0.01289 -0.0399,0.02808 -0.0605,0.04102 -0.3735,0.234157 -0.74315,0.474288 -1.10742,0.724609 -0.54495,0.374476 -1.08242,0.761257 -1.60547,1.171875 -2.62957,2.064322 -4.9864,4.563003 -7.12305,7.267578 -0.53419,0.676129 -1.05518,1.364158 -1.5625,2.0625 -3e-4,4.2e-4 3.1e-4,0.0015 0,0.002 -0.50728,0.698345 -1.00238,1.405706 -1.48437,2.119141 -0.48203,0.713436 -0.95185,1.430936 -1.41016,2.152344 0,0 0,0.002 0,0.002 -0.45799,0.72094 -0.90397,1.444231 -1.33984,2.166015 -2.9e-4,4.71e-4 2.8e-4,0.0015 0,0.002 -0.87229,1.444509 -1.70291,2.881933 -2.4961,4.287109 -0.7234,1.423495 -1.42488,2.856382 -2.11719,4.292969 -0.0756,0.156894 -0.1513,0.313657 -0.22656,0.470703 -0.10779,0.223777 -0.21564,0.447551 -0.32226,0.671875 -0.0123,0.0258 -0.0229,0.05232 -0.0352,0.07813 -0.66916,1.408987 -1.32965,2.821514 -1.9707,4.242187 -0.49387,1.094504 -0.97916,2.191864 -1.45703,3.292964 0,0 0,0.002 0,0.002 -0.86047,1.98259 -1.68682,3.97782 -2.49805,5.98046 -0.2395,0.59123 -0.47359,1.18448 -0.70899,1.77735 -0.59507,1.4988 -1.17821,3.00285 -1.74804,4.51172 -0.2293,0.60715 -0.46018,1.21355 -0.68555,1.82226 -0.74326,2.00752 -1.47312,4.01966 -2.17578,6.04297 -0.788,2.26915 -1.5517,4.54715 -2.29297,6.83399 -1.9e-4,5.8e-4 1.9e-4,0.001 0,0.002 -0.66449,2.04986 -1.3051,4.10762 -1.93555,6.16992 -0.19959,0.65283 -0.39539,1.30698 -0.59179,1.96094 -0.47098,1.56842 -0.93309,3.1404 -1.38672,4.71484 -0.15064,0.52275 -0.3043,1.045 -0.45313,1.56836 -0.60148,2.1154 -1.1934,4.23316 -1.76758,6.35742 0,0 0,0.002 0,0.002 -0.62851,2.32533 -1.24162,4.65649 -1.84179,6.99023 -0.80608,3.13437 -1.58109,6.27722 -2.34571,9.42188 -0.20744,0.85313 -0.41421,1.70692 -0.61914,2.56054 -0.37173,1.54863 -0.73322,3.0987 -1.09765,4.64844 -0.36258,1.54167 -0.7156,3.08289 -1.07227,4.625 -0.28513,1.2311 -0.57559,2.4619 -0.85742,3.69336 -0.009,0.0398 -0.0182,0.0794 -0.0273,0.11914 -1.30505,5.70418 -2.59409,11.4103 -3.875,17.0918 -0.86263,4.42172 -1.79104,9.04012 -2.75,13.76367 -0.0196,0.0967 -0.037,0.18441 -0.0566,0.28125 -0.79743,3.92637 -1.61451,7.92622 -2.45118,12.02734 -0.33603,1.64714 -0.67989,3.35342 -1.01953,5.02539 -0.68162,3.35574 -1.36805,6.77073 -2.05468,10.21485 -0.74101,3.71694 -1.48333,7.44887 -2.21485,11.25 v 0.002 c 0,0 0,0.002 0,0.002 -0.73064,3.7966 -1.44701,7.64092 -2.15234,11.50196 -0.12788,0.69999 -0.25608,1.39982 -0.38281,2.10156 -0.69993,3.87554 -1.38522,7.77236 -2.04102,11.68945 -0.40767,2.43507 -0.80577,4.8753 -1.19141,7.32032 -0.089,0.5645 -0.17202,1.13043 -0.25976,1.69531 -0.29755,1.91576 -0.58773,3.83332 -0.86914,5.75195 -0.13719,0.93526 -0.27127,1.8711 -0.4043,2.80664 -0.24651,1.73377 -0.48365,3.46771 -0.71484,5.20117 -0.10747,0.8057 -0.21833,1.61065 -0.32227,2.41602 -0.28228,2.18733 -0.55026,4.37206 -0.80469,6.55469 -0.0451,0.38693 -0.0945,0.77538 -0.13867,1.16211 -0.28218,2.47013 -0.54106,4.9338 -0.7832,7.39257 -0.0813,0.8258 -0.152,1.64851 -0.22852,2.47266 -0.15839,1.70614 -0.30853,3.40954 -0.44531,5.10742 -0.0724,0.89912 -0.14289,1.79691 -0.20898,2.69336 -0.13082,1.77456 -0.24481,3.54199 -0.34961,5.30469 -0.0507,0.85328 -0.10992,1.71037 -0.1543,2.56055 -0.0156,0.29813 -0.0282,0.59484 -0.043,0.89257 -0.0882,1.7784 -0.16381,3.5495 -0.22266,5.3125 -0.007,0.21698 -0.0167,0.43562 -0.0234,0.65235 -0.0581,1.8567 -0.0957,3.70198 -0.11914,5.53906 -0.005,0.38671 -0.008,0.77242 -0.0117,1.1582 -0.0161,1.85971 -0.0199,3.7122 0.002,5.54883 4e-5,0.003 -4e-5,0.007 0,0.01 0.0217,1.81452 0.0701,3.61268 0.13086,5.40234 0.0138,0.40809 0.027,0.81593 0.043,1.22266 0.0698,1.78256 0.15645,3.55564 0.26758,5.31054 0.01,0.15506 0.0231,0.30806 0.0332,0.46289 0.1055,1.60954 0.23106,3.20295 0.37305,4.78711 0.0356,0.39714 0.0695,0.79593 0.10742,1.19141 0.16138,1.68185 0.34385,3.3496 0.54883,5 0.0353,0.28398 0.0747,0.56464 0.11133,0.84766 0.20054,1.55106 0.421,3.08848 0.6621,4.60937 0.0409,0.25772 0.0771,0.51857 0.11915,0.77539 0.058,0.35455 0.11935,0.70578 0.17968,1.0586 0.1357,0.79351 0.27643,1.58456 0.42383,2.36914 0.0532,0.28319 0.10736,0.56564 0.16211,0.84765 0.16146,0.83168 0.33079,1.65738 0.50586,2.47852 0.0563,0.26405 0.11025,0.53002 0.16797,0.79297 0.22587,1.02889 0.46098,2.04908 0.70898,3.06054 0.0534,0.2177 0.1116,0.43157 0.16602,0.64844 0.19951,0.7951 0.40549,1.58533 0.61914,2.36914 0.0957,0.35127 0.19435,0.69987 0.29297,1.04883 0.19246,0.68095 0.3902,1.35732 0.59375,2.0293 0.0958,0.31639 0.19075,0.6329 0.28906,0.94726 0.28167,0.90061 0.57266,1.79602 0.875,2.67969 0.0217,0.0634 0.0426,0.12804 0.0644,0.19141 0.34091,0.99009 0.69497,1.96751 1.0625,2.93554 0.0716,0.18844 0.14814,0.37296 0.22071,0.56055 0.28694,0.74175 0.58167,1.47686 0.88476,2.20508 0.11934,0.28671 0.23946,0.57284 0.36133,0.85742 0.27662,0.64595 0.56175,1.28513 0.85156,1.91992 0.13324,0.29185 0.26434,0.58555 0.40039,0.875 0.39927,0.8494 0.80663,1.69115 1.23047,2.51953 0.004,0.008 0.008,0.0156 0.0117,0.0234 0.0705,0.13765 0.14563,0.27114 0.2168,0.4082 0.38247,0.73656 0.77524,1.46432 1.17773,2.1836 0.13532,0.2418 0.27451,0.48088 0.41211,0.7207 0.3573,0.62272 0.72282,1.23851 1.09571,1.84766 0.14259,0.23295 0.28478,0.46632 0.42968,0.69726 0.41053,0.65428 0.83057,1.29961 1.25977,1.9375 0.11107,0.16509 0.21774,0.33407 0.33008,0.49805 0.53574,0.78198 1.08756,1.55035 1.65234,2.30664 0.1221,0.1635 0.24958,0.3221 0.37305,0.48437 0.4536,0.59619 0.91442,1.18612 1.38672,1.76563 0.18347,0.22513 0.37031,0.44735 0.55664,0.66992 0.43383,0.51825 0.87674,1.02896 1.32617,1.53321 0.19322,0.21678 0.38395,0.43622 0.58008,0.65039 0.63174,0.68985 1.2733,1.369 1.93554,2.03125 0.59211,0.59211 1.2132,1.17176 1.83985,1.74804 5.69156,4.85286 17.93404,11.60106 33.3789,18.97461 32.55963,11.89987 76.70746,15.70454 117.13086,11.94336 C 297.82534,403.8697 330.88706,296.79745 354.01758,64.021484 Z"
       style="display:inline;opacity:0.6;fill:url(#linearGradient1137);fill-opacity:1;fill-rule:evenodd;stroke:none;stroke-width:0.87322181"
       transform="translate(-161.89871,-10.426315)"
       inkscape:connector-curvature="0" />
  </g>
  <g
     inkscape:groupmode="layer"
     id="layer8"
     inkscape:label="Mono Curve"
     style="display:none"
     transform="translate(161.89871,10.426315)"
     sodipodi:insensitive="true">
    <path
       sodipodi:nodetypes="ccczzccccccccc"
       inkscape:connector-curvature="0"
       id="path4364"
       d="m 192.11837,53.595596 c -14.23231,0.99751 -22.90736,14.409326 -29.25293,25.650891 -17.44902,34.335643 -25.68291,72.564793 -34.11023,109.944083 -14.10753,72.31336 -43.917638,188.47104 2.78597,235.17465 46.70361,46.70361 202.23544,44.1097 246.34515,0 44.1097,-44.10971 26.25528,-109.62367 16.70431,-154.94315 -7.46919,-32.08156 -14.81299,-65.03946 -30.8569,-94.01199 -5.9691,-10.26651 -15.71478,-21.83108 -28.89818,-20.0841 -15.83081,1.71528 -25.3217,16.60467 -31.77738,29.62189 -6.6192,11.80917 -10.47817,25.93268 -21.02525,34.94195 -3.31569,2.74405 -8.20035,2.16036 -10.47866,-1.66458 -11.80671,-15.7884 -16.85785,-35.23174 -23.44202,-53.63168 -10.70113,-31.31701 -18.42539,-64.08064 -33.7813,-93.451663 -4.72502,-8.149215 -11.54104,-18.09729 -22.21258,-17.546301 z"
       style="fill:#000000;fill-opacity:1;fill-rule:evenodd;stroke:none" />
  </g>
</svg>
